<?xml version="1.0" encoding="UTF-8"?>
<!DOCTYPE svg PUBLIC "-//W3C//DTD SVG 1.1//EN" "http://www.w3.org/Graphics/SVG/1.1/DTD/svg11.dtd">
<!-- Creator: CorelDRAW 2020 (64-Bit) -->
<svg xmlns="http://www.w3.org/2000/svg" xml:space="preserve" width="6.74666in" height="6.74666in" version="1.1" style="shape-rendering:geometricPrecision; text-rendering:geometricPrecision; image-rendering:optimizeQuality; fill-rule:evenodd; clip-rule:evenodd"
viewBox="0 0 6746.66 6746.66"
 xmlns:xlink="http://www.w3.org/1999/xlink"
 xmlns:xodm="http://www.corel.com/coreldraw/odm/2003">
 <defs>
  <style type="text/css">
   <![CDATA[
    .fil0 {fill:#31A8FF;fill-rule:nonzero}
   ]]>
  </style>
 </defs>
 <g id="Layer_x0020_1">
  <metadata id="CorelCorpID_0Corel-Layer"/>
  <g id="_2520803891776">
   <path class="fil0" d="M2768.94 2341.25c-104.01,-43.25 -216.46,-60.55 -331.71,-57.67 -73.09,0 -137.74,0 -191.15,2.89 -56.22,-2.89 -95.58,0 -115.26,2.88l0 968.79c39.35,2.88 75.9,5.77 109.63,5.77l148.99 0c109.63,0 219.27,-17.3 323.28,-51.9 89.96,-25.95 168.67,-80.73 230.51,-152.81 59.04,-72.08 87.15,-170.11 87.15,-296.98 2.81,-89.38 -19.68,-178.76 -64.66,-256.61 -47.79,-74.96 -115.26,-132.63 -196.78,-164.35zm2783 -2341.24l-4357.22 0c-660.61,0 -1194.72,547.83 -1194.72,1225.41l0 4295.84c0,677.58 534.11,1225.41 1194.72,1225.41l4357.22 -0c660.61,0 1194.72,-547.83 1194.72,-1225.41l0 -4295.84c0,-677.58 -534.11,-1225.41 -1194.72,-1225.41zm-2077.69 3359.06c-112.17,161.46 -269.59,282.56 -452.31,351.76 -191.16,72.08 -401.99,98.03 -632.5,98.03 -67.47,0 -112.44,0 -140.56,-2.89 -28.11,-2.88 -67.47,-2.88 -120.88,-2.88l0 925.26c2.81,20.18 -11.24,37.77 -30.92,40.66l-545.36 -0c-22.49,0 -33.73,-11.82 -33.73,-37.78l0 -2966.63c0,-20.18 8.43,-31.72 28.11,-31.72 47.79,0 92.77,0 157.42,-2.88 67.47,-2.88 137.75,-2.88 213.65,-5.77 75.9,-2.88 157.42,-2.88 244.57,-5.76 87.15,-2.89 171.48,-2.89 255.81,-2.89 230.51,0 421.67,28.83 579.09,89.38 140.56,49.02 269.87,129.75 376.69,236.43 89.96,92.27 160.24,204.72 205.21,328.7 41.89,121.1 64.38,245.08 64.38,374.83 0.28,247.96 -55.94,452.68 -168.67,614.15zm1993.36 1121.61c-78.71,115.33 -188.63,204.43 -314.85,256.9 -137.74,60.26 -306.41,91.69 -509.09,91.69 -129.03,0 -255.81,-11.25 -382.03,-37.2 -98.39,-17.59 -196.78,-49.02 -286.74,-92.27 -19.68,-11.24 -34.02,-31.43 -31.2,-54.5l0 -501.7c0,-8.36 3.09,-20.18 11.53,-25.95 8.15,-5.77 16.87,-2.88 25.3,2.89 109.63,66.31 224.89,112.74 348.58,141.28 106.54,28.83 218.99,43.25 331.71,43.25 106.82,0 182.72,-14.71 233.32,-40.66 44.98,-20.19 75.9,-69.2 75.9,-121.1 0,-40.66 -22.49,-77.85 -67.46,-115.33 -44.98,-37.2 -137.46,-80.44 -275.21,-135.8 -143.37,-51.9 -275.21,-121.1 -399.18,-207.31 -87.14,-63.72 -159.95,-147.05 -213.93,-245.08 -44.7,-92.27 -67.19,-193.18 -64.38,-294.39 0,-123.98 33.74,-242.2 95.86,-348.88 70.28,-115.33 174.01,-207.6 294.89,-265.26 131.84,-68.91 297.7,-100.63 497.29,-100.63 115.26,0 233.32,8.65 348.58,25.95 84.33,11.54 165.85,34.6 241.76,66.32 10.96,2.88 22.49,14.41 28.11,25.95 2.81,11.53 5.62,23.07 5.62,34.6l0 469.98c0,11.53 -5.62,23.07 -14.06,28.83 -25.3,5.76 -39.35,5.76 -50.6,0 -84.33,-46.13 -174.29,-77.85 -269.87,-98.04 -104.01,-23.07 -208.02,-37.48 -314.84,-37.48 -56.22,-2.89 -115.26,5.76 -168.95,20.18 -36.27,8.65 -67.47,28.83 -87.15,57.67 -14.06,23.07 -22.49,51.9 -22.49,77.85 0,25.95 11.24,51.9 28.39,74.96 25.3,31.72 58.75,57.67 95.58,77.85 64.37,34.6 132.12,66.31 199.31,95.15 152.08,51.9 298.26,123.98 433.19,210.48 92.77,60.26 168.67,141.28 221.8,239.31 44.98,91.69 67.47,193.18 64.66,296.7 3.09,135.8 -36.27,271.03 -109.35,383.77l0 0.01z"/>
  </g>
 </g>
</svg>
