<?xml version="1.0" encoding="UTF-8"?>
<!DOCTYPE svg PUBLIC "-//W3C//DTD SVG 1.1//EN" "http://www.w3.org/Graphics/SVG/1.1/DTD/svg11.dtd">
<!-- Creator: CorelDRAW 2020 (64-Bit) -->
<svg xmlns="http://www.w3.org/2000/svg" xml:space="preserve" width="6.74666in" height="6.74666in" version="1.1" style="shape-rendering:geometricPrecision; text-rendering:geometricPrecision; image-rendering:optimizeQuality; fill-rule:evenodd; clip-rule:evenodd"
viewBox="0 0 6746.66 6746.66"
 xmlns:xlink="http://www.w3.org/1999/xlink"
 xmlns:xodm="http://www.corel.com/coreldraw/odm/2003">
 <defs>
  <style type="text/css">
   <![CDATA[
    .fil0 {fill:#FF9A00;fill-rule:nonzero}
   ]]>
  </style>
 </defs>
 <g id="Layer_x0020_1">
  <metadata id="CorelCorpID_0Corel-Layer"/>
  <g id="_2520808738272">
   <path class="fil0" d="M2960.1 3007.17c-28.11,-89.38 -53.41,-175.87 -81.52,-265.25 -28.11,-89.38 -53.41,-172.99 -75.9,-256.6 -22.49,-80.73 -42.17,-155.69 -61.85,-224.89l-5.62 0c-25.3,123.98 -56.22,247.95 -95.58,371.93 -42.17,138.39 -84.33,282.56 -129.31,426.71 -39.35,147.04 -81.52,282.55 -123.69,403.65l714.02 0c-16.87,-60.83 -39.35,-132.63 -64.66,-207.88 -25.3,-77.56 -50.6,-161.17 -75.9,-247.67l0 0zm2591.84 -3007.16l-4357.22 0c-660.61,0 -1194.72,547.8 -1194.72,1225.35l0 4295.94c0,677.55 534.11,1225.35 1194.72,1225.35l4357.22 0c660.61,0 1194.72,-547.8 1194.72,-1225.35l0 -4295.94c0,-677.55 -534.11,-1225.35 -1194.72,-1225.35zm-1419.61 4765.91l-587.8 0c-19.4,2.88 -39.08,-11.53 -44.7,-31.72l-230.51 -686.2 -1045.73 0 -213.65 677.55c-5.62,25.95 -28.11,43.25 -53.41,40.66l-528.49 0c-30.92,0 -39.35,-17.59 -30.92,-51.9l905.18 -2673c8.43,-28.83 16.87,-60.55 28.11,-95.15 11.24,-60.55 16.87,-123.98 16.87,-187.41 -2.81,-14.42 8.43,-28.83 22.49,-31.72l728.08 0c22.49,0 33.73,8.65 36.54,23.07l1026.06 2969.68c8.43,31.43 0,46.13 -28.11,46.13zm955.78 -43.25c0,31.72 -10.96,46.13 -36.26,46.13l-551.26 0c-28.11,0 -42.17,-17.59 -42.17,-46.13l0 -2220.05c0,-28.83 11.53,-40.37 36.83,-40.37l556.6 0c25.3,0 36.26,14.42 36.26,40.37l0 2220.05 -0 0zm-58.75 -2603.52c-64.94,69.2 -160.52,106.68 -256.09,100.91 -92.77,2.89 -182.72,-34.6 -250.47,-100.91 -64.65,-72.08 -98.39,-167.22 -95.58,-265.26 -2.81,-98.03 33.74,-190.29 100.92,-256.6 68.03,-66.31 157.98,-100.91 250.75,-100.91 109.92,0 193.69,34.6 255.81,100.91 61.84,69.2 95.58,161.46 92.77,256.6 2.81,98.03 -30.93,193.17 -98.11,265.26l0 0z"/>
  </g>
 </g>
</svg>
