<?xml version="1.0" encoding="UTF-8"?>
<!DOCTYPE svg PUBLIC "-//W3C//DTD SVG 1.1//EN" "http://www.w3.org/Graphics/SVG/1.1/DTD/svg11.dtd">
<!-- Creator: CorelDRAW 2020 (64-Bit) -->
<svg xmlns="http://www.w3.org/2000/svg" xml:space="preserve" width="8.26772in" height="6.58868in" version="1.1" style="shape-rendering:geometricPrecision; text-rendering:geometricPrecision; image-rendering:optimizeQuality; fill-rule:evenodd; clip-rule:evenodd"
viewBox="0 0 8267.72 6588.68"
 xmlns:xlink="http://www.w3.org/1999/xlink"
 xmlns:xodm="http://www.corel.com/coreldraw/odm/2003">
 <defs>
  <style type="text/css">
   <![CDATA[
    .fil0 {fill:url(#id0);fill-rule:nonzero}
   ]]>
  </style>
  <linearGradient id="id0" gradientUnits="userSpaceOnUse" x1="-0" y1="3294.34" x2="8267.72" y2="3294.34">
   <stop offset="0" style="stop-opacity:1; stop-color:#8B13FD"/>
   <stop offset="1" style="stop-opacity:1; stop-color:#6E11F4"/>
  </linearGradient>
 </defs>
 <g id="Layer_x0020_1">
  <metadata id="CorelCorpID_0Corel-Layer"/>
  <g id="_2520804575168">
   <path class="fil0" d="M4054.63 3032.88l-624.9 0 0 -1046.56 741.34 0c403.05,0 631.79,179.82 631.79,505.02 0,347.24 -266.29,541.54 -748.92,541.54l0.69 0zm111.61 415.45l-736.17 0 0 1153.35 768.55 0c502.61,0 768.9,-201.53 768.9,-580.46 0,-378.94 -273.87,-572.89 -801.28,-572.89l0 0zm4101.48 -363.78l0 419.58c-388.58,37.2 -625.94,325.2 -766.83,781.3 -140.21,454.38 -159.5,1011.76 -144.69,1442.03 15.5,447.83 -333.46,861.22 -805.07,861.22l-4833.86 0c-471.95,0 -820.92,-413.39 -805.07,-861.22 14.81,-430.27 -4.48,-987.65 -144.69,-1442.03 -141.24,-456.1 -378.94,-744.09 -767.52,-781.3l0 -419.58c388.58,-37.2 626.63,-325.2 767.18,-781.3 140.55,-454.38 159.84,-1011.76 144.69,-1442.03 -15.5,-447.83 333.46,-861.22 805.41,-861.22l4833.86 0c471.95,0 820.57,413.39 805.07,861.22 -14.81,430.27 4.48,987.65 144.69,1442.03 140.9,456.1 378.25,744.09 766.83,781.3l-0 0zm-2730.76 970.42c0,-466.44 -328.3,-803.69 -815.75,-857.08l0 -19.64c358.27,-58.22 639.37,-391 639.37,-762.35 0,-529.48 -417.87,-874.31 -1054.82,-874.31l-1433.07 0 0 3504.13 1440.3 0c764.08,0 1223.97,-374.11 1223.97,-990.75z"/>
  </g>
 </g>
</svg>
