<?xml version="1.0" encoding="UTF-8"?>
<!DOCTYPE svg PUBLIC "-//W3C//DTD SVG 1.1//EN" "http://www.w3.org/Graphics/SVG/1.1/DTD/svg11.dtd">
<!-- Creator: CorelDRAW 2020 (64-Bit) -->
<svg xmlns="http://www.w3.org/2000/svg" xml:space="preserve" width="6.74667in" height="7.43068in" version="1.1" style="shape-rendering:geometricPrecision; text-rendering:geometricPrecision; image-rendering:optimizeQuality; fill-rule:evenodd; clip-rule:evenodd"
viewBox="0 0 6746.66 7430.68"
 xmlns:xlink="http://www.w3.org/1999/xlink"
 xmlns:xodm="http://www.corel.com/coreldraw/odm/2003">
 <defs>
  <style type="text/css">
   <![CDATA[
    .fil1 {fill:#05930C}
    .fil2 {fill:#1DC225}
    .fil3 {fill:#1E9E25}
    .fil0 {fill:#FEFEFE}
   ]]>
  </style>
 </defs>
 <g id="Layer_x0020_1">
  <metadata id="CorelCorpID_0Corel-Layer"/>
  <path class="fil0" d="M1210.23 4927.46c233.39,350.39 424.34,619.34 817.02,867.78 1115.84,705.94 2521.02,447.29 3317.03,-579.1 65.28,-84.17 109.79,-167.41 172.96,-254.04l-531.04 -321.38c-96.68,-53.08 -479.22,-277.77 -558.71,-286.38 -119.79,317.38 -643.94,616.24 -1108.48,598.56 -247.27,-9.41 -470.75,-96.43 -635.93,-208.27 -118.87,-80.48 -355.97,-303.41 -400.29,-458.5 -263.6,-319.5 -221.39,-1247.46 481.68,-1649.34 273.56,-156.37 644.82,-208.81 982.13,-101.61 155.08,49.29 286.16,123.9 394.66,207 142.46,109.1 249.3,287.28 309.72,316.97l1043.48 -598.72c-42.21,-182.97 -441.26,-576.48 -567.18,-673.91 -1456.11,-1126.66 -3397.78,-399.57 -3902.7,1139.7 -251.81,767.66 -117.44,1369.07 185.67,2001.23z"/>
  <path class="fil1" d="M60.54 5553.45c63.91,144.74 225.98,205.73 379.44,288.62l1238.89 696.3c285.25,153.59 554.86,309.65 830.59,465.98 169.59,96.15 698.65,426.42 864.61,426.32 166.18,-0.11 699.61,-327.95 865.65,-425.43l2069.61 -1162.39c152.87,-82.79 315.6,-145.87 372.24,-285.5l-1145.08 -623.29c-63.17,86.63 -126.94,197.9 -192.21,282.07 -796.01,1026.39 -2201.19,1285.04 -3317.03,579.1 -392.68,-248.44 -583.63,-517.39 -817.02,-867.78 -70.75,-2.13 -220.52,104.24 -293.95,145.06 -241.42,134.19 -658.28,391.19 -855.74,480.94zm2222.23 -1267.32c44.32,155.08 281.42,378.01 400.29,458.5 165.18,111.84 388.67,198.86 635.93,208.27 464.54,17.67 998.53,-299.75 1118.31,-617.13l-1131.22 -615.74 -1023.31 566.11z"/>
  <path class="fil2" d="M2282.77 4286.13l1023.31 -566.11c49.19,-56.43 810.42,-473.14 994.59,-581.14l150.28 -79.74c-60.43,-29.69 -167.26,-207.87 -309.72,-316.97 -108.5,-83.1 -239.57,-157.71 -394.66,-207 -337.31,-107.2 -708.57,-54.75 -982.13,101.61 -703.07,401.88 -745.29,1329.84 -481.68,1649.34zm-2222.23 1267.32c197.46,-89.74 614.31,-346.75 855.74,-480.94 73.44,-40.81 223.2,-147.18 293.95,-145.06 -303.11,-632.16 -437.48,-1233.57 -185.67,-2001.23 504.92,-1539.28 2446.59,-2266.36 3902.7,-1139.7 125.91,97.43 524.97,490.94 567.18,673.91l863.54 -495.83c55.15,-30.5 96.94,-55.95 144.06,-81.61 24.21,-13.19 48.66,-24.45 72.19,-40.9 58.87,-41.15 34.46,-6.44 49.81,-55.94 -105.94,-125.71 -386.55,-243.26 -548.83,-339.18 -183.85,-108.68 -382.47,-216.4 -567.39,-315.92l-1686.52 -943.87c-168.02,-94.83 -385.55,-262.3 -630.24,-149.49 -185.09,85.33 -385.98,218.16 -565.71,317.11 -184.49,101.56 -368.68,203.94 -555.3,309.47l-1698.68 951.01c-227.76,127.79 -361.32,175.74 -360.68,502.98 1.15,582.61 0.34,1165.23 0.34,1747.85 0,278.05 -45.92,1553.05 49.49,1687.36z"/>
  <path class="fil0" d="M5320.1 3538.96l354.15 0 -0.64 353.61 -352.97 0 -0.54 -353.61zm-177.35 -177.26l-351.18 1.36 -0.22 172.25 352.03 4.1 0 353.16 -348.63 0.94 -5.21 171.06 353.83 5.89 1.36 351.18 172.25 0.23 4.09 -352.04 353.16 0 0.94 348.63 171.06 5.21 5.89 -353.83 351.18 -1.37 0.22 -172.24 -352.03 -4.1 0 -353.15 348.62 -0.94 5.21 -171.06 -353.83 -5.89 -1.36 -351.18 -172.25 -0.23 -4.09 352.04 -352.52 0 -1.57 -348.63 -171.06 -5.21 -5.89 353.83z"/>
  <path class="fil3" d="M5320.63 3892.57l352.97 0 0.64 -353.61 -354.15 0 0.54 353.61zm-172 -884.7l171.06 5.21 1.57 348.63 352.52 0 4.09 -352.04 172.25 0.23 1.36 351.18 353.83 5.89 -5.21 171.06 -348.62 0.94 0 353.15 352.03 4.1 -0.22 172.24 -351.18 1.37 -5.89 353.83 -171.06 -5.21 -0.94 -348.63 -353.16 0 -4.09 352.04 -172.25 -0.23 -1.36 -351.18 -353.83 -5.89 5.21 -171.06 348.63 -0.94 0 -353.16 -352.03 -4.1 0.22 -172.25 351.18 -1.36 5.89 -353.83zm345.81 -547.44l-1043.48 598.72 -150.28 79.74c-184.17,108 -945.4,524.71 -994.59,581.14l3375.47 1837.34c95.57,-53.99 55.01,-758.06 54.99,-920.85l0.24 -1991.83c0.12,-248.33 59.11,-740.98 -112.75,-858.55 -15.35,49.5 9.06,14.79 -49.81,55.94 -23.54,16.45 -47.98,27.72 -72.19,40.9 -47.12,25.66 -88.91,51.11 -144.06,81.61l-863.54 495.83z"/>
 </g>
</svg>
