<?xml version="1.0" encoding="UTF-8"?>
<!DOCTYPE svg PUBLIC "-//W3C//DTD SVG 1.1//EN" "http://www.w3.org/Graphics/SVG/1.1/DTD/svg11.dtd">
<!-- Creator: CorelDRAW 2020 (64-Bit) -->
<svg xmlns="http://www.w3.org/2000/svg" xml:space="preserve" width="4.81154in" height="6.74666in" version="1.1" style="shape-rendering:geometricPrecision; text-rendering:geometricPrecision; image-rendering:optimizeQuality; fill-rule:evenodd; clip-rule:evenodd"
viewBox="0 0 4811.54 6746.66"
 xmlns:xlink="http://www.w3.org/1999/xlink"
 xmlns:xodm="http://www.corel.com/coreldraw/odm/2003">
 <defs>
  <style type="text/css">
   <![CDATA[
    .fil4 {fill:#131313}
    .fil0 {fill:#1572B6}
    .fil1 {fill:#33A9DB}
    .fil5 {fill:#676767}
    .fil3 {fill:#EAEAEA}
    .fil2 {fill:#FEFEFE}
   ]]>
  </style>
 </defs>
 <g id="Layer_x0020_1">
  <metadata id="CorelCorpID_0Corel-Layer"/>
  <g id="_2149608647856">
   <path class="fil0" d="M2410.51 5668.56l-1232.41 -348.33 -76.34 -939.44 596.46 2.97 41.37 476.93 680.46 179.86c-35.23,-158.2 -9.54,-753.04 -9.54,-957.46l-661.12 -0.3 -46.31 -537.41 -11.14 -67.54c119.07,-36.01 553.57,-3.01 718.57,-15.07l0 -585.79c-251.49,-38 -1333.88,32.24 -1449.23,-16.94l-49.77 -594.82 1499 -1.29 -5.06 -559.88 1968.42 0.14 -373.89 4191.47 -1589.42 436.36 -0.05 -663.47zm-2394.35 -4156.1c35.16,37.43 39.68,331.24 47.09,408.03l28.71 326.26 28.91 321.08c7.97,88.57 35.07,205.65 12.19,284.47 8.86,16.31 4.25,-14.19 16.58,38.7l27.9 320.5 29.64 328.48 28.65 318.66c6.67,81.9 33,195.91 10.71,267.35 36.03,67.05 33.34,262.19 47.77,345.5l56.95 683.61 28.93 318.66c6.71,87.25 35.39,207.59 11.7,283.5 33.83,64.1 38.97,286.11 45.1,361.1 0.22,2.01 4.63,46.81 5.5,50.37 15.71,64.51 0.31,9.42 16.59,40.58l132.51 40.94 333.28 89.89 651.54 179.43 338.12 107.65c112.39,-6.41 336.98,93.31 458.75,116.68 124.17,23.82 341.75,-114.14 471.5,-101.27 45.06,-32.81 105.16,-41.31 174.3,-61.36 59.6,-17.27 109.19,-30.7 170.52,-44.36 89.17,-31.79 200.07,-73.36 292.06,-70.34 21,-18.27 -19.67,-1.8 42.2,-26.28 10.09,-3.99 33.36,-9.34 47.21,-13.59l265.38 -70.82 331.81 -89.79c64.88,-27.51 153.19,-36.26 207.09,-70.26l6.9 -76.03 28.7 -319.78 56.32 -669.32c17.15,-104.8 6.66,-340.77 51.46,-410.83 -12.08,-73.66 1.12,-138.85 7.64,-215.19l28.89 -318.66 29.63 -328.48c5.94,-82.53 7.67,-291.43 44.49,-359.2 -22.88,-78.81 4.22,-195.89 12.19,-284.47l28.91 -321.08 29.46 -324.79c4.22,-55.13 15.6,-322.44 44.34,-370.17 -14.67,-79.43 0.96,-178.17 12.86,-259.65l54.38 -633.17 -4811.54 2.94c20.06,69.58 24.67,130.56 16.15,204.52z"/>
   <path class="fil1" d="M2410.51 2263.93l1149.75 -0.49c52.67,0 324.91,-21.57 355.68,17.74l-272.42 3025.2c-11.31,24.7 -45.47,33.06 -67.76,40.03l-227.64 61.44c-103.38,28.86 -201.63,56.67 -303.36,84.61 -187.28,51.44 -417.92,131.26 -606.07,166.19l-28.19 9.91 0.05 663.47 1589.42 -436.36 373.89 -4191.47 -1968.42 -0.14 5.06 559.88z"/>
   <path class="fil2" d="M2417.54 2861.5l843.04 2.08 -63.11 616.89 -770.55 2.8 0 583.18 568.05 -0.01c97.49,-0.36 156.71,-19.3 177.58,36.06 0,123.82 5.1,23.11 -26.72,64.52l-62.61 686.29 -663.18 187.22 -11.87 548.77c9.7,110.54 -8.01,33.26 30.51,69.33 188.15,-34.93 418.79,-114.75 606.07,-166.19 101.72,-27.94 199.98,-55.75 303.36,-84.61l227.64 -61.44c22.29,-6.97 56.45,-15.33 67.76,-40.03l272.42 -3025.2 -1498.39 0 0 580.32z"/>
   <path class="fil3" d="M2410.51 5668.56l28.19 -9.91c-38.52,-36.07 -20.81,41.2 -30.51,-69.33l11.87 -548.77 -680.46 -179.86 -41.37 -476.93 -596.46 -2.97 76.34 939.44 1232.41 348.33z"/>
   <path class="fil3" d="M961.28 2860.04l1456.26 1.46 0 -580.32 1498.39 0c-30.76,-39.3 -303,-17.74 -355.68,-17.74l-1149.75 0.49 -1499 1.29 49.77 594.82z"/>
   <path class="fil1" d="M2420.05 5040.54l663.18 -187.22 62.61 -686.29 5.15 -82.79 -740.48 -1.17c0,204.43 -25.69,799.27 9.54,957.46z"/>
   <path class="fil4" d="M2031.44 304.9c49.67,30.84 101.72,111.7 146.98,157.05l44.23 48.98 108.1 121.12 -112.65 1.99 -288.98 0.28 3.89 253.64 287.31 -3.52 320.8 -0.05 237.12 -0.86c6.3,-76.47 9.56,-180.12 -10.4,-234.38 -50.91,-37.64 -77.24,-86.62 -128.6,-131.84 -48.78,-42.94 -85.25,-80.43 -113.01,-136.54l-53.65 -63.55c-57.74,-33.88 -66.54,-35.18 -94.58,-94.78l163.11 -0.24 223.25 -2.66 1.13 -219.54 -838.59 0.19 2.08 196.14 102.44 108.58z"/>
   <path class="fil4" d="M3039.2 317.52c14.72,8.1 8,2.85 26.48,16.49 45.61,33.67 101.26,87 114.93,135.25 35.43,21.01 19.15,6.79 49.72,39.32 12.3,13.08 15.91,20.91 29.59,34.68 27.88,28.06 48.49,41.96 73.78,68.89l16.2 30.04 -403.12 3.13 0 227.81 842.17 0c-0.4,-128.12 13.31,-159.9 -29.86,-254.09 -49.76,-23.45 -328.52,-321.66 -373.8,-395.08l128.12 -1.75 257.75 0.04 1.57 -221.83 -838.07 4.02 0 157.19c20.94,68.54 70.79,85.27 104.52,155.89z"/>
   <path class="fil1" d="M1703.08 3545.37l-4.49 -62.76 728.33 0.67 770.55 -2.8 63.11 -616.89 -843.04 -2.08 -1456.26 -1.46c115.35,49.17 1197.74,-21.07 1449.23,16.94l0 585.79c-165,12.06 -599.5,-20.94 -718.57,15.07l11.14 67.54z"/>
   <path class="fil4" d="M1769.36 878.02l6.13 -248.75 -411.87 -3.82c-52.78,-17.95 -30.99,-21.59 -30.81,-189.24 0.07,-68.54 -3.81,-137.71 2.8,-205.76l430.27 -5.71 2.13 -224.61 -725.03 0.72 0.6 877.19 725.79 0z"/>
   <path class="fil3" d="M1703.08 3545.37l46.31 537.41 661.12 0.3 740.48 1.17 -5.15 82.79c31.82,-41.41 26.72,59.3 26.72,-64.52 -20.87,-55.37 -80.09,-36.43 -177.58,-36.06l-568.05 0.01 0 -583.18 -728.33 -0.67 4.49 62.76z"/>
   <path class="fil5" d="M1026.24 306.99l0.1 323.64 0.8 252.59 221.89 8.29 326.26 0 194.07 -13.5 -725.79 0 -0.6 -877.19c-34.78,42.66 -17.12,249.88 -16.73,306.16z"/>
  </g>
 </g>
</svg>
