<?xml version="1.0" encoding="UTF-8"?>
<!DOCTYPE svg PUBLIC "-//W3C//DTD SVG 1.1//EN" "http://www.w3.org/Graphics/SVG/1.1/DTD/svg11.dtd">
<!-- Creator: CorelDRAW 2020 (64-Bit) -->
<svg xmlns="http://www.w3.org/2000/svg" xml:space="preserve" width="15.3939in" height="5.44624in" version="1.1" style="shape-rendering:geometricPrecision; text-rendering:geometricPrecision; image-rendering:optimizeQuality; fill-rule:evenodd; clip-rule:evenodd"
viewBox="0 0 15393.94 5446.24"
 xmlns:xlink="http://www.w3.org/1999/xlink"
 xmlns:xodm="http://www.corel.com/coreldraw/odm/2003">
 <defs>
  <style type="text/css">
   <![CDATA[
    .fil0 {fill:url(#id0)}
   ]]>
  </style>
  <linearGradient id="id0" gradientUnits="userSpaceOnUse" x1="7696.97" y1="5446.24" x2="7696.97" y2="0">
   <stop offset="0" style="stop-opacity:1; stop-color:#2853A1"/>
   <stop offset="1" style="stop-opacity:1; stop-color:#137AC3"/>
  </linearGradient>
 </defs>
 <g id="Layer_x0020_1">
  <metadata id="CorelCorpID_0Corel-Layer"/>
  <path class="fil0" d="M3211.52 4829.87c-68.92,-82.73 -136.59,-301.11 -143.96,-439.08l143.96 439.08zm-2794.61 -4504.64l329.09 1027.11 157.78 0.24c51.1,-108.29 190.92,-578.98 246.63,-752.3 17.85,-55.54 59.18,-205.94 91,-250.8l4.72 1002.85 176.17 0.25 -6.24 -1337.22 -232.38 -1.57 -344.9 1082.66 -49.69 -134.87c-56.77,-183.43 -260.7,-878.24 -300.39,-946.44l-258.78 2.1 3.73 1334.59 176.53 0.75 6.72 -1027.36zm6063.02 -115.03c-29.11,20.08 -16.07,120.03 -16.06,159.38 -21,0 -52.09,-2.16 -71.5,-1.08l-55.04 15.76 3.35 135.15c28.26,22.52 75.02,13.18 121.94,13.18l5.26 819.77c44.31,15.69 44.33,12.47 92.32,12.78 50.61,0.33 56.99,2.61 88.4,-16.02l-3.54 -820.38 165.38 -0.93 14.96 -73.03c0.09,-32.13 -1.43,-46.67 -7.55,-77.41l-172.72 -10.4c-0.24,-34.21 -1.71,-71.89 2.18,-105.72 15.49,-134.88 117.65,-80.3 210.41,-92.5l24.87 -158.08c-203.59,-26.31 -402.65,-19 -402.67,199.52zm498.01 -65.11c-8.09,13.06 -10.14,4.29 -14.77,31.72l-0.63 190.67 -103.91 5.36c-6.91,50.07 -15.33,111 8.28,153.75l101.76 5.52c13.51,195.06 -5.76,405.61 3.8,603.07 12.44,257.06 212.78,263.54 344.08,207.73l-20.21 -156.36 -118.44 -2.91c-56.59,-61.31 -32.86,-215.93 -32.86,-312.46 0,-106.81 -6.81,-238.65 3.33,-342.95l148.9 -0.77 -7.43 -149.56 -144.4 -2.58 -3.46 -334.6c-33.76,14.41 -131.38,78.14 -164.05,104.37zm-5128.84 -108.08c-16.29,-43.24 -67.42,-31.8 -174.51,-23.62l-5.08 214.27c37.6,2.22 68.1,3.13 99.41,3.3 4.54,0.02 39.84,0.54 41.79,0.11 41.63,-9.13 17.3,5.8 37.75,-26.48l0.64 -167.58zm1119.75 1312.28l181.72 1.19c18.6,-152.69 8.8,-435.29 11,-599.77 -1.98,-80.16 20.09,-142.58 71.47,-178.98 65.59,-46.47 133.7,-8.03 192.93,12.48l54.18 -176.35c-60.33,-20.9 -117.09,-65.99 -207.49,-45.63 -95.44,21.49 -87.16,68.32 -137.69,109.02l-10.56 -93.72 -142.97 0c-30.31,122 11.46,758.37 -12.58,971.76zm-1293.14 5.54l176.83 -1.66 -6.48 -977.64 -175.05 1.74 4.7 977.56zm5854.39 -733.65c38.02,-41.91 109.76,-47.91 180.52,-55.09 -8.54,131.13 -174.72,186.48 -180.52,55.09zm38.07 -235.98c42.17,-5.19 121.77,-20.29 138.29,34.53 15.39,51.06 -5.83,36.43 -7.41,40.58 -126.09,39.72 -298.41,15.58 -289.65,187.95 8.26,162.67 195.21,173.87 303.54,99.51 2.38,2.07 5.33,5.46 6.64,6.73l20.04 19.67c19.25,14.2 -28.37,11.85 28.88,11.85l90.36 -5.03c-104.49,-157.63 92.94,-497.07 -215.37,-504.93 -121.58,-3.09 -205.83,44.03 -216.51,159.69l103.5 24.61 37.69 -75.17zm-4902.92 604.02c-60.33,337.64 -436.01,321.53 -445.16,-104.13 -9.78,-455.15 369.81,-477.45 433.01,-177.32l170.43 -27.05c-33.05,-225.18 -217,-384.11 -482.75,-307.58 -242.42,69.81 -306.13,293.93 -299.23,525.85 4.95,166.63 46.85,281.22 149.71,382.27 195.55,192.1 653.95,73.43 641.22,-279.26 -56.53,-7.63 -114.07,-23.66 -167.22,-12.78zm2006.02 36.59l-160.29 19.13c-27.65,160.28 138.49,337.52 396.59,329.58 209.96,-6.46 416.5,-160.49 342.79,-402.06 -58.7,-192.37 -310.37,-183.79 -488.38,-261.62 -247.84,-108.36 243.7,-374.37 295,-41.15l170.91 -23c-33.85,-380.29 -560.33,-356.5 -671.76,-126.3 -49.68,102.62 -24.06,225.37 31.7,295.45 107.96,135.68 479.9,111.09 494.6,253.15 11.48,111 -106.94,154.59 -216.63,147.62 -139.24,-8.85 -155.24,-80.29 -194.54,-190.82zm-963.07 -57.4c-83.85,-531.26 423.48,-597.75 483.97,-199.28 79.09,521.08 -421.78,593.3 -483.97,199.28zm658.65 27.78c106.89,-779.85 -730.7,-829.35 -832.2,-277.32 -133.32,725.05 594.84,806.61 779.01,447.48 28.52,-55.61 44.14,-104.09 53.19,-170.16zm1409.35 -473.55c355.87,-81.57 392.15,609.36 108.44,686.56 -192.61,52.41 -296.43,-111.58 -308.77,-282.36 -14.44,-199.8 31.15,-365.42 200.32,-404.2zm-373.94 459.66c35.85,249.09 224.45,454.93 523.48,380.05 524.89,-131.44 402.94,-1148.2 -213.78,-992.87 -242.87,61.17 -354.13,304.14 -309.7,612.82zm6549.11 2572.98c25.22,-433.04 277.56,-802.87 705.68,-809.66 260.46,-4.13 400.28,120.09 507.25,243.8 117.93,136.38 174.43,343.97 189.61,568.93l-1402.54 -3.06zm-3829.75 1007.74c-202.15,43.72 -327.54,218.83 -291.12,424.79 32.01,181 209.3,339.74 433.05,294.16 462.7,-94.27 320.72,-818.99 -141.93,-718.95zm702.74 -1607.21l0.11 2385.41 465.69 -0.4c19.52,-511.1 0.92,-1055.1 1.53,-1566.85 0.27,-230.5 14.93,-504.35 110,-686.67 75.86,-145.47 260.28,-291.92 477.33,-315.03 264.78,-28.19 445.15,87.96 529.82,264.33 90.77,189.06 71.91,501.48 71.91,723.47 0.01,515.33 -18.59,1066.91 1.63,1577.76l464.59 3.87 -0.59 -2030.04c-19.19,-258.88 -28.73,-439.04 -149.67,-635.65 -224,-364.16 -742.36,-452.59 -1130.99,-296.22 -212.76,85.61 -295.38,216.61 -418.03,359.09l-0.14 -367.54 -422.95 0.38 -0.25 584.09zm2662.89 376.19c4.54,41.87 -50.46,384.98 -43.39,636.41 16.1,573.06 205.89,1096.57 733.89,1340.97 346.59,160.43 807.15,118.28 1114.67,-52.91 235.53,-131.12 487.18,-458.93 540.99,-825.19l-481.69 -68.49c-153.01,718.52 -951.52,800.49 -1270.19,236.67 -82.7,-146.32 -163.25,-400.54 -150.46,-600.31l1915.32 -0.29c7.59,-450.19 -52.84,-907.12 -266.07,-1204.75l850.72 -4.94c8.45,422.27 -31.31,1922.01 39.8,2214.01 26.33,108.1 90.35,209.06 182.88,274.4 161.89,114.33 534.65,140.17 740.24,51.94l-58.93 -461.77c-98.98,1.65 -207.23,36.75 -303.09,3.86 -86.08,-29.53 -139.22,-116.22 -120.14,-225.23 -38.17,-66.54 -18.05,-1638.28 -13.86,-1857.1l438.17 -2.44 0.09 -414.89 -438.85 -4.61 0.15 -1029.88c-64.77,27.24 -183.76,117.32 -242.11,156.96 -73.56,49.96 -146.57,113.42 -223.32,148.07l0.11 725.69c-211.8,18.88 -1267.53,25.53 -1490.37,-30.4 -293.28,-73.61 -579.6,-28.82 -837.07,105.7 -201.24,105.15 -381.41,322.75 -479.26,520.75l-131.71 358.12c-0.82,-2.09 -4.32,6.44 -6.5,9.64zm-4711.18 2050.27c17.9,-19.91 19.92,31.1 18.62,-94.18l0.5 -1176.46c123.16,0 591.73,21.99 665.28,-20.22 127.38,5.06 306.63,-42.42 415.03,-85.41 114.49,-45.4 250.05,-138.7 309.27,-204.52 161.05,-178.99 254.18,-398.19 280.85,-722.04 33.14,-1329.25 -910.97,-1179.34 -1724.91,-1179.34 -147.21,0 -866.31,-9.67 -951.99,5.68l-2.55 1884.5c-10.2,-9.58 -11.52,-8.38 -23.1,-24.21l-84.1 -138.61c-38.46,-51.24 -77.67,-87.71 -125.19,-138.47 -210.49,-224.85 -853.17,-389.88 -1125.3,-458.63 -145.98,-36.88 -299.96,-70.95 -357.11,-170.5 -143.45,-249.88 273.06,-481.93 593.53,-259.7 130,90.15 133.22,275.39 173.27,360.35l930.64 -59.93c-77.89,-825.65 -617.13,-1103.46 -1483.08,-1053.28 -549.02,31.82 -1001.04,255.91 -1129.29,772.61 -57.69,232.42 -27.53,351.32 13.48,570.62 31.03,48.22 63.28,138.99 98.56,194.39 114.01,178.98 292.89,310.22 501.37,401 345.24,150.34 710.99,203.8 898.65,296.24 146.28,72.06 263.53,179.27 227.79,372.48 -27.77,150.11 -159.91,252.89 -323.69,273.62 -408.76,51.72 -569.03,-216.6 -617,-572.69 -115.57,-25.7 -731.5,48.16 -909.32,52.34 -41.07,-56.73 -344.77,-960.48 -342.9,-1015.23 -27.61,-31.14 -14.97,-5.46 -39.18,-78.61l-193.42 -570.34c-72.77,-212.4 -154.92,-431.08 -217.39,-643.61l-1054.33 -0.04c-48.16,25.37 -59.83,116.95 -78.17,170.59 -49.33,144.26 -392.87,1205.64 -438.79,1260.93 -1.24,147.74 -626.48,1773.23 -682.08,2051.43l1013.82 -0.2 134.39 -507.31c16.06,-58.36 -2.61,-37.37 36.94,-61.81l1069.45 0 139.36 569.44 1038.88 -0.16 -96.64 -299.35c334.45,334.9 902.35,397.76 1379.17,347 433.69,-46.17 837.59,-238.14 1023.1,-630.84 24.47,-51.8 8.16,-35.04 49.72,-76.3l0.53 654.29 987.34 4.46zm-958.01 -1338.25c8,61.37 30.65,109.88 30.46,202.17 -0.19,93.31 -18.79,135.28 -32.19,203.46l1.72 -405.62zm-4118.31 -1162.89c43.68,66.16 309.91,1072 327.33,1154.66l-643.77 -3.88 316.44 -1150.78zm5088.4 -241.91c91.67,-19.21 370.92,-8.2 460.54,15.24 131.34,34.36 207.03,120.06 237.49,247.97 107.49,451.38 -376.39,502.74 -698.1,463.58l0.07 -726.8z"/>
 </g>
</svg>
