<?xml version="1.0" encoding="UTF-8"?>
<!DOCTYPE svg PUBLIC "-//W3C//DTD SVG 1.1//EN" "http://www.w3.org/Graphics/SVG/1.1/DTD/svg11.dtd">
<!-- Creator: CorelDRAW 2020 (64-Bit) -->
<svg xmlns="http://www.w3.org/2000/svg" xml:space="preserve" width="5.24988in" height="7.24049in" version="1.1" style="shape-rendering:geometricPrecision; text-rendering:geometricPrecision; image-rendering:optimizeQuality; fill-rule:evenodd; clip-rule:evenodd"
viewBox="0 0 5249.88 7240.49"
 xmlns:xlink="http://www.w3.org/1999/xlink"
 xmlns:xodm="http://www.corel.com/coreldraw/odm/2003">
 <defs>
  <style type="text/css">
   <![CDATA[
    .fil2 {fill:#F58310}
    .fil1 {fill:#FFA713}
    .fil0 {fill:#FFCB2D}
    .fil3 {fill:#FFD556}
   ]]>
  </style>
 </defs>
 <g id="Layer_x0020_1">
  <metadata id="CorelCorpID_0Corel-Layer"/>
  <g id="_2147637504096">
   <path class="fil0" d="M3426.01 2379.94c-21.9,25.6 -22.17,28.4 -44.98,53.11 -2.72,2.95 -6.94,7.43 -9.74,10.37 -2.83,2.97 -7.23,7.24 -10.11,10.2 -2.94,3.01 -7.44,7.26 -10.43,10.27 -3,3.04 -7.43,7.34 -10.45,10.39l-121.04 127.17c-3.07,3.05 -7.52,7.26 -10.56,10.36l-441.24 444.11 -1293.27 1315.76 10.11 30.01 -1422.24 1433.17 -41.46 -17.82 -20.6 10.69c26.93,50.63 1736.53,994.31 1927.28,1097.46 704.38,380.87 587.52,457.42 1377.39,1.99l1945.2 -1074.53c0.01,-158.96 -448.35,-2832.37 -485.84,-3067.02 -41.54,-259.95 -80.06,-504.86 -123.46,-765.31 -24.97,-149.86 -32.79,-662.68 -305.88,-518.91 -131.15,69.05 -748.54,828.9 -908.69,878.54z"/>
   <path class="fil1" d="M-0 5827.73l20.6 -10.69c36.32,-51.15 -4.42,-4.67 41.5,-47.46 -45.8,-24.17 -23.28,24.26 -18.13,-55.84 0.35,-5.49 5.33,-23.34 7.09,-28.79l35.07 -66.4c1.15,-2.35 3.34,-7.87 4.54,-10.29l78.15 -140.8c1.06,-2.3 3.28,-7.81 4.37,-10.1 1.11,-2.33 3.6,-7.74 4.8,-10.11 1.26,-2.5 4.06,-7.92 5.45,-10.49 22.63,-41.9 45.66,-84.42 71.17,-130.48l538.63 -1009.64c1.39,-2.75 4.19,-8.19 5.44,-10.84l391.17 -746.7c1.26,-2.37 3.87,-7.76 5.02,-10.07 1.11,-2.23 3.49,-7.61 4.54,-9.83l8.65 -20.2c1.19,-2.59 3.49,-8.27 4.77,-10.98l121.04 -225.75c12.87,-23.63 21.89,-37.73 37.18,-66.19l603.61 -1147.82c1.33,-2.19 4.41,-7.24 5.63,-9.37l101.02 -214.62c84.23,39.42 64.68,32.51 109.34,123.77l502.29 945.07c37.12,66.82 71.04,87.83 74.53,162.83l441.24 -444.11c3.03,-3.1 7.49,-7.31 10.56,-10.36l121.04 -127.17c3.02,-3.06 7.45,-7.36 10.45,-10.39 2.98,-3.02 7.49,-7.26 10.43,-10.27 2.89,-2.96 7.29,-7.24 10.11,-10.2 2.8,-2.94 7.01,-7.42 9.74,-10.37 22.81,-24.71 23.09,-27.51 44.98,-53.11 -27.94,-116.47 -221.02,-441.22 -288.13,-575.37 -99.08,-198.06 -191.86,-367.57 -302.32,-564.52 -52.43,-93.48 -76.48,-220.52 -210.14,-219.82 -131.06,0.69 -163.69,129.7 -209.19,220.66 -69.76,139.48 -257.39,444.32 -279.3,555.43 -92.13,-56.83 -173.91,-270.06 -238.97,-383.9 -68.06,-119.08 -142.6,-266.13 -207.94,-394.19 -43.94,-86.14 -502.3,-952.17 -545.5,-984.56 -70.3,-52.72 -174.98,-41.92 -224.28,20.98 -56.28,71.81 -239.95,1397 -265.98,1554.75 -115.04,697.03 -224.44,1408.03 -329.25,2112.08 -74.98,503.66 -289.94,1698.18 -325,2106.23z"/>
   <path class="fil2" d="M62.1 5769.58l1412.09 -1397.9 1293.27 -1315.76c-3.48,-75 -37.41,-96 -74.53,-162.83l-502.29 -945.07c-44.66,-91.26 -25.11,-84.35 -109.34,-123.77l-101.02 214.62c-1.22,2.13 -4.3,7.19 -5.63,9.37l-603.61 1147.82c-15.29,28.46 -24.31,42.57 -37.18,66.19l-121.04 225.75c-1.28,2.71 -3.58,8.39 -4.77,10.98l-8.65 20.2c-1.05,2.22 -3.44,7.6 -4.54,9.83 -1.15,2.31 -3.76,7.7 -5.02,10.07l-391.17 746.7c-1.26,2.65 -4.05,8.09 -5.44,10.84l-538.63 1009.64c-25.5,46.06 -48.54,88.58 -71.17,130.48 -1.39,2.57 -4.19,7.99 -5.45,10.49 -1.2,2.37 -3.7,7.78 -4.8,10.11 -1.09,2.3 -3.32,7.8 -4.37,10.1l-78.15 140.8c-1.2,2.42 -3.39,7.94 -4.54,10.29l-35.07 66.4c-1.75,5.45 -6.74,23.3 -7.09,28.79 -5.14,80.1 -27.66,31.67 18.13,55.84z"/>
   <path class="fil3" d="M62.1 5769.58c-45.92,42.79 -5.18,-3.69 -41.5,47.46l41.46 17.82 1422.24 -1433.17 -10.11 -30.01 -1412.09 1397.9z"/>
  </g>
 </g>
</svg>
