<?xml version="1.0" encoding="UTF-8"?>
<!DOCTYPE svg PUBLIC "-//W3C//DTD SVG 1.1//EN" "http://www.w3.org/Graphics/SVG/1.1/DTD/svg11.dtd">
<!-- Creator: CorelDRAW 2020 (64-Bit) -->
<svg xmlns="http://www.w3.org/2000/svg" xml:space="preserve" width="6.74666in" height="6.74666in" version="1.1" style="shape-rendering:geometricPrecision; text-rendering:geometricPrecision; image-rendering:optimizeQuality; fill-rule:evenodd; clip-rule:evenodd"
viewBox="0 0 6746.66 6746.66"
 xmlns:xlink="http://www.w3.org/1999/xlink"
 xmlns:xodm="http://www.corel.com/coreldraw/odm/2003">
 <defs>
  <style type="text/css">
   <![CDATA[
    .fil0 {fill:#E64A19;fill-rule:nonzero}
   ]]>
  </style>
 </defs>
 <g id="Layer_x0020_1">
  <metadata id="CorelCorpID_0Corel-Layer"/>
  <g id="_2520579404064">
   <path class="fil0" d="M200.13 2897.34l1951.3 -1954.61 570.47 573.92c-81.02,286.96 50.65,600.96 314.01,752.8l0 1870.27c-202.62,114.83 -337.61,334.17 -337.61,584 0.13,372.7 302.52,675.1 675.23,675.1 372.83,0 675.22,-302.4 675.22,-675.22 0,-249.83 -134.99,-469.29 -337.61,-584l0 -1640.73 698.83 705.59c-23.61,50.65 -23.61,108.07 -23.61,168.81 -0.13,372.83 302.27,675.22 675.1,675.22 372.83,0 675.23,-302.4 675.23,-675.1 0,-372.83 -302.4,-675.22 -675.23,-675.22 -60.73,0 -118.15,0 -168.81,23.6l-867.64 -867.64c87.79,-314.01 -74.26,-658.26 -388.27,-789.93 -145.2,-53.97 -297.04,-67.5 -432.16,-30.37l-573.92 -570.47 266.67 -263.35c263.35,-266.67 688.75,-266.67 951.98,0l2697.33 2697.33c266.67,263.35 266.67,688.75 0,951.98l-2697.33 2697.33c-263.35,266.67 -688.75,266.67 -951.98,0l-2697.33 -2697.33c-266.67,-263.35 -266.67,-688.75 0,-951.98l0.13 0z"/>
   <filter id="saturation">
   </filter>
  </g>
 </g>
</svg>
