<?xml version="1.0" encoding="UTF-8"?>
<!DOCTYPE svg PUBLIC "-//W3C//DTD SVG 1.1//EN" "http://www.w3.org/Graphics/SVG/1.1/DTD/svg11.dtd">
<!-- Creator: CorelDRAW 2020 (64-Bit) -->
<svg xmlns="http://www.w3.org/2000/svg" xml:space="preserve" width="6.74667in" height="6.57961in" version="1.1" style="shape-rendering:geometricPrecision; text-rendering:geometricPrecision; image-rendering:optimizeQuality; fill-rule:evenodd; clip-rule:evenodd"
viewBox="0 0 6746.66 6579.61"
 xmlns:xlink="http://www.w3.org/1999/xlink"
 xmlns:xodm="http://www.corel.com/coreldraw/odm/2003">
 <defs>
  <style type="text/css">
   <![CDATA[
    .fil0 {fill:black;fill-rule:nonzero}
   ]]>
  </style>
 </defs>
 <g id="Layer_x0020_1">
  <metadata id="CorelCorpID_0Corel-Layer"/>
  <g id="_2520801762816">
   <g>
    <path class="fil0" d="M3373.33 0c-1863.77,0 -3373.33,1510.41 -3373.33,3373.33 0,1490.74 966.46,2754.89 2306.52,3200.45 168.67,31.77 230.51,-72.53 230.51,-162.2 0,-80.12 -2.81,-292.36 -4.22,-573.47 -938.35,203.52 -1136.25,-452.59 -1136.25,-452.59 -153.48,-389.34 -375.28,-493.35 -375.28,-493.35 -305.57,-209.15 23.61,-204.93 23.61,-204.93 338.74,23.61 516.68,347.46 516.68,347.46 300.79,515.84 789.64,366.85 982.48,280.55 30.36,-218.14 117.22,-366.85 213.65,-451.18 -749.16,-84.33 -1536.55,-374.44 -1536.55,-1666.99 0,-368.26 130.72,-669.04 347.17,-905.18 -37.95,-85.18 -151.8,-428.13 29.52,-892.81 0,0 282.52,-90.52 927.66,345.77 269.87,-75.06 556.6,-112.17 843.33,-113.85 286.73,1.69 573.46,38.79 843.33,113.85 640.93,-436.28 923.45,-345.77 923.45,-345.77 181.32,464.68 67.47,807.63 33.74,892.81 215.05,236.13 345.76,536.92 345.76,905.18 0,1295.92 -788.52,1581.25 -1539.08,1664.18 118.07,101.2 227.7,308.1 227.7,624.07 0,451.46 -4.22,814.1 -4.22,923.73 0,88.55 59.04,193.96 231.92,160.23 1349.61,-442.46 2315.23,-1707.46 2315.23,-3195.95 0,-1862.92 -1510.41,-3373.33 -3373.33,-3373.33l0 -0zm0 0l0 0 0 0z"/>
   </g>
  </g>
 </g>
</svg>
