<?xml version="1.0" encoding="UTF-8"?>
<!DOCTYPE svg PUBLIC "-//W3C//DTD SVG 1.1//EN" "http://www.w3.org/Graphics/SVG/1.1/DTD/svg11.dtd">
<!-- Creator: CorelDRAW 2020 (64-Bit) -->
<svg xmlns="http://www.w3.org/2000/svg" xml:space="preserve" width="6.74667in" height="6.74667in" version="1.1" style="shape-rendering:geometricPrecision; text-rendering:geometricPrecision; image-rendering:optimizeQuality; fill-rule:evenodd; clip-rule:evenodd"
viewBox="0 0 6746.66 6746.66"
 xmlns:xlink="http://www.w3.org/1999/xlink"
 xmlns:xodm="http://www.corel.com/coreldraw/odm/2003">
 <defs>
  <style type="text/css">
   <![CDATA[
    .fil4 {fill:#E24329}
    .fil2 {fill:#FC6D26}
    .fil3 {fill:#FCA326}
    .fil1 {fill:#E24329;fill-opacity:0.901961}
    .fil0 {fill:#FC6D26;fill-opacity:0.949020}
    .fil5 {fill:#FCA326;fill-opacity:0.949020}
   ]]>
  </style>
 </defs>
 <g id="Layer_x0020_1">
  <metadata id="CorelCorpID_0Corel-Layer"/>
  <g id="_2520579406656">
   <g>
    <g id="logo-square">
     <g id="logo-no-bg">
      <g id="gitlab_logo">
       <g>
        <g id="g18-Clipped">
         <g id="Group">
          <g>
           <path class="fil0" d="M6733.96 3857.5l-377.51 -1261.26 -748.16 -2499.77c-38.48,-128.6 -206.09,-128.6 -244.6,0l-748.18 2499.77 -2484.46 0 -748.2 -2499.77c-38.48,-128.6 -206.09,-128.6 -244.6,0l-748.16 2499.77 -377.48 1261.26c-34.45,115.04 3.28,241.07 93.42,312.17l3267.17 2576.95 3267.17 -2576.95c90.14,-71.11 127.85,-197.13 93.42,-312.17m0.16 0l0 0 0 0z"/>
          </g>
          <g>
           <polygon class="fil1" points="3373.34,6746.66 4615.55,2596.23 2131.09,2596.23 "/>
          </g>
          <g>
           <polygon class="fil2" points="3373.35,6746.65 2131.14,2596.37 390.22,2596.37 "/>
          </g>
          <g>
           <path class="fil3" d="M390.15 2596.3l-377.51 1261.26c-34.43,115.04 3.29,241.07 93.44,312.15l3267.17 2576.95 -2983.1 -4150.36z"/>
          </g>
          <g>
           <path class="fil4" d="M390.15 2596.24l1740.91 0 -748.18 -2499.77c-38.5,-128.62 -206.12,-128.62 -244.59,0l-748.13 2499.77z"/>
          </g>
          <g>
           <polygon class="fil2" points="3373.34,6746.65 4615.55,2596.37 6356.46,2596.37 "/>
          </g>
          <g>
           <path class="fil5" d="M6356.55 2596.3l377.51 1261.26c34.43,115.04 -3.29,241.07 -93.44,312.15l-3267.17 2576.95 2983.1 -4150.36z"/>
          </g>
          <g>
           <path class="fil1" d="M6356.41 2596.24l-1740.92 0 748.18 -2499.77c38.5,-128.62 206.12,-128.62 244.59,0l748.14 2499.77z"/>
          </g>
         </g>
        </g>
       </g>
      </g>
     </g>
    </g>
   </g>
   <filter id="saturation">
   </filter>
  </g>
 </g>
</svg>
