<?xml version="1.0" encoding="UTF-8"?>
<!DOCTYPE svg PUBLIC "-//W3C//DTD SVG 1.1//EN" "http://www.w3.org/Graphics/SVG/1.1/DTD/svg11.dtd">
<!-- Creator: CorelDRAW 2020 (64-Bit) -->
<svg xmlns="http://www.w3.org/2000/svg" xml:space="preserve" width="6.072in" height="6.74667in" version="1.1" style="shape-rendering:geometricPrecision; text-rendering:geometricPrecision; image-rendering:optimizeQuality; fill-rule:evenodd; clip-rule:evenodd"
viewBox="0 0 6072 6746.67"
 xmlns:xlink="http://www.w3.org/1999/xlink"
 xmlns:xodm="http://www.corel.com/coreldraw/odm/2003">
 <defs>
  <style type="text/css">
   <![CDATA[
    .fil0 {fill:url(#id0);fill-rule:nonzero;fill-opacity:0.949020}
   ]]>
  </style>
  <radialGradient id="id0" gradientUnits="userSpaceOnUse" gradientTransform="matrix(0.899999 -0 -0 1 304 0)" cx="3036" cy="3373.33" r="3373.33" fx="3036" fy="3373.33">
   <stop offset="0" style="stop-opacity:1; stop-color:#716BBD"/>
   <stop offset="1" style="stop-opacity:1; stop-color:#430098"/>
  </radialGradient>
 </defs>
 <g id="Layer_x0020_1">
  <metadata id="CorelCorpID_0Corel-Layer"/>
  <g id="_2519133881952">
   <g id="work" display="none">
    <g id="logotype" display="inline">
    </g>
    <g id="logo_v3_28stroke29" display="inline">
    </g>
   </g>
   <g id="purple">
    <path class="fil0" d="M5464.8 0l-4857.6 0c-335.31,0 -607.2,271.89 -607.2,607.2l0 5532.26c0,335.31 271.89,607.2 607.2,607.2l4857.6 0c335.31,0 607.2,-271.89 607.2,-607.2l0 -5532.26c0,-335.31 -271.89,-607.2 -607.2,-607.2zm-3946.8 5734.67l0 -1349.33 759 674.67 -759 674.67zm2361.33 0l0 -2014.72c-3.29,-157.45 -79.11,-346.61 -421.67,-346.61 -685.97,0 -1455.43,345.01 -1463.1,348.46l-476.57 215.89 0 -2925.69 674.67 -0 0 1915.29c336.83,-109.63 807.66,-228.63 1265,-228.63 417.03,0 666.65,163.94 802.6,301.49 290.19,293.48 294.15,667.33 293.73,710.51l0 2024 -674.67 0zm168.67 -3626.33l-674.67 0c265.15,-347.88 431.62,-713.96 506,-1096.33l674.67 0c-45.54,383.21 -200.89,750.57 -506,1096.33z"/>
   </g>
   <filter id="saturation">
   </filter>
  </g>
 </g>
</svg>
