<?xml version="1.0" encoding="UTF-8"?>
<!DOCTYPE svg PUBLIC "-//W3C//DTD SVG 1.1//EN" "http://www.w3.org/Graphics/SVG/1.1/DTD/svg11.dtd">
<!-- Creator: CorelDRAW 2020 (64-Bit) -->
<svg xmlns="http://www.w3.org/2000/svg" xml:space="preserve" width="4.79622in" height="6.74667in" version="1.1" style="shape-rendering:geometricPrecision; text-rendering:geometricPrecision; image-rendering:optimizeQuality; fill-rule:evenodd; clip-rule:evenodd"
viewBox="0 0 4796.22 6746.67"
 xmlns:xlink="http://www.w3.org/1999/xlink"
 xmlns:xodm="http://www.corel.com/coreldraw/odm/2003">
 <defs>
  <style type="text/css">
   <![CDATA[
    .fil4 {fill:#010101}
    .fil0 {fill:#E44F26}
    .fil2 {fill:#EAEAEA}
    .fil1 {fill:#F0642A}
    .fil5 {fill:#F1662A}
    .fil3 {fill:#FEFEFE}
   ]]>
  </style>
 </defs>
 <g id="Layer_x0020_1">
  <metadata id="CorelCorpID_0Corel-Layer"/>
  <g id="_2149279055120">
   <path class="fil0" d="M2365.82 5706.94c-158.84,-66.82 -1096.33,-295.42 -1162.94,-324.84 -25.31,-11.18 -16.96,-10.67 -38.1,-21.96l-82.95 -932.43 602.66 3.63 43.71 472.93c94.39,36.5 564.57,165.99 645.09,161.95l26.13 -919.35 -1195.12 0.03c-55.98,0.48 -121.24,13.68 -161.27,-28.05 18.97,-55.1 -124.53,-1649.09 -155.5,-1807.44 33.39,-38.88 111.47,-24.65 187.69,-24.54l1322.89 0 0 -578.59 1962.99 0 -371.44 4188.04 -1591.58 437.15 0.03 -598.76c-85.44,-0.26 5.31,10.83 -32.29,-27.76zm-2295.6 -3471.45c20.06,34.15 14.26,25.38 19.33,78.37 3.07,32.13 5.1,65.12 7.99,97.42 4.73,52.81 9,104.74 14.54,158.89l28.75 328.12 28.72 335.94c12.34,85.16 30.47,192.63 13.68,274.53 34.13,57.23 37.15,276.2 43,355.43l29.41 323.51 28.84 326.68c8.58,81.76 25.94,174.71 11.39,253.78 24.56,40.37 16.3,38.55 21.81,111.6 2.96,39.2 7.06,78.08 10.57,117.18 7.24,80.69 15.23,156.44 19.11,237.61l52.22 566.31 28.63 337.07c12.61,84 6.79,68.36 88.06,90.46 41.07,11.17 87.23,21.03 123.45,39.13l337.07 89.57 254.37 71.13c19.24,4.65 25.52,3.09 43.53,10.01 55.54,21.34 30.42,14.71 46.48,26.85 67.9,-6.46 228.01,45.47 300.46,73.7 66.75,11.23 314.11,72.58 347.59,106.91 123.71,-3.66 360.85,115.59 453.68,99.47 145.22,-25.22 320.15,-119.98 462.91,-116.9 30.56,-27.57 28.02,-22.77 79.86,-36.08 31.43,-8.07 55.1,-14.07 89,-23.22 62.41,-16.83 119.28,-36.29 182.39,-48.82 98.35,-34.97 554.43,-166.79 635.86,-165.41 52.81,-50.7 253.6,-84.12 338.8,-104.96 108.7,-42.12 140.46,-0.89 156.28,-111.85l29.08 -337.07 28.76 -325.87 28.68 -318.27 28.75 -309.32 57.5 -660.31 28.93 -325.25c4.89,-51.79 24.84,-382.96 45.57,-390.3 -8.63,-77.54 0.26,-160.53 12.11,-237.3l28.82 -341.19 28.72 -321.74 28.95 -319.4 29.87 -326.54c4.9,-71.97 12.12,-143.83 18.68,-215.7 3.17,-34.7 4.89,-70.72 7.93,-105.38 4.77,-54.27 -1.54,-43.56 19.92,-78.55 -13.2,-70.13 0.72,-135.65 5.91,-215.3l-4796.21 0.43c11.5,185.53 94.28,796.85 70.22,924.63z"/>
   <path class="fil1" d="M887.52 2311.41l1508.07 -0.41 1505.73 -0.34 -52.98 601.08 -1451.49 0.06 0 612.78 1395.34 -0.06 -163.37 1831.29c-29.11,22.76 -2.66,8.02 -36.3,24.67l-1196.93 328.03 -29.78 -1.56c37.59,38.59 -53.15,27.51 32.29,27.76l-0.03 598.76 1591.58 -437.15 371.44 -4188.04 -1962.99 -0 0 578.59 -1322.89 0c-76.22,-0.11 -154.3,-14.34 -187.69,24.54z"/>
   <path class="fil2" d="M1043.02 4118.85l1352.57 6.44 1.26 -600.73c-141.27,0.04 -702.76,20.54 -794.19,-11.43l-53.15 -601.37 847.35 0.02 -1.26 -600.79 -1508.07 0.41c30.97,158.36 174.48,1752.35 155.5,1807.44z"/>
   <path class="fil3" d="M2395.59 4125.3l739.85 1.05 -76.13 765.81c-19.46,36.69 -632.08,184.28 -663.72,191.52l0 624.81 1196.93 -328.03c33.65,-16.65 7.19,-1.91 36.3,-24.67l163.37 -1831.29 -1395.34 0.06 -1.26 600.73z"/>
   <path class="fil2" d="M2365.82 5706.94l29.78 1.56 0 -624.81 -22.3 -17.46c-80.52,4.04 -550.7,-125.45 -645.09,-161.95l-43.71 -472.93 -602.66 -3.63 82.95 932.43c21.13,11.29 12.79,10.78 38.1,21.96 66.61,29.43 1004.1,258.02 1162.94,324.84z"/>
   <polygon class="fil3" points="2396.85,2911.79 3848.34,2911.74 3901.32,2310.66 2395.59,2311 "/>
   <path class="fil4" d="M2589.44 891.22l146.91 9.99 9.08 -449.02c38.84,59.21 91.03,110.5 122.57,184.54l41.49 76.72 44.09 45.61c56.26,-73.42 63.48,-106.3 112.35,-139.69 10.64,-53.02 54.39,-98.75 80.48,-147.83l22.48 -20.74 5.04 440.42 62.3 0.04 234.4 -1.3 2.67 -253.47 0 -321.4 0.06 -305.37 -237.13 -1.72 -103.74 0.02c-27.57,58.85 -133.59,237.17 -176.02,282.42 -34.86,-50.81 -35.34,-47.92 -57.25,-104.94 -34.59,-19.36 -46.23,-61.2 -66.86,-96.26 -8.08,-13.73 -24.89,-42.09 -30.6,-48.99 -40.74,-49.27 -50.39,-32.15 -212.33,-32.21l-144.35 -0.07 4.22 883.32 140.13 -0.09z"/>
   <path class="fil5" d="M2373.29 5066.22l22.3 17.46c31.63,-7.25 644.25,-154.83 663.72,-191.52l76.13 -765.81 -739.85 -1.05 -1352.57 -6.44c40.04,41.73 105.3,28.53 161.27,28.05l1195.12 -0.03 -26.13 919.35z"/>
   <path class="fil4" d="M445.87 320.57l0 310.47 1.26 260.22 205.92 -0.07 94.32 -0.74 3.81 -255.48 0.06 -50.18 226.19 -0.04 49.48 0.07c31.58,56.99 14.89,222.85 14.89,293.39l292.29 -1.17 0.56 -877.06 -305.02 10.22 -5.15 267.5 -272.01 0.54 -1.27 -269.36 -97.02 -0.85 -208.34 -0.01 0.04 312.54z"/>
   <path class="fil0" d="M2396.85 3524.57l0 -612.78 -847.35 -0.02 53.15 601.37c91.43,31.97 652.93,11.47 794.19,11.43z"/>
   <polygon class="fil4" points="1737.05,638.74 1738.24,890.93 1944.7,891.24 2038.54,890.89 2042.45,636.12 2042.03,281.08 2311.34,280.07 2311.31,14.02 2269.95,8.02 1468.33,13.96 1468.28,280.2 1736.64,283.24 "/>
   <polygon class="fil4" points="3624.98,313.49 3624.98,638.13 3626.12,890.44 3881.1,891.27 4206.36,891.24 4357.37,889.26 4359.76,639.87 4359.77,591.52 4202,588.82 3930.46,588.78 3930.45,316.11 3930.44,8.06 3881.1,8.02 3624.95,8.94 "/>
  </g>
 </g>
</svg>
