<?xml version="1.0" encoding="UTF-8"?>
<!DOCTYPE svg PUBLIC "-//W3C//DTD SVG 1.1//EN" "http://www.w3.org/Graphics/SVG/1.1/DTD/svg11.dtd">
<!-- Creator: CorelDRAW 2020 (64-Bit) -->
<svg xmlns="http://www.w3.org/2000/svg" xml:space="preserve" width="6.74667in" height="6.74667in" version="1.1" style="shape-rendering:geometricPrecision; text-rendering:geometricPrecision; image-rendering:optimizeQuality; fill-rule:evenodd; clip-rule:evenodd"
viewBox="0 0 6746.66 6746.66"
 xmlns:xlink="http://www.w3.org/1999/xlink"
 xmlns:xodm="http://www.corel.com/coreldraw/odm/2003">
 <defs>
  <style type="text/css">
   <![CDATA[
    .fil0 {fill:#FFCA28;fill-rule:nonzero}
   ]]>
  </style>
 </defs>
 <g id="Layer_x0020_1">
  <metadata id="CorelCorpID_0Corel-Layer"/>
  <g id="_2520805701856">
   <g>
    <path class="fil0" d="M-0 0l6746.66 0 0 6746.66 -6746.66 0 0 -6746.66 0 0zm1772.87 5637.21c149.93,318.59 446.03,580.96 952.03,580.96 562.22,0 948.28,-299.85 948.28,-955.78l0 -2166.43 -637.18 0 0 2151.44c0,322.34 -131.18,404.8 -337.33,404.8 -217.39,0 -307.35,-149.93 -408.55,-326.09l-517.24 311.09 0 0zm2241.39 -67.46c187.41,367.32 565.97,648.43 1158.18,648.43 599.7,0 1049.48,-311.1 1049.48,-884.56 0,-528.49 -303.6,-764.62 -843.33,-997.01l-157.42 -67.46c-273.61,-116.19 -389.81,-194.91 -389.81,-382.31 0,-153.67 116.19,-273.61 303.6,-273.61 179.91,0 299.85,78.71 408.55,273.61l491 -326.09c-206.15,-359.82 -498.5,-498.5 -899.55,-498.5 -565.97,0 -929.54,359.82 -929.54,835.84 0,517.24 303.6,760.87 760.87,955.78l157.42 67.47c292.36,127.44 464.77,206.15 464.77,423.54 0,179.91 -168.67,311.09 -431.04,311.09 -311.1,0 -491.01,-161.17 -625.94,-386.06l-517.24 299.85z"/>
   </g>
   <filter id="saturation">
   </filter>
  </g>
 </g>
</svg>
