<?xml version="1.0" encoding="UTF-8"?>
<!DOCTYPE svg PUBLIC "-//W3C//DTD SVG 1.1//EN" "http://www.w3.org/Graphics/SVG/1.1/DTD/svg11.dtd">
<!-- Creator: CorelDRAW 2020 (64-Bit) -->
<svg xmlns="http://www.w3.org/2000/svg" xml:space="preserve" width="15.8708in" height="5.39118in" version="1.1" style="shape-rendering:geometricPrecision; text-rendering:geometricPrecision; image-rendering:optimizeQuality; fill-rule:evenodd; clip-rule:evenodd"
viewBox="0 0 15870.79 5391.18"
 xmlns:xlink="http://www.w3.org/1999/xlink"
 xmlns:xodm="http://www.corel.com/coreldraw/odm/2003">
 <defs>
  <style type="text/css">
   <![CDATA[
    .fil3 {fill:#253857}
    .fil2 {fill:url(#id0)}
    .fil0 {fill:url(#id1)}
    .fil1 {fill:url(#id2)}
   ]]>
  </style>
  <linearGradient id="id0" gradientUnits="userSpaceOnUse" x1="2990.76" y1="2400.8" x2="4971.33" y2="402.41">
   <stop offset="0" style="stop-opacity:1; stop-color:#0053CD"/>
   <stop offset="0.501961" style="stop-opacity:1; stop-color:#207CF6"/>
   <stop offset="1" style="stop-opacity:1; stop-color:#1F88FD"/>
  </linearGradient>
  <linearGradient id="id1" gradientUnits="userSpaceOnUse" x1="421.76" y1="4988.77" x2="2402.34" y2="2990.38">
   <stop offset="0" style="stop-opacity:1; stop-color:#2684FE"/>
   <stop offset="0.6" style="stop-opacity:1; stop-color:#207CF6"/>
   <stop offset="1" style="stop-opacity:1; stop-color:#0053CD"/>
  </linearGradient>
  <linearGradient id="id2" gradientUnits="userSpaceOnUse" xlink:href="#id1" x1="1702.08" y1="3695.89" x2="3682.65" y2="1697.49">
  </linearGradient>
 </defs>
 <g id="Layer_x0020_1">
  <metadata id="CorelCorpID_0Corel-Layer"/>
  <g id="_2147651693824">
   <g>
    <path class="fil0" d="M1368.74 3770.5c79.28,0.33 192.14,-6.79 266.89,5.98 112.92,548.58 -183.06,1128.26 708.44,1515.83 97.86,42.54 346.65,124.74 471.51,90.87 19.45,-635.69 -0.59,-1425.5 0.3,-2091.66 0.16,-117.51 0.16,-235.05 -0,-352.56 -0.41,-295.67 -52.94,-346.65 -348,-346.65l-1762.77 0c-226.63,0 -481.99,-10.97 -705.11,1.89 -0.26,171.5 36.54,329.01 96.84,465.58 232.64,526.86 702.75,708.25 1271.89,710.7z"/>
    <path class="fil1" d="M2649.06 2477.62c79.27,0.34 192.13,-6.78 266.88,5.99 112.92,548.57 -183.06,1128.26 708.45,1515.83 97.85,42.54 346.65,124.74 471.51,90.86 19.44,-635.68 -0.6,-1425.5 0.3,-2091.66 0.16,-117.51 0.16,-235.05 -0,-352.56 -0.41,-295.67 -52.94,-346.65 -348,-346.65l-1762.77 0c-226.63,0 -481.99,-10.97 -705.11,1.89 -0.26,171.5 36.54,329.01 96.84,465.58 232.65,526.86 702.75,708.25 1271.9,710.7z"/>
    <path class="fil2" d="M3937.73 1182.54c79.28,0.34 192.14,-6.78 266.89,5.99 112.92,548.58 -183.06,1128.26 708.44,1515.83 97.86,42.54 346.65,124.74 471.51,90.87 19.45,-635.69 -0.59,-1425.5 0.3,-2091.66 0.16,-117.51 0.16,-235.04 -0,-352.55 -0.41,-295.67 -52.94,-346.65 -348,-346.65l-1762.77 0c-226.63,0 -481.99,-10.97 -705.11,1.89 -0.26,171.5 36.54,329.01 96.84,465.58 232.64,526.86 702.75,708.25 1271.89,710.7z"/>
   </g>
   <path class="fil3" d="M14245.48 1904.04c309.43,-44 584.46,48.59 768.8,221.16 173.61,162.52 267.92,423.68 267.81,740.94 -0.12,366.09 7.71,581.85 -169.07,839.59 -136.94,199.65 -349.84,321 -639.55,360.61 -1183.65,161.81 -1195.04,-1295.06 -871.77,-1801.06 134.18,-210.02 331,-316.75 643.78,-361.23zm-3319.83 -438.97c-25,23.56 -21.41,-6.08 -18.87,95.57 13.77,550.09 -25.8,2852.62 11.54,2954.36l567.61 -5.37 16.68 -2015.76c4.84,-220.51 199.78,-404.24 373.51,-482.94 250.43,-113.45 485.29,-77.89 759.94,-76.19l1.61 -512.21c-443.35,-14.42 -871.85,82.52 -1102.25,469.34 -32.29,54.22 -9.74,43.03 -59.94,63.45l3.31 -487.34 -553.14 -2.91zm-1245.26 -1153.65c-532.96,147.69 -234,871.57 241.47,702.07 495.64,-176.69 261.49,-841.45 -241.47,-702.07zm-168.75 4192.81l563.13 -5.06 -2.06 -3034.39 -567.35 -0.59 6.28 3040.03zm-2664.59 -605.7l-1.69 531.2c973.96,262.65 1742.64,61.93 1864.89,-919.11 19.05,-152.88 24.08,-2833.66 6.35,-2993.67l-584.45 -1.78c-22.9,378.93 -1.82,827.03 -1.82,1212.07 0,407.41 0,814.81 0,1222.22 0,637.47 19.1,1074.51 -774.65,1044.1 -226.45,-8.68 -457.13,-93.75 -508.63,-95.04zm8436.06 -1937.13c-44.53,-16.48 -50.95,-75.23 -123.64,-162.56 -49.6,-59.59 -87.44,-98.55 -144.91,-145.52 -347.85,-284.32 -948.21,-323.28 -1344.59,-139.55 -273.42,126.73 -458.06,304.18 -596.67,556.03 -288.97,525.03 -282.24,1340.39 -1.81,1859.2 304.09,562.59 972.35,771.66 1579.41,564.39 150.48,-51.38 262.94,-113.29 367.55,-201.34 61.04,-51.38 95.43,-88.54 144.59,-146.95 72.61,-86.28 73.28,-134.64 118.94,-152l4.63 509.4c150.11,6.46 307.58,0.47 458.63,1.38 136.35,0.82 122.53,25.34 120.99,-109.85 -4.87,-426.86 17.67,-2889.96 -7.96,-2918.72 -22.31,-25.04 -548.54,-11.09 -576.34,-11.09l1.17 497.2z"/>
  </g>
 </g>
</svg>
