<?xml version="1.0" encoding="UTF-8"?>
<!DOCTYPE svg PUBLIC "-//W3C//DTD SVG 1.1//EN" "http://www.w3.org/Graphics/SVG/1.1/DTD/svg11.dtd">
<!-- Creator: CorelDRAW 2020 (64-Bit) -->
<svg xmlns="http://www.w3.org/2000/svg" xml:space="preserve" width="6.74666in" height="6.74665in" version="1.1" style="shape-rendering:geometricPrecision; text-rendering:geometricPrecision; image-rendering:optimizeQuality; fill-rule:evenodd; clip-rule:evenodd"
viewBox="0 0 6746.66 6746.65"
 xmlns:xlink="http://www.w3.org/1999/xlink"
 xmlns:xodm="http://www.corel.com/coreldraw/odm/2003">
 <defs>
  <style type="text/css">
   <![CDATA[
    .fil1 {fill:url(#id0)}
    .fil0 {fill:url(#id1)}
   ]]>
  </style>
  <linearGradient id="id0" gradientUnits="userSpaceOnUse" x1="769.48" y1="971.25" x2="4826.25" y2="5779.56">
   <stop offset="0" style="stop-opacity:1; stop-color:black"/>
   <stop offset="1" style="stop-opacity:1; stop-color:white"/>
  </linearGradient>
  <linearGradient id="id1" gradientUnits="userSpaceOnUse" xlink:href="#id0" x1="6174.62" y1="5520.31" x2="1743.44" y2="1226.34">
  </linearGradient>
 </defs>
 <g id="Layer_x0020_1">
  <metadata id="CorelCorpID_0Corel-Layer"/>
  <path class="fil0" d="M3365.87 1745.72c-986.28,-339.94 -2194.48,472.93 -2194.48,2101.11 0,2658.51 1970.05,2899.81 2208.87,2899.81 1724.3,0 3366.4,-1425.07 3366.4,-3374.85 0,-2167.19 -1882.33,-3367.62 -3366.4,-3367.62 411.05,-56.93 2215.46,444.85 2215.46,2911.05 0,1608.28 -1347.34,2483.82 -2223.67,2109.74 -20.13,-7.46 -991.5,-390.65 -991.5,-1642.42 0,-1246.45 985.32,-1636.82 985.32,-1636.82z"/>
  <path class="fil1" d="M3367.63 5022.02l1.32 1.73 3.11 1.22c876.33,374.09 2223.67,-501.46 2223.67,-2109.74 0,-2012.06 -1200.95,-2716.46 -1866.5,-2876.78 -127.71,-22.66 -249.74,-34.27 -362.82,-34.27 -1724.3,0 -3366.4,1425.05 -3366.4,3374.83 0,2167.19 1882.33,3367.63 3366.4,3367.63l-2.07 -0.31c-298.35,-9.92 -2192.93,-292.25 -2192.93,-2899.49 0,-1628.19 1208.2,-2441.05 2194.48,-2101.11l-2.73 1.12 0.83 0.27c20.13,7.46 991.5,390.65 991.5,1642.42 0,1246.44 -987.85,1632.47 -987.85,1632.47l0 0.02z"/>
 </g>
</svg>
