<?xml version="1.0" encoding="UTF-8"?>
<!DOCTYPE svg PUBLIC "-//W3C//DTD SVG 1.1//EN" "http://www.w3.org/Graphics/SVG/1.1/DTD/svg11.dtd">
<!-- Creator: CorelDRAW 2020 (64-Bit) -->
<svg xmlns="http://www.w3.org/2000/svg" xml:space="preserve" width="6.64165in" height="6.6576in" version="1.1" style="shape-rendering:geometricPrecision; text-rendering:geometricPrecision; image-rendering:optimizeQuality; fill-rule:evenodd; clip-rule:evenodd"
viewBox="0 0 6748.35 6764.55"
 xmlns:xlink="http://www.w3.org/1999/xlink"
 xmlns:xodm="http://www.corel.com/coreldraw/odm/2003">
 <defs>
  <style type="text/css">
   <![CDATA[
    .fil13 {fill:#23636C}
    .fil12 {fill:#246B73}
    .fil4 {fill:#26C0B8}
    .fil6 {fill:#2BB9B9}
    .fil10 {fill:#30B5B9}
    .fil1 {fill:#31B4BA}
    .fil5 {fill:#38AEBB}
    .fil7 {fill:#39ACBB}
    .fil0 {fill:#3AAABC}
    .fil9 {fill:#3EA8BC}
    .fil11 {fill:#40A6BC}
    .fil2 {fill:#41A5BC}
    .fil8 {fill:#42A3BD}
    .fil3 {fill:#44A1BD}
   ]]>
  </style>
 </defs>
 <g id="Layer_x0020_1">
  <metadata id="CorelCorpID_0Corel-Layer"/>
  <g id="_2147647878800">
   <path class="fil0" d="M5741.63 4547.74c22.1,-18.98 36.35,-37.7 61.36,-66.08 23.71,-26.91 34.55,-29.14 64.52,-62.48l372.11 -375.82c67.09,-66.9 172.08,-183.36 247.28,-246.66 62.66,-52.73 81.72,-65.82 131.88,-121.84 29.79,-33.26 80.05,-91.84 99.57,-136.1 -47.62,-39.04 -1655.73,-717.27 -1717.14,-722.35 -100.8,117.29 -194.12,96.17 -216.86,136.32l-187.37 1164.63c62.35,67.76 95.01,98.65 116.7,228.6 197.74,23.87 914.02,216.57 1027.94,201.78z"/>
   <path class="fil1" d="M1002.5 2238.19l847.83 1243.65c313.77,-6.95 172.19,46.36 423.59,-313.62 70.18,-100.49 138.27,-211.6 204.67,-317.39 70.89,-112.94 132.36,-207.33 203.99,-318.65l203.16 -319.93c-87.79,-160.59 -94.79,-100.43 -95.03,-338.69l-992.63 -427.37 -795.59 792z"/>
   <path class="fil2" d="M3207.6 4247.23c-156.83,-31.9 -778.83,-181.79 -887.66,-173.11 -47.07,63.97 2.81,89.61 46.75,151.46l1310.05 1893.36c49.4,72.26 160.46,217.88 190.46,288.82 55.04,-20.08 141.4,-112.81 151.79,-138.71l114.41 -688.9c26.06,-155.38 51.23,-308.56 76.12,-461.96 23.5,-144.85 62.64,-322.01 73.09,-464.57 -95.08,-71.27 -142.37,-95.47 -183.63,-224.31 -282.91,-41.37 -607.51,-124.34 -891.39,-182.08z"/>
   <path class="fil3" d="M2760.84 6287.18c48.14,48.15 85.93,85.8 134.17,133.96 30.27,30.22 35.02,43.19 63.81,77.33 76.1,90.24 250.37,259.55 405.2,265.8 176.72,7.13 275.48,-120.27 355.42,-184.78 -42.2,-110.03 -1020.75,-1484.85 -1195.05,-1749.08 -37.66,-57.09 -352.82,-529.66 -402.03,-571.68 -165.15,41.31 -150.27,28.97 -316.66,12.72 -82.13,167.32 -333.58,492.17 -409.94,650.3l1365.07 1365.43z"/>
   <path class="fil4" d="M1962.02 1280.85c53.17,36.91 885.5,389.57 950.62,399.83 148.5,-85.69 162.59,-87.73 356.36,-62.11 47.29,-87.99 123.28,-192.7 179.35,-281.92 74.56,-118.64 531.33,-805.27 547.42,-860.18 -172.31,-141.24 -330.09,-378.35 -482.29,-446.09 -152.46,-67.86 -268.59,-10.89 -363.77,62l-776.92 761.54c-60.38,54.3 -384.5,368.18 -410.79,426.94z"/>
   <path class="fil5" d="M2366.84 3778.68l22.38 86.81 1736.33 356.68c96.98,-100.83 89.22,-124.55 263.16,-166.94 28.56,-133.27 193.36,-1106.21 182.44,-1173.01l-37.35 -30.27 -1632.4 689.89c-102.83,43.69 -476.18,189.58 -534.55,236.84z"/>
   <path class="fil6" d="M3438.99 1746.08l71.31 195.53 1037.85 442.1c20.81,-14.07 34.72,-22.9 55.16,-32.82l65.32 -39.86 128.8 -796.19c43.56,-268.6 66.88,-166.59 -166.55,-399.9l-310.44 -310.48c-43.89,-44 -116.82,-127.63 -165.94,-160.52l-715.51 1102.14z"/>
   <path class="fil1" d="M2278.79 3552.46l16.51 15.18 2137.13 -906.83 6.43 -98.59 -987.33 -414.51c-130.03,146.87 -146.22,151 -378.28,168.69 -68.05,92.51 -135.52,205.93 -199.8,308.31l-594.66 927.75z"/>
   <path class="fil7" d="M-0 3355.31c56.04,30.62 130.5,36.49 193.97,50.31 310.41,67.6 1205.76,266.08 1395.88,289.18l72.45 -112.4c-71.24,-126.74 -813.28,-1174.25 -824.12,-1181.66 -154.1,170.25 -379.43,380.87 -553.92,555.88 -89.35,89.61 -267,200.94 -284.25,398.69z"/>
   <path class="fil8" d="M5532.77 4750.51l-5.56 -28 -885.59 -171.11c-45.82,60.76 -50.2,67 -133.83,103.17l-214.21 1332.58c49.07,-24.14 129.3,-113.2 167.81,-151.71l465.86 -465.52c24.79,-24.9 41.3,-43.19 75.16,-80.06l530.36 -539.36z"/>
   <path class="fil5" d="M5108.74 2607.38l17.24 14.89c12.92,8.17 13.06,8.58 28.26,15.79 294.62,139.67 856.63,358.32 1181.09,498.21 131.67,56.77 283.57,130.12 413.02,173.43 -19.59,-160.02 -260.78,-331.36 -316.47,-397.22l-612.17 -609.67c-69.15,17.89 -667.29,269.67 -710.97,304.57z"/>
   <path class="fil9" d="M705.56 4243.19c67.12,-15.85 758.93,-308.68 789.84,-337.5 -34.41,-26.19 -1274.45,-285.27 -1405.09,-298.69 55,114.38 511.08,471.95 615.25,636.19z"/>
   <path class="fil10" d="M4881.06 2338.44l78.35 57.2c18.54,14.76 4.95,5.7 27.69,20.61l663.93 -277.91 -636.02 -636.96 -133.95 837.06z"/>
   <path class="fil11" d="M1244.64 4764.53c63.56,-111.38 134.7,-211.32 202.9,-320.14 52.32,-83.48 213.7,-287 169,-329.33 -37.27,-35.28 -605.14,244.09 -740.05,287.97l368.15 361.5z"/>
   <polygon class="fil12" points="2295.29,3567.64 2278.79,3552.46 2259.7,3581.76 "/>
   <polygon class="fil13" points="5532.77,4750.51 5553.74,4732.88 5527.21,4722.51 "/>
  </g>
 </g>
</svg>
