<?xml version="1.0" encoding="UTF-8"?>
<!DOCTYPE svg PUBLIC "-//W3C//DTD SVG 1.1//EN" "http://www.w3.org/Graphics/SVG/1.1/DTD/svg11.dtd">
<!-- Creator: CorelDRAW 2020 (64-Bit) -->
<svg xmlns="http://www.w3.org/2000/svg" xml:space="preserve" width="6.20079in" height="6.99311in" version="1.1" style="shape-rendering:geometricPrecision; text-rendering:geometricPrecision; image-rendering:optimizeQuality; fill-rule:evenodd; clip-rule:evenodd"
viewBox="0 0 6200.79 6993.11"
 xmlns:xlink="http://www.w3.org/1999/xlink"
 xmlns:xodm="http://www.corel.com/coreldraw/odm/2003">
 <defs>
  <style type="text/css">
   <![CDATA[
    .fil0 {fill:#8BC34A;fill-rule:nonzero}
   ]]>
  </style>
 </defs>
 <g id="Layer_x0020_1">
  <metadata id="CorelCorpID_0Corel-Layer"/>
  <g id="_2519064688352">
   <g>
    <path class="fil0" d="M3100.39 0c-93.01,0 -189.47,24.11 -268.7,68.9l-2562.99 1481.3c-165.35,96.46 -268.7,275.59 -268.7,468.5l0 2955.71c0,192.91 103.35,372.05 268.7,468.5l671.75 385.83c327.26,158.46 437.5,161.91 589.07,161.91 482.28,0 761.32,-292.81 761.32,-802.66l0 -2917.81c0,-41.34 -34.45,-75.79 -75.79,-75.79l-320.37 0c-44.78,0 -79.23,34.45 -79.23,75.79l0 2917.81c0,227.36 -234.25,451.28 -609.74,261.81l-706.2 -403.05c-24.11,-17.22 -37.89,-44.78 -37.89,-72.34l0 -2955.71c0,-31 13.78,-58.56 37.89,-72.34l2562.99 -1477.85c20.67,-13.78 55.12,-13.78 75.79,0l2562.99 1477.85c24.11,13.78 37.89,41.34 37.89,72.34l0 2955.71c0,27.56 -13.78,55.12 -37.89,72.34l-2562.99 1477.85c-20.67,13.78 -55.12,13.78 -79.23,0l-647.64 -392.72c-27.56,-10.33 -55.12,-13.78 -72.34,-3.44 -182.58,103.35 -217.03,124.02 -385.83,175.69 -41.34,13.78 -106.79,37.89 24.11,110.24l854.33 506.4c82.68,48.23 172.24,72.34 268.7,72.34 96.46,0 186.02,-24.11 268.7,-72.34l2562.99 -1477.85c165.35,-96.46 268.7,-275.59 268.7,-468.5l0 -2955.71c0,-192.91 -103.35,-372.05 -268.7,-468.5l-2562.99 -1481.3c-79.23,-44.78 -172.24,-68.9 -268.7,-68.9l0 0zm688.98 2118.6c-730.31,0 -1167.81,306.59 -1167.81,823.33 0,554.63 434.06,716.54 1136.81,785.43 837.11,82.68 902.56,206.69 902.56,372.05 0,285.93 -230.81,406.5 -768.21,406.5 -682.09,0 -826.77,-168.8 -878.44,-506.4 -6.89,-34.45 -37.89,-62.01 -75.79,-62.01l-330.71 0c-41.34,0 -72.34,31 -72.34,75.79 0,427.17 234.25,943.9 1357.28,943.9 809.55,0 1274.61,-320.37 1274.61,-878.44 0,-554.63 -372.05,-699.31 -1160.93,-806.1 -795.77,-103.35 -875,-158.46 -875,-344.49 0,-155.02 68.9,-361.71 657.97,-361.71 516.73,0 719.98,113.68 799.21,468.5 6.89,34.45 37.89,58.56 72.34,58.56l334.15 0c17.22,0 37.89,-6.89 51.67,-24.11 13.78,-13.78 24.11,-34.45 17.22,-55.12 -48.23,-613.19 -454.72,-895.67 -1274.61,-895.67z"/>
   </g>
   <filter id="saturation">
   </filter>
  </g>
 </g>
</svg>
