<?xml version="1.0" encoding="UTF-8"?>
<!DOCTYPE svg PUBLIC "-//W3C//DTD SVG 1.1//EN" "http://www.w3.org/Graphics/SVG/1.1/DTD/svg11.dtd">
<!-- Creator: CorelDRAW 2020 (64-Bit) -->
<svg xmlns="http://www.w3.org/2000/svg" xml:space="preserve" width="13.1239in" height="5.10372in" version="1.1" style="shape-rendering:geometricPrecision; text-rendering:geometricPrecision; image-rendering:optimizeQuality; fill-rule:evenodd; clip-rule:evenodd"
viewBox="0 0 13123.89 5103.72"
 xmlns:xlink="http://www.w3.org/1999/xlink"
 xmlns:xodm="http://www.corel.com/coreldraw/odm/2003">
 <defs>
  <style type="text/css">
   <![CDATA[
    .fil0 {fill:#CB3837;fill-rule:nonzero}
    .fil1 {fill:white;fill-rule:nonzero}
   ]]>
  </style>
 </defs>
 <g id="Layer_x0020_1">
  <metadata id="CorelCorpID_0Corel-Layer"/>
  <g id="_2147591126000">
   <path class="fil0" d="M-0 0l13123.89 0 0 4374.63 -6561.94 -0.01 0 729.11 -2916.42 0 0 -729.11 -3645.53 0 0 -4374.62zm729.11 3645.52l1458.21 0 0 -2187.31 729.11 0 0 2187.31 729.11 0 0 -2916.42 -2916.42 0 0 2916.42zm3645.52 -2916.42l0 3645.52 1458.21 -0.01 0 -729.09 1458.21 0 0 -2916.42 -2916.42 0zm1458.21 729.1l729.11 0 0 1458.21 -729.11 0 0 -1458.21zm2187.31 -729.1l0 2916.42 1458.21 0 0 -2187.31 729.11 0 0 2187.31 729.11 0 0 -2187.31 729.1 0 0 2187.31 729.11 0 0 -2916.42 -4374.63 0z"/>
   <polygon class="fil1" points="729.11,3645.52 2187.31,3645.52 2187.31,1458.21 2916.42,1458.21 2916.42,3645.52 3645.53,3645.52 3645.53,729.11 729.11,729.11 "/>
   <path class="fil1" d="M4374.63 729.11l0 3645.52 1458.21 -0.01 0 -729.09 1458.21 0 0 -2916.42 -2916.42 0zm2187.31 2187.31l-729.11 0 0 -1458.21 729.11 0 0 1458.21z"/>
   <polygon class="fil1" points="8020.15,729.11 8020.15,3645.52 9478.36,3645.52 9478.36,1458.21 10207.47,1458.21 10207.47,3645.52 10936.57,3645.52 10936.57,1458.21 11665.68,1458.21 11665.68,3645.52 12394.78,3645.52 12394.78,729.11 "/>
  </g>
 </g>
</svg>
