<?xml version="1.0" encoding="UTF-8"?>
<!DOCTYPE svg PUBLIC "-//W3C//DTD SVG 1.1//EN" "http://www.w3.org/Graphics/SVG/1.1/DTD/svg11.dtd">
<!-- Creator: CorelDRAW 2020 (64-Bit) -->
<svg xmlns="http://www.w3.org/2000/svg" xml:space="preserve" width="9.15944in" height="6.74667in" version="1.1" style="shape-rendering:geometricPrecision; text-rendering:geometricPrecision; image-rendering:optimizeQuality; fill-rule:evenodd; clip-rule:evenodd"
viewBox="0 0 9159.44 6746.66"
 xmlns:xlink="http://www.w3.org/1999/xlink"
 xmlns:xodm="http://www.corel.com/coreldraw/odm/2003">
 <defs>
  <style type="text/css">
   <![CDATA[
    .fil1 {fill:#F70000}
    .fil0 {fill:#F70000;fill-rule:nonzero}
   ]]>
  </style>
 </defs>
 <g id="Layer_x0020_1">
  <metadata id="CorelCorpID_0Corel-Layer"/>
  <g id="_2147647882496">
   <path class="fil0" d="M6116.82 0l-3072.82 0c-0.42,0 -1.06,0 -1.39,0 -1459.77,0 -2643.61,1183.83 -2643.61,2643.61 0,1459.44 1182.86,2642.96 2642.31,2643.6l3075.5 0c1459.77,-0 2643.61,-1183.83 2643.61,-2643.6 0,-1459.78 -1183.83,-2643.61 -2643.61,-2643.61zm-85.2 4355.62l-2937.99 0c-931.7,-18.69 -1677.81,-779.85 -1677.81,-1712.01 0,-932.17 746.11,-1693.33 1677.86,-1711.94l2937.94 -0.06c945.35,-0 1712,766.65 1712,1712 0,945.35 -766.65,1712 -1712,1712l0 0.01z"/>
   <path class="fil1" d="M1580.69 6218.12c-15.8,143.76 -117.33,255.45 -226.88,297.33 -84,32.12 -143.22,27.09 -237.85,27.09l-524.21 0c-80.92,-0.54 -150.63,-23.15 -206.9,-58.07 -244.49,-151.74 -222.38,-538.41 62.7,-652.17 79.16,-31.59 147.96,-25.86 237.14,-25.86l524.22 -0.01c146.5,0.46 263.99,72.97 331.6,195.2 32.34,58.46 48.7,138.96 40.17,216.49zm7430.89 -543.28c22.13,0.04 46.56,-1.89 44.88,22.45 -1.44,20.85 -23.65,19.15 -44.88,19.17l0 -41.62zm-28.15 119.12l28.18 -0.27 0.58 -53.69 18.06 0.02c10.89,15.59 21.63,37.13 29.2,54.54l31.74 -0.06 -31.63 -60.2c36.87,-14.16 25.89,-57.98 15,-68.87 -16.62,-16.61 -61.96,-16.05 -91.13,-13.57l0 142.1zm26.32 -164.23c128.26,-30.72 174.59,165.03 43.87,194.95 -62.52,14.31 -107.62,-28.53 -119.02,-74.92 -15.18,-61.8 26.7,-108.43 75.14,-120.03zm-7.66 -26.13c-165.81,41.72 -101.33,287.65 60.34,248.06 59.62,-14.6 112.24,-76.57 92.95,-155.82 -14.19,-58.3 -76.06,-111.67 -153.29,-92.24zm-1619.76 1139.5c14.56,-32.93 118.19,-177.16 124.85,-200.55l-1017.1 0 0.21 -935.68 -217.48 -1.27c-4.48,33.48 -1.26,767.61 -1.26,839.31 0,70.38 -14.33,216.89 25.17,258.51 25.32,26.68 49.85,39.57 98.55,39.71l987.05 -0.04zm-1343.96 0c12.26,-6.48 128.27,-189.85 130.84,-200.55 -241.9,0 -483.8,0 -725.69,0 -137.96,0 -191.91,-10.13 -285.14,-76.45 -153.6,-109.26 -192.58,-344.05 -71.02,-511.22 45.02,-61.91 121.41,-120.34 222.93,-141.18 84.75,-17.4 597.68,-1.59 717.14,-7.8 7.8,-18.3 20.18,-33.28 31.05,-50.98 24.93,-40.57 76.71,-115.6 93.54,-148.63 -75.17,-5.44 -364.96,-0.63 -463.13,-0.63 -112.78,0 -350.87,-7.72 -448.85,14.7 -225.63,51.63 -411.26,244.54 -437.61,496.93 -30.23,289.62 155.4,503.32 346.04,581.75 137.49,56.57 265.1,44.07 421.45,44.07 156.15,0 312.3,0 468.44,0zm-2772.87 -0.7l257.76 0.73c7.81,-18.07 21.81,-36.46 33.06,-55.13 11.45,-19.01 23.64,-38.01 36.06,-56.83 69.52,-105.35 144.22,-235.44 212.78,-337.52 45.85,-68.27 269.59,-434.06 284.38,-446.68 35.74,61.25 296.05,472.86 305.15,494.29l-579.59 0.53c8.19,25.55 114.91,175.41 124.92,200.76l592.29 0.03 92.64 152.07c7.81,13 21.49,42.13 34.13,48.45l251.3 -0.13c-12,-23.39 -31.87,-53.85 -46.5,-75.35 -16.73,-24.59 -31.55,-48.12 -47.96,-74.66 -76.26,-123.31 -164.35,-252.03 -239.5,-373.94 -105.2,-170.67 -227.84,-350.98 -335.17,-523.68 -34.7,-55.83 -70.82,-99.3 -151,-100.42 -83.78,-1.17 -122.78,44.8 -153.32,94.36 -31.93,51.8 -64.43,99.67 -95.47,150 -62.76,101.75 -129.37,198.57 -192.86,301.55 -91.63,148.63 -195.21,300.61 -286.86,449.3 -15.78,25.59 -30.81,47.79 -48.02,74.58 -14.88,23.17 -37.02,54.45 -48.2,77.69zm-1350.63 0.7l218.67 -0.13 0.03 -936.53c173.46,0 345.66,0 517.85,0 59.15,0 205.6,-6.72 253.04,6.4 191.58,53.01 172.25,324.96 -13.27,358.74 -38.64,7.04 -336.58,2.85 -388.48,2.65 -84.36,-0.33 -176.2,-3.38 -259.72,0.17l160.94 142.44c7.1,7.17 12.81,10.07 20.64,16.71l182.32 159.59c8.36,8.5 11.36,9.78 20.31,16.99l123.03 107.43c9.67,9.68 10.24,9.87 19.91,17.31 15.72,12.09 115.78,105.48 126.67,108.22l311.3 -0.07c-28.08,-28.79 -63.33,-54.86 -93.99,-80.57l-40.06 -34.21c-39.22,-30.09 -99.01,-86.27 -137.4,-115.39 -8.79,-6.67 -18.06,-15.04 -26.47,-21.94 -5.66,-4.65 -7.56,-7.83 -13.38,-12.41l-122.6 -103.57c119.06,-4.48 178.79,8.17 278.33,-45.59 255.47,-137.95 259.93,-476.8 67.52,-632.02 -66.79,-53.88 -138.56,-87.31 -231.35,-91.15 -104.6,-4.33 -217.3,-0.52 -322.78,-0.52 -216.64,0 -433.29,0 -649.93,0l-1.12 1137.44zm6789.82 -0.24c15.02,-33.19 117.16,-178.67 125.15,-200.28 -233.97,-0.72 -468.06,-0.03 -702.04,-0.03 -180.22,0 -271.38,-14.7 -380.16,-148.72 -18.61,-22.93 -51.22,-83.03 -57.35,-118.74l928.26 -0.44c11.22,-2.41 8.64,-6.15 19.62,-22.06l112.98 -178.16 -1061.07 -0.35c17.21,-78.89 81.15,-156.23 126.81,-189.24 74.93,-54.16 136.44,-78.38 236.55,-78.41 210.87,-0.05 422.46,1.79 633.23,-0.09 8.47,-22.21 120.54,-182.08 125.64,-200.69l-699.39 0c-79,0 -141.76,-1.81 -217.41,16 -451.28,106.23 -590.59,690.06 -231.17,989.35 178.61,148.73 339.18,132.1 571.27,132.1 155.43,0 314.04,3.1 469.07,-0.24zm-8168.3 -1135.97c-137.35,9.32 -259.31,63.95 -352.44,147.77l-66.69 74.51c-13.6,17.12 -25.51,35.31 -37.47,55.45 -130.28,219.44 -98.19,489.58 75.69,680.57 87.66,96.28 227.41,166.12 372.91,176.34 114.53,8.05 251.33,1.57 368.22,1.57 275.39,0 540.48,43.57 741.49,-173.91 42.26,-45.72 43.79,-45.18 80.89,-105.02 208.11,-335.74 -7.7,-827.79 -453.59,-857.23 -113.57,-7.5 -248.87,-1.28 -365.07,-1.28 -115.41,0 -251.39,-6.41 -363.94,1.23z"/>
  </g>
 </g>
</svg>
