<?xml version="1.0" encoding="UTF-8"?>
<!DOCTYPE svg PUBLIC "-//W3C//DTD SVG 1.1//EN" "http://www.w3.org/Graphics/SVG/1.1/DTD/svg11.dtd">
<!-- Creator: CorelDRAW 2020 (64-Bit) -->
<svg xmlns="http://www.w3.org/2000/svg" xml:space="preserve" width="8.88009in" height="6.74667in" version="1.1" style="shape-rendering:geometricPrecision; text-rendering:geometricPrecision; image-rendering:optimizeQuality; fill-rule:evenodd; clip-rule:evenodd"
viewBox="0 0 8880.09 6746.67"
 xmlns:xlink="http://www.w3.org/1999/xlink"
 xmlns:xodm="http://www.corel.com/coreldraw/odm/2003">
 <defs>
  <style type="text/css">
   <![CDATA[
    .fil0 {fill:#03A9F4;fill-rule:nonzero}
   ]]>
  </style>
 </defs>
 <g id="Layer_x0020_1">
  <metadata id="CorelCorpID_0Corel-Layer"/>
  <g id="_2520808424752">
   <g>
    <path class="fil0" d="M8585.04 0c206.62,0 337.34,168.67 282.52,375.29l-1332.47 5996.08c-46.39,206.62 -248.79,375.29 -455.42,375.29l-6784.63 -0c-206.62,0 -337.34,-168.67 -282.52,-375.29l1332.48 -5996.08c46.39,-206.62 248.79,-375.29 455.42,-375.29l6784.63 0 0 0zm-2530.04 5060.08l-1686.71 0c-193.97,0 -349.99,160.24 -349.99,354.21 0,198.19 156.02,358.42 349.99,358.42l1686.71 0c198.19,0 358.43,-160.23 358.43,-358.42 0,-193.97 -160.24,-354.21 -358.43,-354.21l0 0zm-4237.63 118.07c-168.67,118.07 -206.62,349.99 -88.56,514.44 118.07,177.1 354.2,210.84 522.87,96.98 3099.31,-2180.05 3120.41,-2205.34 3141.47,-2218.01 75.9,-67.47 113.85,-160.24 118.07,-253 4.24,-84.34 -16.87,-156.02 -67.47,-236.14l-2074.63 -2226.44c-139.16,-151.8 -375.29,-160.23 -527.11,-12.65 -151.8,134.93 -160.24,371.07 -21.09,522.87l1749.97 1872.26 -2753.53 1939.7z"/>
   </g>
   <filter id="saturation">
   </filter>
  </g>
 </g>
</svg>
