<?xml version="1.0" encoding="UTF-8"?>
<!DOCTYPE svg PUBLIC "-//W3C//DTD SVG 1.1//EN" "http://www.w3.org/Graphics/SVG/1.1/DTD/svg11.dtd">
<!-- Creator: CorelDRAW 2020 (64-Bit) -->
<svg xmlns="http://www.w3.org/2000/svg" xml:space="preserve" width="6.35061in" height="6.74667in" version="1.1" style="shape-rendering:geometricPrecision; text-rendering:geometricPrecision; image-rendering:optimizeQuality; fill-rule:evenodd; clip-rule:evenodd"
viewBox="0 0 6350.61 6746.66"
 xmlns:xlink="http://www.w3.org/1999/xlink"
 xmlns:xodm="http://www.corel.com/coreldraw/odm/2003">
 <defs>
  <style type="text/css">
   <![CDATA[
    .fil0 {fill:#3C78AA;fill-rule:nonzero}
    .fil1 {fill:#FDD835;fill-rule:nonzero}
   ]]>
  </style>
 </defs>
 <g id="Layer_x0020_1">
  <metadata id="CorelCorpID_0Corel-Layer"/>
  <g id="_2520803856016">
   <g>
    <g>
     <path class="fil0" d="M2495.59 0.02c-501.7,0 -907.95,406.25 -907.95,907.95l0 533.36 1361.92 -0c123.84,0 225.74,181.29 225.74,305.13l-2267.36 0c-501.7,0 -907.95,406.25 -907.95,907.95l0 1200.65c0,501.7 406.25,907.95 907.95,907.95l374.59 -0 0 -850.89c0,-501.7 403.78,-907.95 905.47,-907.95l1667.04 0c501.7,0 907.95,-403.77 907.95,-905.47l0 -1190.74c0,-501.7 -406.25,-907.95 -907.95,-907.95l-1359.46 0.02zm-228.22 511.04c127.01,0 228.23,38.4 228.23,225.74 0,187.34 -101.22,282.8 -228.23,282.8 -123.84,0 -225.74,-95.46 -225.74,-282.8 0,-187.34 101.91,-225.74 225.74,-225.74z"/>
     <path class="fil1" d="M5067.46 1587.39l0 850.89c0,501.7 -403.14,907.95 -904.84,907.95l-1667.03 -0c-501.7,0 -907.95,403.14 -907.95,904.83l0 1190.74c0.01,0.07 0.01,0.29 0.01,0.41 0,501.46 406.45,908.03 907.92,908.14l1359.44 0.01c501.5,-0.12 907.94,-406.68 907.94,-908.15 0,-0.11 0,-0.33 0,-0.44l0 -533.35 -1362.52 0.04c-123.84,0 -225.12,-180.67 -225.12,-304.51l2267.36 0c501.5,-0.12 907.94,-406.68 907.94,-908.15 0,-0.11 0,-0.33 0,-0.44l0 -1200.05c-0.11,-501.35 -406.56,-907.8 -907.92,-907.91l-375.23 -0.01zm-1777.44 2341.19l-1.24 1.24c3.8,-0.76 7.96,-0.51 11.78,-1.24l-10.54 0zm2076.37 2310.16c123.83,0 225.74,95.45 225.74,282.8 -0.17,124.39 -101.07,225.12 -225.45,225.12 -0.08,0 -0.22,0 -0.3,0 -127.01,0 -228.23,-37.78 -228.23,-225.12 0,-187.35 101.22,-282.8 228.23,-282.8l0.01 0z"/>
    </g>
   </g>
   <filter id="saturation">
   </filter>
  </g>
 </g>
</svg>
