<?xml version="1.0" encoding="UTF-8"?>
<!DOCTYPE svg PUBLIC "-//W3C//DTD SVG 1.1//EN" "http://www.w3.org/Graphics/SVG/1.1/DTD/svg11.dtd">
<!-- Creator: CorelDRAW 2020 (64-Bit) -->
<svg xmlns="http://www.w3.org/2000/svg" xml:space="preserve" width="13.6428in" height="6.62056in" version="1.1" style="shape-rendering:geometricPrecision; text-rendering:geometricPrecision; image-rendering:optimizeQuality; fill-rule:evenodd; clip-rule:evenodd"
viewBox="0 0 13642.76 6620.56"
 xmlns:xlink="http://www.w3.org/1999/xlink"
 xmlns:xodm="http://www.corel.com/coreldraw/odm/2003">
 <defs>
  <style type="text/css">
   <![CDATA[
    .fil0 {fill:#F84949}
    .fil1 {fill:#FEFEFE}
   ]]>
  </style>
 </defs>
 <g id="Layer_x0020_1">
  <metadata id="CorelCorpID_0Corel-Layer"/>
  <g id="_2147646973456">
   <path class="fil0" d="M6675.59 6.24c-633.89,77.04 -917.94,894.7 -334.91,1316.69 252.75,182.94 715.63,151.87 922.11,216.28 498.5,155.51 437.7,967.54 206.72,1183 -288.97,269.56 -723.03,93.41 -1104.31,326.03 -660.2,402.79 -285.31,1482.64 549.43,1327.02 823.59,-153.53 469.38,-1162 941.75,-1335.7 275.63,-101.35 657.55,-61.65 939.95,-199.72 517.54,-253.04 555.94,-1163.98 -175.8,-1352.53 -280.96,-72.4 -754.05,-57.81 -912.47,-240.3 -156.34,-180.09 -124.75,-513.7 -284.37,-854.34 -110.29,-235.37 -386.09,-430.44 -748.09,-386.44z"/>
   <path class="fil1" d="M9977.96 2935.02c-375.61,44.74 -691.53,378.92 -642.35,808.53 42.62,372.38 383.52,688.54 808.36,639.94 373.76,-42.75 688.55,-384.26 639.25,-810.87 -42.5,-367.74 -381.44,-688.08 -805.26,-637.6z"/>
   <path class="fil1" d="M5106.91 1479.11c-137.31,19.08 -287.38,82.96 -382.23,165.11 -166.39,144.11 -283.52,393.06 -248.59,652.18 49.76,369.04 389.28,684.96 817.92,627.16 368.59,-49.7 684.87,-390.27 627.2,-817.92 -49.46,-366.79 -388.72,-685.66 -814.31,-626.52z"/>
   <path class="fil1" d="M3381 2935.4c-373.69,45.75 -692.62,379.81 -642.41,808.03 43.83,373.75 382.63,689.23 809.34,639.5 372.86,-43.45 687.63,-382.95 638.27,-809.02 -42.67,-368.24 -385.64,-689.88 -805.2,-638.51z"/>
   <path class="fil1" d="M657.6 5774.55c-33.84,26.89 -209.63,17.11 -263.96,9.25 -22.41,-56.48 -21.62,-288.54 -1.01,-347.15 45.8,-7.23 245.61,-17.35 266.84,9.61 91.65,8.74 144.65,61.69 145.88,164.38 1.31,109.57 -50.42,156.88 -147.75,163.91zm-657.59 -538.82l0 1263.89c0,64.73 -0.4,56.19 28.92,92.26 542.55,50.4 316.14,-57.98 366.14,-500l193.43 -3.57c47.63,70.18 112.22,205.69 148.02,282.65 116.83,251.19 69.41,225.96 427.42,225.96 139.55,0 64.23,-93.24 -38.07,-267.33 -55.57,-94.56 -118.93,-209.02 -163.54,-302.18 23.78,-27.06 81.88,-58.85 113.56,-87.85 207.62,-190.12 178.74,-588.56 -108.65,-729.85 -208.46,-102.48 -607.94,-71.26 -872.73,-71.26 -85.28,0 -94.48,13.39 -94.48,97.28z"/>
   <path class="fil0" d="M7226.79 5774.44c-33.17,26.81 -209.77,16.97 -263.59,9.25 -22.31,-56.38 -21.5,-288.37 -1.02,-346.92 45.35,-7.14 245.82,-17.23 266.51,9.61 91.74,8.56 144.83,61.53 146.06,164.28 1.31,109.56 -50.56,157.03 -147.96,163.79zm-657.4 -538.7l0 1263.89c0,64.67 -0.31,56.24 28.89,92.31 542.38,49.8 315.96,-57.92 366.28,-500.01l193.27 -3.58c318.67,469.09 46.46,508.57 575.11,508.57 106.98,0 86.95,-46.63 47.11,-116.06l-248.26 -453.44c46.54,-52.75 146.72,-76.13 207.76,-216.05 50.24,-115.19 49.26,-263.34 6.47,-379.7 -35.79,-97.3 -125.09,-180.63 -209.29,-222.01 -208.44,-102.44 -607.97,-71.2 -872.79,-71.2 -85.33,0 -94.54,13.29 -94.54,97.28z"/>
   <path class="fil0" d="M9255.55 5521.56c-25.37,181.34 -11.55,403.09 -11.1,589.18 0,231.09 68.39,393.83 229.38,468.02 185.46,85.47 378.32,34.57 521.34,-104.16l11.89 110.17c131.75,22.48 207.67,16.73 341.1,3.59 25.13,-166.08 20.13,-880.78 2.63,-1065.13 -136.33,-18.24 -143.8,-10.56 -284.08,-9.77 -120.49,0 -89.17,73.46 -88.98,180.62 0.54,298.29 56.25,630.98 -175.53,633.12 -232.68,2.15 -174.56,-303.83 -174.3,-619.23 0.12,-151.21 82.9,-235.59 -372.35,-186.4z"/>
   <path class="fil1" d="M2943.05 6219.42c75.74,-71.91 195.69,-89.3 338.24,-105.69 -4.7,129.03 -34.5,213.81 -133.72,245.91 -122.24,39.54 -224.88,-9.83 -204.52,-140.22zm333.65 -316.96c-295.09,30.65 -722.28,92.54 -697.42,417 18.97,247.55 324.05,342.65 529.57,277.85l132.95 -74.89c31.77,-29.41 10.79,-17.41 49.43,-40.2 1.14,75.43 -6.17,65.93 29.37,109.65 83.06,11.17 249.34,11.92 320.27,-4.78 22.76,-81 19.28,-703.06 -4.89,-795.61 -104.52,-400.34 -805.57,-373.41 -959.95,-85.59 -27,50.35 -48.51,116.91 28.88,128.04 24.18,3.48 183.64,3.28 209.44,0.34 54.93,-6.27 86.48,-50.04 131.4,-77.62 73.37,-45.04 224.22,-74.46 230.94,145.8z"/>
   <path class="fil0" d="M8671.46 6152.4c-24.56,224.92 -172.22,233.34 -269.37,178.21 -115.66,-65.63 -109.54,-473.7 -7.87,-545.11 49.34,-34.66 142.86,-37.76 198.78,-6.24 85.67,48.3 91.88,250.28 78.46,373.14zm-332.66 -640.25c-367.81,80.06 -444.28,372.8 -387.23,711.62 52.78,313.45 352.52,450.31 716.43,376.51 322.64,-65.44 442.68,-336.88 375.73,-715.38 -53.59,-302.98 -355.7,-448.76 -704.93,-372.75z"/>
   <path class="fil0" d="M11931.29 5940.6c1.75,-115.7 39.56,-211.39 163.19,-211.41 120.63,-0.02 163.94,96.29 165.1,213.61l-328.29 -2.2zm667.59 345.57c-65.57,-27.54 -255.16,-19.17 -337.73,-6.11 -46.6,42.71 -104.84,118.76 -216.38,88.39 -82.15,-22.37 -113.06,-111.71 -112.43,-211.52l687.64 -2.71c61.48,-104.42 6.44,-325.52 -52.24,-419.65 -230.48,-369.74 -875.81,-330.7 -1000.57,140.58 -69.28,261.73 5.55,628.82 326.12,714.05 149.71,39.81 332.14,37.04 466.65,-18.26 98.25,-40.38 301.6,-166.23 238.93,-284.78z"/>
   <path class="fil1" d="M1750.7 5940.63c1.73,-115.76 39.54,-211.45 163.22,-211.48 121.22,-0.03 163.13,96.88 165.15,213.69l-328.36 -2.21zm667.55 345.63c-65.24,-27.63 -255.31,-19.23 -337.66,-6.15 -46.59,42.75 -104.81,118.75 -216.41,88.37 -82.31,-22.4 -112.96,-111.68 -112.47,-211.62 692.07,-33.57 748.05,102.13 704.28,-213.17 -12.5,-90.03 -40.1,-168.78 -85.77,-233.43 -260.16,-368.28 -1063.23,-311.28 -999.66,428.68 64.09,745.99 1083.01,465.55 1060.28,180.67 -4.46,-55.89 -2.88,-15.07 -12.6,-33.35z"/>
   <path class="fil1" d="M4920.42 6201.4c-71.03,-40.21 -266.17,-24.33 -358.49,-8.41 -37.64,80.96 -78.89,186.02 -228.65,138.3 -101.23,-32.26 -109.51,-156.7 -109.22,-276.13 0.87,-364.27 231.33,-366.72 337.87,-137.78 79.31,13.68 302.33,30.89 364.45,-14.97 48.12,-74.78 -115.28,-446.73 -610.17,-405.31 -180.98,15.15 -259.29,72.33 -351.96,164.26 -185.73,184.25 -246.54,902.13 351.97,951.95 171.39,14.26 301.71,-13.64 424.85,-91.89 67.7,-43.02 242.45,-187.71 179.35,-320.02z"/>
   <path class="fil0" d="M10729.2 5509.34l-205.75 10.41c-54.04,364.55 49.48,267.14 201.81,279.67 24.32,185.83 -31.49,426.33 45.4,593.1 122.85,266.45 587.55,211.7 638.96,186.46 100.18,-576.38 -319.92,-25.46 -319.92,-468.23l0 -313.8c91.77,0 228.39,17.59 307.07,-21.25l7.46 -164.95c-0.98,-124.36 -3.12,-97.29 -314.5,-97.29 -0,-80.15 17.17,-321.59 -16.79,-381.3 -121.15,-27.16 -119.98,-15.42 -256.22,-14.53 -128.51,0.83 -87.5,105.52 -87.5,391.72z"/>
   <path class="fil1" d="M5611.12 6174.27l-14.04 -35.76 4.89 -339.74c78.13,-31 189.93,-9.79 275.5,-14.48 23.53,-7.45 17.02,5.07 33.15,-8.68 1.05,-1.81 56.76,-248.17 -51.62,-261.88 -20.34,-2.57 -61.58,-0.48 -83.93,-0.37 -57.16,0.28 -114.37,0.08 -171.53,0.08 0,-424.69 76.95,-401.67 -259.52,-396.56 -7.97,0.12 -35.47,0.32 -41.86,1.57 -101.49,19.87 -59.04,199.32 -59.04,390.92l-205.7 10.41c-9.5,41.33 -31.32,232.37 9.53,263.85 53.87,22.92 123.63,10.09 192.22,15.74 30.57,233.65 -43.59,484.05 87.52,662.45 46.8,63.68 135.32,109.44 247.92,126.63 82.63,12.61 289.36,19.72 348.87,-9.52 20.5,-70.56 26.98,-208.94 -7.33,-262.04 -104.93,-66.83 -310.43,50.24 -305.04,-142.63z"/>
   <path class="fil0" d="M12824.25 5610.73l0 888.89c0,102.71 13.55,111.84 284.12,97.28l86.37 -9.32c87.48,-321.69 -158.56,-739.2 219.07,-742.99 263.59,-2.64 227.26,45.75 227.26,-233.86 0,-99.13 -9.01,-97.29 -116.03,-97.29 -234.27,0 -274.87,96.46 -340.22,120.69 -0.13,-141.35 9.61,-120.69 -270.89,-120.69 -73.62,0 -89.68,23.29 -89.68,97.29z"/>
  </g>
 </g>
</svg>
