<?xml version="1.0" encoding="UTF-8"?>
<!DOCTYPE svg PUBLIC "-//W3C//DTD SVG 1.1//EN" "http://www.w3.org/Graphics/SVG/1.1/DTD/svg11.dtd">
<!-- Creator: CorelDRAW 2020 (64-Bit) -->
<svg xmlns="http://www.w3.org/2000/svg" xml:space="preserve" width="7.48522in" height="6.67498in" version="1.1" style="shape-rendering:geometricPrecision; text-rendering:geometricPrecision; image-rendering:optimizeQuality; fill-rule:evenodd; clip-rule:evenodd"
viewBox="0 0 7485.22 6674.98"
 xmlns:xlink="http://www.w3.org/1999/xlink"
 xmlns:xodm="http://www.corel.com/coreldraw/odm/2003">
 <defs>
  <style type="text/css">
   <![CDATA[
    .fil0 {fill:#61D9FA}
   ]]>
  </style>
 </defs>
 <g id="Layer_x0020_1">
  <metadata id="CorelCorpID_0Corel-Layer"/>
  <path class="fil0" d="M3674.16 2643.48c-365.01,39.33 -667.63,352.15 -626.41,766.8 36.04,362.54 363.17,665.08 772.6,620.13 354.33,-38.91 659.82,-361.33 613.61,-771.23 -39.84,-353.33 -357.39,-659.07 -759.8,-615.71zm316.96 2978.69c18.42,-35.09 242.15,-278.24 294.64,-342.85 95.72,-117.82 186.32,-223.36 279.18,-353.26 23.86,-33.37 34.74,-69.23 81.46,-78.06l416.43 -55.94c172.03,-28.13 412.52,-89.94 527.51,-107.07 55.63,326.65 115.35,579.83 99.74,934.85 -12.48,283.82 -80.61,650.29 -335.03,697.28 -337.85,62.39 -845.32,-268.06 -1084.29,-463.3l-212.32 -179.15c-21.93,-21.17 -42.4,-37.39 -67.32,-52.5zm-490.92 -0.04c-190.98,168.17 -894.69,796.35 -1356.03,702.12 -538.58,-110.01 -301.98,-1510.89 -240.01,-1632.97 81.15,8.19 184.75,39.9 268.9,56.05l544.76 88.15c162.29,21.72 129.07,-11.06 211.18,100.61l571.2 686.04zm-174.42 -730.24c74.57,-13.76 320.18,5.74 416.16,5.57 134.63,-0.24 289.6,-13.56 418.95,-8.2l-198.37 247.93c-42.93,47.9 -178.17,211.3 -220.58,232.03l-416.16 -477.33zm1553.32 -419.2c65.59,-117.37 143.02,-229.14 213.78,-354.33 59.89,-105.95 147.19,-252.83 196.5,-366.04 44.49,56.87 188.94,501.13 212.64,603.82 -189.63,26.77 -425.85,109.7 -622.92,116.55zm-2892.2 -118.58c29.05,-135.35 122.25,-378.78 174.85,-525.85 9.61,-26.85 16.09,-49.28 35.85,-69.74 19.29,52.09 65.04,133.33 95.38,186.48l313.32 528.56c-168.3,-16.29 -467.48,-72.09 -619.39,-119.46zm-330.31 -91.02c-337.9,-71.8 -1314.64,-508.72 -1317.53,-923.5 -2.92,-418 983.26,-860.04 1314.79,-927.15 35.28,211.93 335.59,915.55 335.71,927.62 0.11,11.52 -156.55,391.46 -178.01,449.34 -56.49,152.36 -110.32,314.26 -154.96,473.69zm4175.75 -1.09c-39.9,-155.32 -103.01,-328.78 -157.49,-475.1 -21.34,-57.31 -179.39,-435.58 -180.18,-448.46l259.23 -688.17c20.06,-60.59 51.56,-187.61 76.88,-235.56 83.26,7.72 331.8,111.32 417.01,146.4 132.6,54.57 258.6,117.87 374.43,187.82 696.89,420.86 694.37,766.3 -9.3,1182.24 -182.06,107.62 -549.28,279.3 -780.58,330.84zm-2509.47 -2130.67c314.57,-17.83 633.94,-15.35 948.8,5.14 196.62,12.8 146.06,-3.87 219.74,102.24 222.01,319.72 417.03,666.55 594.33,1032.38 24.38,50.3 38.06,55.3 10.98,107.36 -21.18,40.73 -34.98,68.6 -53.77,107.14 -156.46,321.04 -280.22,527.78 -464,821.61 -41.74,66.73 -81.53,131.48 -127.33,194.38 -39.31,53.97 -201.87,40.25 -278.08,44.47 -324.5,17.98 -628.92,15.8 -952.39,-4.69 -188.42,-11.93 -151.16,7.58 -223.05,-96.12 -171.02,-246.7 -332.77,-523.88 -483.99,-811.81 -39.84,-75.85 -72.62,-144.48 -110.2,-221.29 -24.75,-50.57 -40.92,-61.95 -13.44,-118.36 132.44,-271.87 474.51,-902.62 645.98,-1121.45 34.95,-44.61 219.95,-37.24 286.41,-41zm1967.53 784.66c-55.24,-115.41 -133.41,-255.3 -198.79,-363.61 -37.26,-61.72 -68.46,-116.15 -105.8,-175.17 -26.75,-42.27 -87.07,-127.93 -105.06,-175.94 201.32,20 422.67,72.33 615.23,117.53 -11.17,78.97 -170.21,545.6 -205.58,597.19zm-3306.69 -599.09c203.37,-33.18 403.47,-92.96 617.95,-115.87 -28.73,74.26 -330,520.22 -404.31,719.61l-24.83 -40.43c-49.83,-115 -178.71,-481.18 -188.8,-563.3zm1342.36 -530.08c41.22,-77.17 368.54,-456.56 417.6,-484.85 49.27,57.35 384.36,415.94 410.93,484.43l-828.54 0.42zm-1431.74 200.38c-18.98,-144.32 -58.75,-292.61 -77.63,-446.28 -40.55,-329.95 -73.72,-1127.81 325.54,-1185.75 280.46,-40.7 587.48,140 769.3,249.71 134.61,81.23 333.3,229.38 448.9,334.42 37.16,33.76 104.35,82.93 131.49,120.79l-151.28 171.28c-36.75,37.16 -46.47,54.81 -75.42,85.18 -27.58,28.94 -43.83,48.88 -70.3,80.03 -398.52,469.17 -218.09,408.94 -508.45,446.02 -91.33,11.67 -181.78,25.23 -271.91,40.14 -89.87,14.87 -174.26,31.26 -261.49,48.26 -86.44,16.84 -174.16,44.22 -258.76,56.19zm2091.59 -926.33c41.72,-49.35 81.47,-81.73 132.39,-126.25 276.66,-241.89 849.53,-655.79 1227.11,-583.06 257.6,49.62 325.63,409.58 338.9,700.75 15.88,348.44 -42.29,607.99 -96.63,931.55l-527.43 -102.65c-93.54,-15.44 -185.07,-28.44 -280.31,-40.74 -188.5,-24.32 -140.94,3.99 -217.85,-94.23 -66.91,-85.43 -344.82,-443.88 -427.85,-526.31 -37.56,-37.29 -46.86,-49.23 -76.66,-83.98 -20.12,-23.46 -56.4,-53.89 -71.67,-75.09zm-242.37 -244.15c-43.85,-25.2 -398.56,-369.27 -759.63,-565.09 -262.37,-142.29 -674.1,-335.17 -1029.81,-196.29 -512.01,199.91 -534.28,962.51 -482.32,1466.45 22.17,214.97 80.96,444.19 92.42,561.87 -311.06,71.93 -749.69,288.05 -980.15,437.96 -216.77,141 -592.22,437.27 -583.92,828.2 14.04,660.95 1045.61,1081.02 1571.72,1244.72 -71.33,412.08 -147.24,758.02 -97.13,1202.32 44.76,396.98 196.54,714.94 495.28,831.29 474.24,184.71 1078.49,-219.53 1424.27,-472.79l182.35 -148.87c26.71,-25.1 51.93,-45.7 84.57,-75.96 22.14,-20.52 63.11,-56.37 90.79,-72.23l362.66 302.37c348.96,262.82 948.63,638.39 1420.32,458.45 295.5,-112.72 443.63,-440.3 486.82,-828.53 55.83,-501.84 -34.74,-759.63 -98.7,-1196.31 377.06,-136.22 636.72,-214.18 974.44,-438.59 1129.4,-750.48 439.99,-1500.93 -468.28,-1886.56 -85.37,-36.25 -161.99,-67.57 -250.65,-100.76 -83.67,-31.32 -192.2,-49 -262.72,-93.99 23.67,-189.67 72.56,-371.29 92.67,-575.77 49.22,-500.3 17.76,-1255.19 -490.83,-1451.18 -361.93,-139.47 -764.54,59.01 -1027.39,204.27 -163.44,90.33 -609.61,412.64 -746.77,565.01z"/>
 </g>
</svg>
