<?xml version="1.0" encoding="UTF-8"?>
<!DOCTYPE svg PUBLIC "-//W3C//DTD SVG 1.1//EN" "http://www.w3.org/Graphics/SVG/1.1/DTD/svg11.dtd">
<!-- Creator: CorelDRAW 2020 (64-Bit) -->
<svg xmlns="http://www.w3.org/2000/svg" xml:space="preserve" width="6.98653in" height="6.64015in" version="1.1" style="shape-rendering:geometricPrecision; text-rendering:geometricPrecision; image-rendering:optimizeQuality; fill-rule:evenodd; clip-rule:evenodd"
viewBox="0 0 6986.63 6640.25"
 xmlns:xlink="http://www.w3.org/1999/xlink"
 xmlns:xodm="http://www.corel.com/coreldraw/odm/2003">
 <defs>
  <style type="text/css">
   <![CDATA[
    .str0 {stroke:#AB47BC;stroke-width:150.01;stroke-linejoin:round;stroke-miterlimit:2.61313}
    .fil0 {fill:#AB47BC}
   ]]>
  </style>
 </defs>
 <g id="Layer_x0020_1">
  <metadata id="CorelCorpID_0Corel-Layer"/>
  <g id="_2520816143856">
   <g>
    <path class="fil0 str0" d="M4812.04 4607.73c252.3,-26.1 443.7,-243.6 435,-504.61 -8.7,-261 -226.2,-469.8 -487.2,-469.8l-17.4 0c-269.7,8.7 -478.5,234.9 -469.8,504.6 8.7,130.5 60.9,243.6 139.2,321.9 -295.8,582.9 -748.2,1009.2 -1426.8,1365.91 -461.11,243.6 -939.6,330.6 -1418.11,269.7 -391.5,-52.2 -696,-226.2 -887.4,-513.3 -278.4,-426.3 -304.5,-887.4 -69.6,-1348.51 165.3,-330.6 426.3,-574.2 591.6,-696 -34.8,-113.1 -87,-304.5 -113.1,-443.7 -1261.51,913.51 -1131,2148.91 -748.2,2731.82 287.1,435 870,704.7 1513.81,704.7 174,0 348,-17.4 522,-60.9 1113.6,-217.5 1957.51,-878.71 2436.02,-1861.81l-0 0z"/>
    <path class="fil0 str0" d="M6343.24 3528.93c-661.21,-774.31 -1635.61,-1200.61 -2749.22,-1200.61l-139.2 -0c-78.3,-156.6 -243.6,-261 -426.3,-261l-17.4 0c-269.7,8.7 -478.5,234.9 -469.81,504.6 8.7,261 226.2,469.81 487.2,469.81l17.4 -0c191.4,-8.7 356.7,-130.5 426.3,-295.8l156.6 0c661.2,0 1287.61,191.4 1853.11,565.5 435,287.1 748.2,661.21 922.2,1113.6 147.9,365.4 139.2,722.11 -17.4,1026.61 -243.6,461.1 -652.51,713.4 -1191.91,713.4 -348.01,0 -678.6,-104.4 -852.61,-182.7 -95.7,87 -269.7,226.2 -391.5,313.2 374.1,174 756.9,269.7 1122.3,269.7 835.21,0 1452.91,-461.11 1687.81,-922.2 252.3,-504.6 234.9,-1374.61 -417.6,-2114.11l0 0z"/>
    <path class="fil0 str0" d="M1923.61 4755.63c8.7,261 226.2,469.81 487.2,469.81l17.4 0c269.7,-8.7 478.5,-234.9 469.81,-504.6 -8.7,-261 -226.2,-469.81 -487.2,-469.81l-17.4 0c-17.4,0 -43.5,0 -60.9,8.7 -356.7,-591.6 -504.6,-1235.4 -452.4,-1931.41 34.8,-522 208.8,-974.4 513.31,-1348.51 252.3,-321.9 739.5,-478.5 1070.1,-487.2 922.21,-17.4 1313.71,1131 1339.81,1592.11 113.1,26.1 304.5,87 435,130.5 -104.4,-1409.41 -974.4,-2140.21 -1809.61,-2140.21 -783.01,0 -1505.11,565.5 -1792.21,1400.71 -400.2,1113.61 -139.2,2183.71 348,3027.62 -43.5,60.9 -69.6,156.6 -60.9,252.3l-0 -0z"/>
   </g>
   <filter id="saturation">
   </filter>
  </g>
 </g>
</svg>
