<?xml version="1.0" encoding="UTF-8"?>
<!DOCTYPE svg PUBLIC "-//W3C//DTD SVG 1.1//EN" "http://www.w3.org/Graphics/SVG/1.1/DTD/svg11.dtd">
<!-- Creator: CorelDRAW 2020 (64-Bit) -->
<svg xmlns="http://www.w3.org/2000/svg" xml:space="preserve" width="13.6077in" height="5.63967in" version="1.1" style="shape-rendering:geometricPrecision; text-rendering:geometricPrecision; image-rendering:optimizeQuality; fill-rule:evenodd; clip-rule:evenodd"
viewBox="0 0 13607.66 5639.67"
 xmlns:xlink="http://www.w3.org/1999/xlink"
 xmlns:xodm="http://www.corel.com/coreldraw/odm/2003">
 <defs>
  <style type="text/css">
   <![CDATA[
    .fil1 {fill:black}
    .fil2 {fill:#1860A8}
    .fil0 {fill:#1DC225}
    .fil3 {fill:#789030}
    .fil7 {fill:#90B122}
    .fil6 {fill:#C3D72D}
    .fil4 {fill:url(#id0)}
    .fil8 {fill:url(#id1)}
    .fil5 {fill:url(#id2)}
   ]]>
  </style>
  <linearGradient id="id0" gradientUnits="userSpaceOnUse" x1="342.33" y1="2204.11" x2="840.85" y2="3575.44">
   <stop offset="0" style="stop-opacity:1; stop-color:#8DC810"/>
   <stop offset="0.458824" style="stop-opacity:1; stop-color:#76C00B"/>
   <stop offset="0.811765" style="stop-opacity:1; stop-color:#58A90E"/>
   <stop offset="1" style="stop-opacity:1; stop-color:#51A30F"/>
  </linearGradient>
  <linearGradient id="id1" gradientUnits="userSpaceOnUse" x1="2168.21" y1="3834.58" x2="2431.81" y2="1473.7">
   <stop offset="0" style="stop-opacity:1; stop-color:#4BA50A"/>
   <stop offset="0.211765" style="stop-opacity:1; stop-color:#4BA50A"/>
   <stop offset="0.458824" style="stop-opacity:1; stop-color:#76C00B"/>
   <stop offset="0.639216" style="stop-opacity:1; stop-color:#87C60F"/>
   <stop offset="1" style="stop-opacity:1; stop-color:#A4E810"/>
  </linearGradient>
  <linearGradient id="id2" gradientUnits="userSpaceOnUse" x1="1748.03" y1="3609.76" x2="3249.38" y2="5401">
   <stop offset="0" style="stop-opacity:1; stop-color:#729E20"/>
   <stop offset="0.219608" style="stop-opacity:1; stop-color:#55891E"/>
   <stop offset="0.419608" style="stop-opacity:1; stop-color:#407A1D"/>
   <stop offset="0.6" style="stop-opacity:1; stop-color:#2D6B1C"/>
   <stop offset="0.768627" style="stop-opacity:1; stop-color:#175C1A"/>
   <stop offset="1" style="stop-opacity:1; stop-color:#12581A"/>
  </linearGradient>
 </defs>
 <g id="Layer_x0020_1">
  <metadata id="CorelCorpID_0Corel-Layer"/>
  <g id="_2149392893936">
   <path class="fil0" d="M30.76 2221.87c-4.71,28.22 36.22,174.9 44.88,205.74 9.14,32.54 19.56,63.67 30.8,96.68 11.33,33.3 25.44,62.83 35.32,95.19l38.18 83.25c12.59,30.5 26.29,55.19 41.71,82.74 7.91,14.14 13.37,25.48 21.21,39.5 64.22,114.81 122.18,193.26 205.02,295.81l92.01 99.72c9.54,16.95 47.68,46.55 64,62.98 42.5,42.78 91.26,78.95 137.92,117.05 71.61,58.47 150.8,104.93 230.34,152.12 14.55,8.63 27.47,13.96 41.34,22.4l126.91 64.33c27.39,13.83 48.51,24.26 74.85,37.44 13.35,6.67 23.07,11.53 36.43,18.21 11.91,5.96 24.89,15.43 37.44,16.03l565.59 285.48c27.75,13.88 54.44,28.56 82.11,40.47 15.81,10.86 47.95,24.56 67.63,34.4 24.49,12.25 47.44,22.12 70.24,36 20.8,12.67 45.63,23.45 68.38,34.83 80.39,40.2 164.72,77.45 237.5,129.78l86.28 71.56c16.79,11.26 28.85,30.19 44.82,46.23 26.07,26.2 78.18,100.3 95.74,131.92l18.32 28.26 36.67 86.73c29.1,76.06 37.82,117.89 49.05,199.85 5.31,38.76 4.3,80.5 4.3,123.45 0,161.35 -73.36,330.82 -165.2,453.74l-100.62 108.81 -56.33 46.88c-7.54,5.67 -13.73,9.52 -21.3,15.12 -14.57,10.78 -27.37,18.03 -42.03,27.78 -10.64,7.08 -36.14,18.64 -42.5,27.31l192.25 -96.11c12.91,-6.39 18.97,-10.99 31.31,-17.26l158.89 -80.9c113.2,-56.56 198.05,-110.13 297.91,-184.72l229.49 -204.56c4.54,-4.5 7.9,-7.38 12,-12.28 33.57,-40.17 64.67,-72.06 99.34,-116.17 29.1,-37.02 56.11,-72.21 82.46,-111.8 25.57,-38.41 52.26,-76.85 74.07,-117.16 63.98,-118.3 106.71,-197.13 151.38,-331.24 40.48,-121.52 67.78,-225.43 85.22,-351.87 1.93,-13.97 3.18,-29.54 6.23,-42.08l12.15 -152.01c0.56,-10.44 -0.01,-22.76 -0.01,-33.4 -0.01,-22.26 0,-44.52 0,-66.78l-11.25 -186.05c-1.44,-11.22 -2.33,-21.63 -3.37,-30.03 -1.35,-10.94 -3.37,-20.18 -3.59,-28.74 -2.4,-33.01 -12.1,-74.29 -18.21,-105.43 -6.71,-67.43 -78.1,-288.18 -105.2,-348.92 -8.29,-18.59 -15.19,-34.79 -22.7,-53.18 -7.38,-18.06 -16.18,-33.85 -23.86,-54l-65.74 -120.47c-38.44,-70.41 -148.57,-228.47 -208.21,-292.62 -12.95,-13.93 -22.3,-29.16 -36.54,-37.19 -10.67,-22.11 -59.82,-65.25 -80.32,-85.75l-89.21 -80.77c-15.46,-12.48 -29.03,-24.76 -44.71,-37.25 -175.13,-139.5 -284.01,-188.46 -474.93,-283.91l-899.47 -451.25c-38.05,-19.02 -76.99,-36.85 -113.14,-56.66 -124.48,-63.69 -202.52,-101.54 -302.99,-210.16l-38.9 -46.09c-7.1,-9.09 -11.27,-15.07 -18.19,-24.3l-19.51 -25.43c-19.83,-41.86 -38.45,-55.44 -74.6,-141.5 -26.98,-64.24 -47.47,-139.05 -55.67,-211.44l-6.33 -102.96c-0.4,-115.39 32.7,-247.74 83.98,-350.07 22.73,-45.36 52.31,-92.54 82.93,-132.57l75.11 -85.76c44.93,-45.14 117.99,-96.11 172.56,-127.94l11.19 -7.02c6.02,-4.13 1.77,-0.85 5.24,-3.87 -14.64,1.22 -56.88,26.93 -75.89,36.43 -109.85,54.93 -354.13,176.59 -454.02,238.04l-137.43 93.25c-11.37,8.53 -21.65,15.61 -32.88,24.79 -34.37,28.07 -94.12,75.26 -124.63,106.06 -25.82,26.06 -61.71,52.11 -87.5,85.51 -16.37,21.2 -37.26,39.2 -55.02,60.32l-102.37 128.31c-32.86,43.58 -63.78,91.22 -92.22,138.47 -29.59,49.14 -55.06,96.35 -81.52,149.17 -100.81,201.31 -168.4,453.76 -186,679.07 -5.52,70.69 -7.06,149.78 -3.19,221.4 1.06,19.75 -1.16,36.67 1.74,55.93 2.21,14.68 3.31,40.24 4.21,53.46 1.28,18.99 12.38,140.33 22.66,151.66z"/>
   <path class="fil1" d="M5084.91 1775.15c0,83.41 -35.71,134.84 -98.39,181.19 -146.87,108.61 -510.43,99.19 -647.91,-33.58 -79.8,-77.06 -112.19,-155.66 -112.19,-274.69l-443.37 0 0 48.01c0,146.74 54.61,290.48 139.26,394.48 8.11,9.98 15.78,17.75 23.34,27.49 25.81,33.23 68,67.17 102.04,92.82 238.75,179.91 671.18,215.44 962.17,133.09 89.29,-25.27 123.24,-40.19 200.29,-79.28l111.58 -77.63c49.95,-40.31 117.79,-122.83 144.41,-183.18 16.56,-37.56 26.2,-60.05 38.57,-102.63 39.66,-136.44 32.65,-341.74 -44.17,-456.54 -8.59,-12.83 -16.65,-25.93 -26.22,-38.72 -4.94,-6.61 -8.76,-11.82 -13.3,-17.77 -72.19,-94.61 -178.61,-164.44 -288.5,-208.53 -32.61,-13.08 -64.29,-22.05 -100.28,-32.44 -92.44,-26.72 -221.51,-52.46 -315.44,-79.92 -35.21,-10.29 -69.19,-18.58 -105.2,-27.53 -81.83,-20.33 -216.06,-57.65 -277.18,-118.17 -39.86,-39.46 -37.39,-86.09 -37.39,-137.7 0,-99.26 104.37,-178.88 189.41,-197.47 151.19,-33.07 374.75,-11.55 460.17,101.4 5.99,7.92 11.95,15.32 18.09,24.28 29.17,42.58 49.63,118.54 49.63,173.46l443.37 0c0,-121.75 -19.54,-231.61 -72.88,-319.66 -41.89,-69.16 -31.99,-49.8 -72.78,-102.31 -69.14,-89.02 -216.04,-168.42 -329.96,-200.94 -230.78,-65.89 -536.61,-68.41 -750.93,31.75 -13.86,6.48 -23.28,10.25 -36.71,16.95 -52.4,26.14 -121.92,71.32 -163.55,113.19 -10.08,10.14 -18.13,18.1 -28.28,28.2 -6.7,6.67 -7.45,8.44 -12.96,15.28 -38.54,47.86 -71.41,88.31 -96.87,151.64 -18.02,44.79 -39.31,118.22 -39.04,181.23 0.08,19.16 -3.71,29.22 -2.99,50.86l3.33 53.17c3.37,31.53 9.06,65.33 16.5,93.63 36.2,137.46 132.52,233.91 249.06,304.44 21.71,13.15 47.88,27.68 72.09,38.05 159.76,68.41 341.65,110.52 510.82,152.81 100.3,25.07 229.44,61.07 310.94,129.6 40.76,34.28 71.43,77.91 71.43,151.66zm3789.78 -166.61c0,112.97 20.67,221.94 60.1,321.13 56.39,141.87 153.95,259.62 281.72,336.72l62.4 33.62c12.81,5.18 20.28,9.86 33.05,14.95 191.46,76.41 412.3,82.78 610.78,16.87 54.92,-18.24 121.54,-51.15 166.69,-84.65 8.51,-6.32 16.07,-11.19 24.35,-18.02 39.9,-32.89 70.8,-59.63 104.33,-104.65 66.31,-89.05 104.44,-178.19 127.67,-290.28 4.1,-19.79 11.5,-51.72 11.5,-73.22l-401 0c0,64.35 -47.83,171.25 -95.3,218.17 -29.48,29.13 -51.37,46.68 -92.25,63.07 -89.17,35.76 -216.15,33.13 -297.66,-19.13 -34.07,-21.84 -55.37,-42.33 -80.02,-72.48 -140.07,-171.31 -153.25,-635.25 80.02,-793.43 55.66,-37.74 106.37,-48.54 177.38,-48.54 116.61,0 211.83,45.99 262.68,149.63 10.36,21.12 30.36,77.86 31.02,107.35l406.65 0c0,-110.98 -44.48,-220.7 -97.68,-297.67 -26.96,-39 -41.85,-52.24 -73.87,-84.28 -163.64,-163.68 -474.56,-222.02 -717.81,-171.37 -27.85,5.8 -51.82,12.74 -78.67,20.17 -66.71,18.48 -175.04,75.83 -225.65,118.88 -70.78,60.2 -111.95,104.02 -160.23,184.3 -73.83,122.77 -100.26,238.95 -115.01,379.19 -2.8,26.57 -5.19,64.42 -5.19,93.64zm-1152.19 -564.8l0 -208.97 -395.35 0 0 1502.35 415.12 0 0 -818.95c0,-111.12 23.01,-260.71 110.79,-332.58 103.82,-85 337.67,-94.17 412.57,32.32 40.64,68.63 55.56,162.17 55.56,246.61l0 872.61 415.12 0 0 -943.21c0,-136.29 -19.25,-287.87 -92.61,-404.41 -121.33,-192.75 -409.87,-224.2 -613.99,-172.29 -80.09,20.37 -169.63,69.33 -227.49,128.33 -8.22,8.39 -11.16,14.04 -19.72,22.64l-39.09 51.27c-3.76,5.66 -5.28,8.26 -8.87,13.71 -4.57,6.93 -3.3,8.24 -12.02,10.57zm-1332.91 64.95c108.4,0 186.79,26.23 240.48,92.74 54.89,68.01 72.97,138.64 92.75,223.54l-666.46 0c0,-40.8 18.81,-100.89 30.62,-130.35 29.28,-73.05 93.62,-128.91 164.23,-160.52 34.93,-15.63 87.65,-25.41 138.38,-25.41zm-748.36 460.3c0,143.42 15.15,247.11 61.69,361.91l30.28 65.74c6.71,11.2 9.87,20.25 16.52,31.48 6.52,10.98 12.55,19.81 18.43,29.58 31.34,52.14 55.24,70.73 84.46,107.57 14.52,18.31 85.13,73 105.47,86.56 226.15,150.78 582.41,165.17 823.11,44.81 9.84,-4.93 15.5,-8.35 23.65,-13.06 97.21,-56.19 171.45,-123.85 227.65,-227.01 14.2,-26.07 26.16,-45.74 38.08,-74.88 7.91,-19.31 37.1,-89.7 41.95,-110.54l-367.11 0c-13.67,58.65 -71.98,107.11 -116.89,137.26 -144.55,97.04 -429.84,76.96 -518.54,-94.86 -11.33,-21.96 -19.54,-40.52 -27.85,-65.34 -13.8,-41.23 -25.76,-106.48 -25.76,-160.62l1081.57 0 2.83 -73.42c0,-128.32 -25.69,-287.04 -80.01,-400.06 -41.32,-85.96 -52.36,-104.83 -110.79,-180.09 -8.69,-11.2 -14.69,-15.08 -22.99,-25.01 -24.74,-29.59 -13.36,-15.72 -35.41,-35.2l-39.23 -34.19c-18.71,-13.91 -36.34,-27.85 -56.22,-39.79 -126.89,-76.24 -235.32,-104.61 -392.41,-104.61 -144.41,0 -261.63,32.03 -382.2,97.87 -63.48,34.66 -112.56,73.63 -163.53,124.52 -61.75,61.64 -119.53,150.05 -152.23,231.83 -35,87.56 -64.51,196.46 -64.51,319.54zm7195.49 530.91c-80.18,0 -148.02,-0.14 -211.3,-42.86 -89.64,-60.51 -95.49,-228.58 4.7,-302.11 111.54,-81.85 297.54,-66.38 435,-110.03 40,-12.7 42.82,-15.66 73.76,-36.37 0,172.86 16.19,303.89 -86.83,407.35 -53.93,54.15 -129.35,84.02 -215.33,84.02zm-646.69 -810.48l0 11.3 412.3 0c14.09,-60.48 11.08,-107.91 69.84,-164.56 34.09,-32.88 109.26,-61.36 175.85,-61.36 99.2,0 221.11,-0.87 270.2,96.91 23.62,47.05 20.67,74.02 20.67,126.18 0,128.33 -249.02,143.83 -347.85,154.81 -135.48,15.05 -295.13,38.54 -415.44,90.06 -56.83,24.34 -105.41,62.22 -145.17,108.99 -7.59,8.94 -14.91,19.14 -21.78,29.05 -52,74.91 -66.62,155.1 -66.62,255.31 0,435.89 465.84,505.59 805.2,392.89 23.88,-7.93 38.54,-14.16 59.88,-24.84 10.56,-5.28 17.72,-8.74 28.28,-14.07 19.67,-9.92 59.89,-38.04 77.22,-52.69l46.05 -41.49c0,60.88 25.1,126.97 25.41,141.2l423.6 0c-46.96,-88.74 -37.7,-139.17 -50.06,-229.51 -1.47,-10.77 -0.77,-22.18 -0.71,-33.18 0.08,-15.33 -1.79,-19.63 -2.74,-31.15l-0.15 -211.65c0,-97.7 5.64,-626.31 -6.01,-694.34 -6.69,-39.07 -18.44,-75.17 -35.42,-105.77 -66.06,-119.04 -213.42,-191.25 -348.23,-213.74 -256.52,-42.8 -603.59,-34.78 -798.59,124.95 -8.1,6.64 -12.06,10.09 -19.76,16.95 -60.19,53.61 -111.65,120.97 -134.02,202.04 -9.68,35.12 -21.96,82.31 -21.96,127.7zm-1652.02 1047.7l415.12 0 0 -807.66c0,-114.12 25.57,-259.15 86.8,-319.86 8.25,-8.19 14.25,-14.53 22.57,-22.61 80.07,-77.78 333.46,-102.99 412.23,27.03 20.98,34.65 30.24,60.83 41.53,105.32 9.33,36.74 15.8,89.62 15.8,133.87l0 883.91 415.13 0 0 -960.15c0,-89.13 -13.73,-175.5 -31.63,-247.95 -58.8,-238.07 -253.9,-333.78 -519.05,-333.78 -112.59,0 -244.51,49.96 -316.94,109.48 -30.18,24.8 -110.29,106.15 -117.95,139.03l-8.47 0 0 -779.42 -415.12 0 0 2072.8z"/>
   <polygon class="fil2" points="5004.28,5290.02 6518.71,5284.06 6507.42,4861.14 5542.28,4852.02 5542.07,4296.2 6404.8,4295.44 6404.08,3867.98 5546.51,3866.71 5539.9,3380.44 6448.64,3379.39 6457.68,2944.54 5011.96,2944.23 "/>
   <path class="fil3" d="M11570.18 5264.88c310.56,47.75 386.93,52.69 701.46,-0.25 279.59,-88.94 509.42,-219.39 576.13,-518.15 210.68,-943.48 -1019.96,-783.61 -1018.51,-1199.15 1.22,-349.4 604.68,-193.98 816.93,-122.24l130.93 -432.91c-406.1,-99.92 -788.61,-200.76 -1166.25,30.74 -367.93,225.56 -587.16,888.33 220.57,1222.93 153.82,63.72 389.81,124.42 461.34,259.36 116.09,219.02 -112.85,344.6 -318.56,351.54 -279.35,9.43 -388.65,-82.67 -604.27,-130.07l-115.03 435.12 315.24 103.07z"/>
   <path class="fil2" d="M6554.85 5290.49l598.4 -4.18c29.92,-104.73 217.47,-449.38 278.49,-547.3l293.42 545.74 612.65 3c-94.23,-151.89 -522.74,-798.84 -558.76,-905.24l544.44 -785.59 -582.58 -9.56c-41.58,111.91 -200.23,411.29 -269.21,513.26l-300.65 -508.28 -593.81 -1.98c131.89,243.72 496.92,720.72 541.97,838.87l-564.36 861.25z"/>
   <path class="fil3" d="M10024.26 5268.58c272.16,41.31 364.48,37.59 639.78,-3.13 213.65,-89.34 302,-127.39 397.26,-309.82 94.18,-180.37 111.9,-369.07 111.88,-595.5 -0.05,-463.25 -19.61,-969.91 2.39,-1427.81l-527.73 -12.06c-67.71,1629.68 259.9,2007.94 -641.59,1901.04l-54.45 419.19 72.46 28.1z"/>
   <path class="fil2" d="M8840.85 5265.6c266.58,81.15 351.76,71.77 637.97,19.64l-1.16 -407.9c-260.21,10.5 -347.31,30.2 -367.07,-253.12 -14.07,-201.79 0.66,-421.93 -4.48,-627.03l378.07 -16.17 4.03 -381.21 -386.25 -16.65 -0.6 -461.73 -511.02 145.77 -1.82 321.56 -225.83 5.91 2.81 380.07 225.25 10.25c-0.25,298.65 -43.58,851.36 72.07,1085.53 76.24,154.35 91.1,101.46 178.03,195.09z"/>
   <g>
    <path class="fil4" d="M916.17 2140.38c-17.38,21.75 -150.52,65.78 -189.01,78.58 -63.43,21.08 -149.55,37.21 -221.76,45.19 -114.81,12.69 -255.05,6.75 -368.79,-18.57 -12.37,-2.75 -98.2,-24.31 -99.65,-23.71 -4.7,28.23 36.22,174.9 44.89,205.75 9.13,32.54 19.56,63.67 30.8,96.69 11.33,33.3 25.44,62.83 35.32,95.19l-0 0 38.18 83.25c12.59,30.5 26.29,55.19 41.71,82.74 7.91,14.14 13.37,25.48 21.21,39.5 64.22,114.81 122.18,193.26 205.02,295.81l92.01 99.72c9.54,16.95 47.68,46.55 64,62.98 42.5,42.78 91.26,78.95 137.92,117.05 71.61,58.47 150.8,104.93 230.34,152.12 14.55,8.63 27.47,13.96 41.34,22.4l126.91 64.33c-0.19,-0.26 -0.41,-0.56 -0.62,-0.91l-0.02 -0.04c-0.21,-0.33 -0.43,-0.71 -0.67,-1.12l-0.06 -0.09 -0.19 -0.35 -0.51 -0.96 -0.09 -0.17 -0.18 -0.35 -0.55 -1.12 -0.13 -0.26 -0.16 -0.33 -0.3 -0.63 -0.3 -0.65 -0.18 -0.38 -0.13 -0.3 -0.31 -0.7 -0.32 -0.72 -0.22 -0.51 -0.1 -0.24 -0.33 -0.77 -0.34 -0.8 -0.28 -0.65 -0.07 -0.17 -0.35 -0.84 -0.36 -0.86 -0.33 -0.81 -0.03 -0.07 -0.37 -0.91 -0.38 -0.93 -0.38 -0.95 -0.01 -0.03 -0.37 -0.94 -0.39 -0.99 -0.4 -1.02 -0.06 -0.15 -0.34 -0.89 -0.41 -1.06 -0.41 -1.07 -0.11 -0.29 -0.31 -0.81 -0.43 -1.11 -0.43 -1.13 -0.17 -0.44 -0.27 -0.72 -0.44 -1.17 -0.44 -1.19 -0.22 -0.6 -0.22 -0.61 -0.45 -1.22 -0.46 -1.24 -0.28 -0.78 -0.18 -0.48 -0.46 -1.28 -0.47 -1.29 -0.35 -0.96 -0.13 -0.35 -0.48 -1.33 -0.48 -1.34 -0.41 -1.15 -0.07 -0.2 -0.49 -1.37 -0.49 -1.39 -0.48 -1.36 -0.02 -0.05 -0.5 -1.42 -0.51 -1.43 -0.51 -1.44 -0.04 -0.12 -0.46 -1.33 -0.52 -1.48 -0.52 -1.48 -0.11 -0.3 -0.42 -1.2 -0.52 -1.51 -0.52 -1.52 -0.17 -0.49 -0.36 -1.05 -0.53 -1.55c-28.65,-75.3 -55,-152.87 -78.67,-233.09l-0 -0.02c-114.45,-388 -140.48,-720.06 -129.55,-1098l0.09 -0.55 3.64 -103.59 -0.84 0.2zm229.79 1498.06c-0.21,-0.33 -0.44,-0.71 -0.67,-1.12l0.67 1.12z"/>
    <path class="fil5" d="M2709.53 4960.01c0,161.35 -73.36,330.82 -165.2,453.74l-100.62 108.81 -56.33 46.88c-7.54,5.67 -13.73,9.52 -21.3,15.12 -14.57,10.78 -27.37,18.03 -42.03,27.78 -10.64,7.08 -36.14,18.64 -42.5,27.31l192.25 -96.11c12.91,-6.39 18.97,-10.99 31.31,-17.26l158.89 -80.9c113.2,-56.56 198.05,-110.13 297.91,-184.72l229.49 -204.56c4.54,-4.5 7.9,-7.38 12,-12.28 33.57,-40.17 64.67,-72.06 99.34,-116.17 29.1,-37.02 56.11,-72.21 82.46,-111.8 25.57,-38.41 52.26,-76.85 74.07,-117.16 63.98,-118.3 106.71,-197.13 151.38,-331.24 40.48,-121.52 67.78,-225.43 85.22,-351.87 1.93,-13.97 3.18,-29.54 6.23,-42.08l12.15 -152.01c0.56,-10.44 -0.01,-22.76 -0.01,-33.4 -0.01,-22.26 0,-44.52 0,-66.78l-11.25 -186.05c-1.44,-11.22 -2.33,-21.63 -3.37,-30.03 -1.35,-10.94 -3.37,-20.18 -3.59,-28.74 -2.4,-33.01 -12.1,-74.29 -18.21,-105.43l-123.7 77.61c-40.98,24.6 -84.11,45.62 -126.87,70.52 -81.73,47.59 -184,85.28 -269.61,123.95 -30.19,8.96 -59.33,22.59 -89.84,32.56 -31.15,10.17 -58.55,20.35 -88.75,29.59 -37.64,11.52 -150.39,50.51 -186.55,50.87 -14.78,16.29 -276.6,55.83 -314.81,60.91 -116.27,15.47 -231.04,20.62 -352.79,22.01 -150.77,1.11 -303.26,-11.65 -450.42,-35.64 -68.39,-11.15 -133.61,-24.24 -202.4,-40.57 -62.97,-14.94 -128.91,-29.81 -189.15,-51.85l565.59 285.48c27.75,13.88 54.44,28.56 82.11,40.47 15.81,10.86 47.95,24.56 67.63,34.4 24.49,12.25 47.44,22.12 70.24,36 20.8,12.67 45.63,23.45 68.38,34.83 80.39,40.2 164.72,77.45 237.5,129.78l86.28 71.56c16.79,11.26 28.85,30.19 44.82,46.23 26.07,26.2 78.18,100.3 95.74,131.92l18.32 28.26 36.67 86.73c29.1,76.06 37.82,117.89 49.05,199.85 5.31,38.76 4.3,80.5 4.3,123.45z"/>
    <path class="fil6" d="M36.96 2221.87c1.45,-0.61 87.28,20.95 99.65,23.7 113.73,25.32 253.97,31.26 368.79,18.57 72.21,-7.98 158.33,-24.11 221.76,-45.19 38.48,-12.79 171.63,-56.83 189.01,-78.58 20.11,-191.69 35.9,-334.61 82.85,-521.42 19.98,-79.49 40.52,-158.92 66.58,-236.81 10.71,-32 67.66,-206.09 80.99,-219.01 -19.83,-41.86 -38.45,-55.44 -74.6,-141.5 -26.98,-64.24 -47.47,-139.05 -55.67,-211.44l-6.33 -102.96c-0.4,-115.39 32.7,-247.74 83.98,-350.07 22.73,-45.36 52.31,-92.54 82.93,-132.57l75.11 -85.76c44.93,-45.14 117.99,-96.11 172.56,-127.94l11.19 -7.02c6.02,-4.13 1.77,-0.85 5.24,-3.87 -14.64,1.22 -56.88,26.93 -75.89,36.43 -109.85,54.93 -354.13,176.59 -454.02,238.04l-137.43 93.25c-11.37,8.53 -21.65,15.61 -32.88,24.79 -34.37,28.07 -94.12,75.26 -124.63,106.06 -25.82,26.06 -61.71,52.11 -87.5,85.51 -16.37,21.2 -37.26,39.2 -55.02,60.32l-102.37 128.31c-32.86,43.58 -63.78,91.22 -92.22,138.47 -29.59,49.14 -55.06,96.35 -81.52,149.17 -100.81,201.31 -168.4,453.76 -186,679.07 -5.52,70.69 -7.06,149.78 -3.19,221.4 1.06,19.75 -1.16,36.67 1.74,55.93 2.21,14.68 3.31,40.24 4.21,53.46 1.28,18.99 12.38,140.33 22.66,151.66z"/>
    <path class="fil7" d="M916.17 2140.38c18.24,-4.02 84.71,-45.12 101.64,-56.25 66.44,-43.69 124.05,-85.87 180.76,-141.13 26.89,-26.2 53.19,-49.57 79.22,-81.65 54.87,-67.63 87.07,-102.27 133.76,-185.13 15.44,-27.41 110.99,-193.06 114.64,-207.11 -124.48,-63.69 -202.52,-101.54 -302.99,-210.16l-38.9 -46.09c-7.1,-9.09 -11.27,-15.07 -18.19,-24.3l-19.51 -25.43c-13.33,12.92 -70.28,187.02 -80.99,219.01 -26.07,77.89 -46.61,157.33 -66.58,236.81 -46.95,186.8 -62.73,329.73 -82.85,521.42z"/>
    <path class="fil8" d="M3227.96 2464.7c-10.67,-22.11 -59.82,-65.25 -80.32,-85.75l-89.21 -80.77c-15.46,-12.48 -29.03,-24.76 -44.71,-37.25 -175.13,-139.5 -284.01,-188.46 -474.93,-283.91l-899.47 -451.25c-38.05,-19.02 -76.99,-36.85 -113.14,-56.66 -3.65,14.04 -99.2,179.69 -114.64,207.11 -46.69,82.87 -78.89,117.51 -133.76,185.13 -26.03,32.08 -52.33,55.45 -79.22,81.65 -56.71,55.26 -114.31,97.44 -180.76,141.13 -16.68,10.96 -81.44,51.02 -100.8,56.05l-3.64 103.59 -0.09 0.55 -3.48 120.2c0.14,51.91 0.76,103.64 2.34,155.3 10.99,306.27 58.22,576.82 130.69,822.5 23.67,80.23 50.02,157.81 78.67,233.11 11.38,33.14 20.93,58.42 25.09,63.96 27.39,13.83 48.51,24.26 74.85,37.44 13.35,6.67 23.07,11.53 36.43,18.21 11.91,5.96 24.89,15.43 37.44,16.03 60.24,22.04 126.18,36.91 189.15,51.85 68.78,16.33 134,29.43 202.4,40.57 147.16,23.99 299.65,36.74 450.42,35.64 121.74,-1.39 236.52,-6.54 352.79,-22.01 38.21,-5.08 300.03,-44.62 314.81,-60.91 36.16,-0.36 148.91,-39.36 186.55,-50.87 30.2,-9.24 57.59,-19.43 88.75,-29.59 30.52,-9.96 59.65,-23.6 89.84,-32.56 85.61,-38.68 187.88,-76.36 269.61,-123.95 42.76,-24.9 85.89,-45.91 126.87,-70.52l123.7 -77.61c-6.71,-67.43 -78.1,-288.18 -105.2,-348.92 -8.29,-18.59 -15.19,-34.79 -22.7,-53.18 -7.38,-18.06 -16.18,-33.85 -23.86,-54l-65.74 -120.47c-38.44,-70.41 -148.57,-228.47 -208.21,-292.62 -12.95,-13.93 -22.3,-29.16 -36.54,-37.19z"/>
   </g>
  </g>
 </g>
</svg>
