<?xml version="1.0" encoding="UTF-8"?>
<!DOCTYPE svg PUBLIC "-//W3C//DTD SVG 1.1//EN" "http://www.w3.org/Graphics/SVG/1.1/DTD/svg11.dtd">
<!-- Creator: CorelDRAW 2020 (64-Bit) -->
<svg xmlns="http://www.w3.org/2000/svg" xml:space="preserve" width="20.8911in" height="3.19487in" version="1.1" style="shape-rendering:geometricPrecision; text-rendering:geometricPrecision; image-rendering:optimizeQuality; fill-rule:evenodd; clip-rule:evenodd"
viewBox="0 0 20891.13 3194.87"
 xmlns:xlink="http://www.w3.org/1999/xlink"
 xmlns:xodm="http://www.corel.com/coreldraw/odm/2003">
 <defs>
  <style type="text/css">
   <![CDATA[
    .fil0 {fill:#224381}
    .fil1 {fill:#224482}
   ]]>
  </style>
 </defs>
 <g id="Layer_x0020_1">
  <metadata id="CorelCorpID_0Corel-Layer"/>
  <g id="_2149383862912">
   <g id="_2520798024848">
    <path class="fil0" d="M1933.35 3194.87c750.4,0 2515.08,-116.03 2509.44,-1032.31 -1.44,-234.86 -130.87,-363.92 -253.75,-455.73 -240.63,-179.77 -700.43,-294.9 -1057.75,-357.56 -345.16,-60.54 -960.32,-116.52 -1228.42,-188.06 -90.35,-24.11 -194.6,-62.22 -246.57,-111.99 -76.63,-73.35 -32.53,-193.92 29.61,-242.92 384.47,-303.17 1690.96,-144.44 2184.26,-58.53 65.47,11.41 63.85,-15.69 100.62,-62.27 107.43,-136.06 293.19,-359.04 382.93,-484.87 -89.44,-62.69 -1185.66,-172.35 -1372.62,-184.02 -495.22,-30.95 -1003.15,-21.5 -1485.8,52.52 -462.49,70.91 -1456.65,288.96 -1493.89,849.16 -16.65,250.57 117.59,428.04 243.9,526.68 283.7,221.52 748.4,317.91 1180.38,381.28 336.97,49.43 1071.82,106.48 1307.85,252.95 75.04,46.58 141.45,143.86 74.63,258.95 -187.4,322.8 -1351.03,219.17 -1679.07,185.8l-688.56 -86c-26.59,24.97 -75.44,107.57 -100.23,144.87l-198.05 296.7c-19.74,29.63 -88.74,119.98 -91.68,148.84 663.68,96.47 1191.93,166.5 1882.78,166.5l-0.02 0z"/>
    <path class="fil0" d="M11346.12 1483.94c231.85,-3.04 501.72,-10.28 730.03,2.99 192.11,11.16 484.02,64.39 488.6,249.05 5.19,209.26 -287.06,242.47 -488.74,248.8 -235.46,7.41 -497.34,6.65 -733.28,0.91l3.4 -501.72 -0.01 -0.02zm15.93 -921.54c233.83,0 485,-8.69 716.8,3.89 179.26,9.72 476.11,45.45 474.01,240.03 -1.97,183.26 -294.65,227.24 -476.54,236.21 -231.89,11.46 -484.15,2.52 -718.39,2.52l4.13 -482.65 0 0.01zm1603.78 698.18c93.78,-26.24 179.17,-35.81 274.45,-66.24 219.73,-70.13 521.2,-237.49 460.12,-537.63 -63.68,-312.9 -495.5,-432.01 -853.5,-484.47 -418.67,-61.35 -864.25,-46.73 -1291.3,-46.73 -90.14,0 -1277.37,-7.8 -1334.78,3.67l0.83 2292.94c453.26,11.78 921.76,2.18 1376.6,2.16 436.87,0 909.91,21.33 1335.64,-44.78 362.62,-56.31 806.54,-192.92 827.89,-550.99 29.05,-487.61 -738.72,-537.46 -795.96,-567.94l0 0.01z"/>
    <path class="fil0" d="M7790.86 605.74l1973.8 -2.97 2.14 -479.13 -3197.19 1.28 -0.04 2302.26 3166.84 -3.46 0.13 -477.79 -1956.83 -0.32 3.87 -441.46 914.34 0c25.16,-5.04 261.43,-392.18 302.96,-459.94l-1211.42 -3.93 1.39 -434.53 0 -0.02z"/>
    <path class="fil0" d="M14125.22 2424.97l3127.5 0.17 1.89 -479.28 -1932.78 -1.28c-15.33,-59.41 -4.1,-356.06 -3.93,-440.07l927 -0.45 290.46 -457.49 -1210.95 -2.16 -1.94 -442.85 1922.71 -10.95 -4.56 -461.43 -3099.39 -4.3c-9.36,185.59 -1.71,391.27 -2.01,579.05l-2.54 1595.19c-0.04,35.48 11.03,105.43 -11.48,125.85l0 0.02z"/>
    <polygon class="fil0" points="17682.6,2422.79 20891.13,2425.4 20885.73,1926.53 18873.68,1926.53 18867.15,124.32 17683.85,127.59 "/>
    <polygon class="fil1" points="4872.05,2403.75 6117.02,2403.75 6113.24,114.74 4873.11,114.74 "/>
   </g>
  </g>
 </g>
</svg>
