<?xml version="1.0" encoding="UTF-8"?>
<!DOCTYPE svg PUBLIC "-//W3C//DTD SVG 1.1//EN" "http://www.w3.org/Graphics/SVG/1.1/DTD/svg11.dtd">
<!-- Creator: CorelDRAW 2020 (64-Bit) -->
<svg xmlns="http://www.w3.org/2000/svg" xml:space="preserve" width="12.0206in" height="1.83829in" version="1.1" style="shape-rendering:geometricPrecision; text-rendering:geometricPrecision; image-rendering:optimizeQuality; fill-rule:evenodd; clip-rule:evenodd"
viewBox="0 0 11117.98 1700.26"
 xmlns:xlink="http://www.w3.org/1999/xlink"
 xmlns:xodm="http://www.corel.com/coreldraw/odm/2003">
 <defs>
  <style type="text/css">
   <![CDATA[
    .fil0 {fill:#224381}
    .fil1 {fill:#224482}
   ]]>
  </style>
 </defs>
 <g id="Layer_x0020_1">
  <metadata id="CorelCorpID_0Corel-Layer"/>
  <g id="_2520798024848">
   <path class="fil0" d="M1028.91 1700.26c399.35,0 1338.49,-61.75 1335.49,-549.38 -0.77,-124.99 -69.65,-193.67 -135.04,-242.53 -128.06,-95.67 -372.76,-156.94 -562.92,-190.29 -183.69,-32.22 -511.07,-62.01 -653.75,-100.08 -48.08,-12.83 -103.56,-33.11 -131.22,-59.6 -40.78,-39.04 -17.31,-103.2 15.76,-129.28 204.61,-161.34 899.91,-76.87 1162.43,-31.15 34.84,6.07 33.98,-8.35 53.55,-33.14 57.17,-72.41 156.03,-191.08 203.79,-258.04 -47.6,-33.36 -630.99,-91.72 -730.49,-97.93 -263.55,-16.47 -533.86,-11.44 -790.72,27.95 -246.13,37.74 -775.21,153.78 -795.03,451.91 -8.86,133.35 62.58,227.8 129.8,280.29 150.98,117.89 398.29,169.19 628.18,202.91 179.33,26.31 570.41,56.67 696.02,134.62 39.94,24.79 75.28,76.56 39.72,137.81 -99.73,171.79 -719,116.64 -893.58,98.88l-366.44 -45.77c-14.15,13.29 -40.15,57.25 -53.34,77.1l-105.4 157.9c-10.51,15.77 -47.23,63.85 -48.79,79.21 353.2,51.34 634.33,88.61 1001.99,88.61z"/>
   <path class="fil0" d="M6038.26 789.73c123.39,-1.62 267.01,-5.47 388.51,1.59 102.24,5.94 257.59,34.27 260.03,132.54 2.76,111.37 -152.77,129.04 -260.1,132.41 -125.31,3.94 -264.68,3.54 -390.24,0.48l1.81 -267.01zm8.48 -490.43c124.44,0 258.11,-4.62 381.47,2.07 95.4,5.17 253.38,24.19 252.26,127.74 -1.05,97.53 -156.81,120.93 -253.61,125.71 -123.41,6.1 -257.66,1.34 -382.32,1.34l2.2 -256.86zm853.51 371.56c49.91,-13.96 95.35,-19.06 146.06,-35.25 116.94,-37.32 277.38,-126.39 244.87,-286.12 -33.89,-166.52 -263.7,-229.91 -454.22,-257.83 -222.81,-32.65 -459.94,-24.87 -687.21,-24.87 -47.97,0 -679.8,-4.15 -710.35,1.95l0.44 1220.27c241.22,6.27 490.55,1.16 732.61,1.15 232.5,-0 484.24,11.35 710.81,-23.83 192.98,-29.97 429.23,-102.67 440.59,-293.23 15.46,-259.5 -393.14,-286.03 -423.6,-302.25z"/>
   <path class="fil0" d="M4146.2 322.36l1050.43 -1.58 1.14 -254.99 -1701.5 0.68 -0.02 1225.23 1685.35 -1.84 0.07 -254.27 -1041.4 -0.17 2.06 -234.94 486.6 0c13.39,-2.68 139.13,-208.71 161.23,-244.77l-644.7 -2.09 0.74 -231.25z"/>
   <path class="fil0" d="M7517.26 1290.53l1664.41 0.09 1.01 -255.07 -1028.6 -0.68c-8.16,-31.62 -2.18,-189.49 -2.09,-234.2l493.34 -0.24 154.58 -243.47 -644.45 -1.15 -1.03 -235.68 1023.24 -5.83 -2.43 -245.57 -1649.45 -2.29c-4.98,98.77 -0.91,208.23 -1.07,308.16l-1.35 848.94c-0.02,18.88 5.87,56.11 -6.11,66.98z"/>
   <polygon class="fil0" points="9410.45,1289.37 11117.98,1290.76 11115.11,1025.27 10044.32,1025.27 10040.85,66.16 9411.11,67.9 "/>
   <polygon class="fil1" points="2592.85,1279.24 3255.4,1279.24 3253.39,61.06 2593.41,61.06 "/>
  </g>
 </g>
</svg>
