<?xml version="1.0" encoding="UTF-8"?>
<!DOCTYPE svg PUBLIC "-//W3C//DTD SVG 1.1//EN" "http://www.w3.org/Graphics/SVG/1.1/DTD/svg11.dtd">
<!-- Creator: CorelDRAW 2020 (64-Bit) -->
<svg xmlns="http://www.w3.org/2000/svg" xml:space="preserve" width="5.99705in" height="6.74667in" version="1.1" style="shape-rendering:geometricPrecision; text-rendering:geometricPrecision; image-rendering:optimizeQuality; fill-rule:evenodd; clip-rule:evenodd"
viewBox="0 0 5997.05 6746.67"
 xmlns:xlink="http://www.w3.org/1999/xlink"
 xmlns:xodm="http://www.corel.com/coreldraw/odm/2003">
 <defs>
  <style type="text/css">
   <![CDATA[
    .fil0 {fill:#ED2B2B;fill-rule:nonzero}
   ]]>
  </style>
 </defs>
 <g id="Layer_x0020_1">
  <metadata id="CorelCorpID_0Corel-Layer"/>
  <g id="_2519059887552">
   <g>
    <path class="fil0" d="M2998.52 0c-1656.68,0 -2998.52,670.92 -2998.52,1499.26 0,828.34 1341.83,1499.26 2998.52,1499.26 1656.68,0 2998.52,-670.92 2998.52,-1499.26 0,-828.34 -1341.84,-1499.26 -2998.52,-1499.26l0 0zm-2998.52 2248.89l0 1124.44c0,828.34 1341.83,1499.26 2998.52,1499.26 1656.68,0 2998.52,-670.92 2998.52,-1499.26l0 -1124.44c0,828.34 -1341.84,1499.26 -2998.52,1499.26 -1656.68,0 -2998.52,-670.92 -2998.52,-1499.26l0 0zm0 1874.07l0 1124.44c0,828.34 1341.83,1499.26 2998.52,1499.26 1656.68,0 2998.52,-670.92 2998.52,-1499.26l0 -1124.44c0,828.34 -1341.84,1499.26 -2998.52,1499.26 -1656.68,0 -2998.52,-670.92 -2998.52,-1499.26z"/>
   </g>
   <filter id="saturation">
   </filter>
  </g>
 </g>
</svg>
