<?xml version="1.0" encoding="UTF-8"?>
<!DOCTYPE svg PUBLIC "-//W3C//DTD SVG 1.1//EN" "http://www.w3.org/Graphics/SVG/1.1/DTD/svg11.dtd">
<!-- Creator: CorelDRAW 2020 (64-Bit) -->
<svg xmlns="http://www.w3.org/2000/svg" xml:space="preserve" width="6.74666in" height="6.74666in" version="1.1" style="shape-rendering:geometricPrecision; text-rendering:geometricPrecision; image-rendering:optimizeQuality; fill-rule:evenodd; clip-rule:evenodd"
viewBox="0 0 6746.66 6746.66"
 xmlns:xlink="http://www.w3.org/1999/xlink"
 xmlns:xodm="http://www.corel.com/coreldraw/odm/2003">
 <defs>
  <style type="text/css">
   <![CDATA[
    .fil0 {fill:#0288D1}
   ]]>
  </style>
 </defs>
 <g id="Layer_x0020_1">
  <metadata id="CorelCorpID_0Corel-Layer"/>
  <g id="_2520687556192">
   <path class="fil0" d="M-0 0l0 6746.66 6746.66 0 0 -6746.66 -6746.66 0zm5126.47 3276.93l0 0.1c64.7,0.2 138.22,3.53 193.52,9.53 225.2,24.36 400.58,121.52 549.79,304.53 74.3,91.16 99.72,131.05 94.31,148.11 -3.49,11.01 -54.47,47.52 -216.56,155.12 -159.22,105.7 -210.52,137.36 -222.42,137.36 -12.08,0 -37.24,-25.89 -73.51,-75.61 -69.85,-95.73 -141.17,-139.42 -251.43,-153.99 -118.57,-15.7 -224.92,21.67 -277.01,97.38 -44.52,64.68 -51.24,168.76 -15.86,244.39 41,87.6 115.21,136.03 399.61,260.74 328,143.82 494.23,242.27 615.29,364.44 130.37,131.56 196.41,283.48 216.7,498.34 9.91,104.72 -2.2,228.85 -32.17,329.78 -73.5,247.39 -271.83,428.54 -562.55,513.8 -80.36,23.56 -155.14,37.63 -229.11,43.05 -112.91,8.31 -274.55,3.73 -371.83,-10.43 -246.12,-35.84 -523.96,-179.07 -662.5,-341.46 -68.01,-79.71 -154.83,-210.9 -154.83,-233.98 0,-11.14 5.52,-17.46 27.39,-31.36 64.84,-41.2 436.45,-253.63 443.66,-253.63 4.35,0 23.77,22.88 43.12,50.83 43.84,63.3 151.63,172.09 206.43,208.39 44.77,29.65 102.01,53.45 169.98,70.63 38.92,9.7 59.53,11.43 144.46,11.43 86.77,-0.03 104.58,-1.49 143.4,-11.92 102.68,-27.63 182.83,-84.81 216.8,-154.67 14.89,-30.19 15.18,-33.95 15.18,-107.16l0 -75.89 -18.25 -36.2c-44.2,-87.75 -139.46,-147.95 -440.6,-278.4 -138.33,-59.92 -307.75,-144.41 -373.89,-186.44 -150.94,-95.93 -255.56,-205.59 -324.22,-339.83 -68.3,-133.5 -78.48,-183.19 -78.65,-383.91 -0.17,-157.13 -0.43,-155.2 32.1,-255.5 29.52,-91.01 89.94,-192.67 156.64,-263.57 133.13,-141.52 327.63,-232.46 535.86,-250.55 26.63,-2.52 62.31,-3.51 101.12,-3.39l0.02 -0.04zm-1791.83 31.04l0.06 0c401.05,0.2 630.94,1.59 634.63,3.91 6.95,4.31 7.81,39.2 7.81,261.96l0 256.98 -400.19 1.45 -400.19 1.45 0 1136.23c0,624.94 -1.26,1139.96 -3,1144.5 -2.83,7.65 -33.61,8.24 -293.99,8.24l-290.83 0 -3 -11.76c-1.94,-6.45 -3.36,-521.48 -3.39,-1144.5l-0.1 -1132.78 -400.19 -1.42 -400.19 -1.45 0 -253.94c0,-201.41 1.39,-255.35 6.75,-260.7 5.51,-5.68 209.74,-7.15 1089.75,-8.01 169.67,-0.17 322.37,-0.24 456.06,-0.16l-0.01 -0.01z"/>
   <filter id="saturation">
   </filter>
  </g>
 </g>
</svg>
