<?xml version="1.0" encoding="UTF-8"?>
<!DOCTYPE svg PUBLIC "-//W3C//DTD SVG 1.1//EN" "http://www.w3.org/Graphics/SVG/1.1/DTD/svg11.dtd">
<!-- Creator: CorelDRAW 2020 (64-Bit) -->
<svg xmlns="http://www.w3.org/2000/svg" xml:space="preserve" width="6.07198in" height="6.74667in" version="1.1" style="shape-rendering:geometricPrecision; text-rendering:geometricPrecision; image-rendering:optimizeQuality; fill-rule:evenodd; clip-rule:evenodd"
viewBox="0 0 6071.98 6746.67"
 xmlns:xlink="http://www.w3.org/1999/xlink"
 xmlns:xodm="http://www.corel.com/coreldraw/odm/2003">
 <defs>
  <style type="text/css">
   <![CDATA[
    .fil2 {fill:#1C78C0;fill-rule:nonzero}
    .fil1 {fill:#8ED6FB;fill-rule:nonzero}
    .fil0 {fill:white;fill-rule:nonzero;fill-opacity:0.784314}
   ]]>
  </style>
 </defs>
 <g id="Layer_x0020_1">
  <metadata id="CorelCorpID_0Corel-Layer"/>
  <g id="_2520579406320">
   <polygon class="fil0" points="5427.68,4725.62 2827.39,6226.91 227.1,4725.62 227.1,1723.06 2827.39,221.76 5427.68,1723.06 "/>
   <path class="fil1" d="M3035.99 0c-70.84,0 -138.41,20.14 -192.39,60.61l-2665.06 1497.59c-107.94,57.35 -178.55,168.95 -178.55,297.14l0 3035.99c0,128.19 70.61,239.8 178.55,297.14l2665.06 1497.58c53.97,40.48 121.54,60.61 192.39,60.61 70.84,0 138.41,-20.14 192.38,-60.61l2665.06 -1497.58c107.94,-57.35 178.55,-168.96 178.55,-297.14l0 -3035.99c0,-128.19 -70.61,-239.79 -178.55,-297.14l-2665.06 -1497.59c-53.97,-40.48 -121.54,-60.61 -192.38,-60.61zm0 725.4l2361.32 1328.92 0 709.58 -5.27 0 0 1746.6 5.27 0 0 181.84 -2361.32 1328.92 -2361.32 -1328.92 0 -2638.04 2361.32 -1328.92 0 0.01zm0 701.69l-1653.06 954.69 1653.06 954.68 1653.06 -954.68 -1653.06 -954.69zm-1686.66 1713.68l0 1207.68 1349.33 778.77 0 -1207.69 -1349.33 -778.76zm3373.32 0l-1349.33 778.76 0 1207.69 1349.33 -778.77 0 -1207.68z"/>
   <path class="fil2" d="M3035.99 1427.08l-1653.06 954.69 1653.06 954.68 1653.06 -954.68 -1653.06 -954.69zm-1686.66 1713.68l0 1207.68 1349.33 778.77 0 -1207.69 -1349.33 -778.76zm3373.32 0l-1349.33 778.76 0 1207.69 1349.33 -778.77 0 -1207.68z"/>
   <filter id="saturation">
   </filter>
  </g>
 </g>
</svg>
