<?xml version="1.0" encoding="UTF-8"?>
<!DOCTYPE svg PUBLIC "-//W3C//DTD SVG 1.1//EN" "http://www.w3.org/Graphics/SVG/1.1/DTD/svg11.dtd">
<!-- Creator: CorelDRAW 2020 (64-Bit) -->
<svg xmlns="http://www.w3.org/2000/svg" xml:space="preserve" width="4.253in" height="0.356945in" version="1.1" style="shape-rendering:geometricPrecision; text-rendering:geometricPrecision; image-rendering:optimizeQuality; fill-rule:evenodd; clip-rule:evenodd"
viewBox="0 0 2868.3 240.73"
 xmlns:xlink="http://www.w3.org/1999/xlink"
 xmlns:xodm="http://www.corel.com/coreldraw/odm/2003">
 <defs>
  <style type="text/css">
   <![CDATA[
    .str0 {stroke:#536D82;stroke-width:9.37;stroke-miterlimit:2.61313}
    .str1 {stroke:#536D82;stroke-width:14.05;stroke-linecap:round;stroke-linejoin:round;stroke-miterlimit:2.61313}
    .fil1 {fill:none}
    .fil0 {fill:none;fill-rule:nonzero}
    .fil2 {fill:url(#id1);fill-rule:nonzero}
   ]]>
  </style>
   <clipPath id="id0" style="clip-rule:nonzero">
    <path d="M157.31 187.94l-35.56 0 0 -64.11 -65.19 0 0 64.11 -35.48 0 0 -157.4 35.48 0 0 62.8 65.19 0 0 -62.8 35.56 0 0 157.4zm50.17 -130.2c-5.84,0 -10.64,-1.72 -14.35,-5.21 -3.75,-3.48 -5.62,-7.72 -5.62,-12.78 0,-5.21 1.87,-9.44 5.62,-12.74 3.71,-3.3 8.5,-4.95 14.35,-4.95 5.96,0 10.75,1.65 14.46,4.95 3.67,3.3 5.55,7.53 5.55,12.74 0,5.25 -1.87,9.59 -5.55,12.97 -3.71,3.33 -8.5,5.02 -14.46,5.02zm17.12 130.2l-34.66 0 0 -112.4 34.66 0 0 112.4zm159.16 -1.31c-5.13,2.7 -12.85,4.05 -23.16,4.05 -24.43,0 -36.68,-12.7 -36.68,-38.07l0 -51.48 -18.21 0 0 -25.59 18.21 0 0 -24.24 34.58 -9.89 0 34.13 25.25 0 0 25.59 -25.25 0 0 45.45c0,11.69 4.65,17.53 13.94,17.53 3.67,0 7.46,-1.05 11.32,-3.18l0 25.7zm127.47 1.31l-34.58 0 0 -63.88c0,-16.48 -6,-24.69 -18.02,-24.69 -6.14,0 -11.13,2.29 -14.91,6.9 -3.82,4.61 -5.73,10.49 -5.73,17.57l0 64.11 -34.66 0 0 -166.4 34.66 0 0 70.67 0.45 0c8.5,-12.93 20.01,-19.41 34.58,-19.41 25.48,0 38.22,15.36 38.22,46.09l0 69.05zm128.4 -46.31l-73.33 0c1.16,16.3 11.47,24.46 30.84,24.46 12.37,0 23.23,-2.92 32.6,-8.77l0 25.03c-10.38,5.55 -23.87,8.32 -40.5,8.32 -18.13,0 -32.22,-5.02 -42.26,-15.1 -10,-10.04 -15.03,-24.09 -15.03,-42.08 0,-18.66 5.4,-33.46 16.26,-44.36 10.83,-10.9 24.13,-16.34 39.94,-16.34 16.37,0 29.07,4.87 38.03,14.58 8.96,9.74 13.45,22.97 13.45,39.64l0 14.61zm-32.15 -21.32c0,-16.07 -6.52,-24.13 -19.56,-24.13 -5.55,0 -10.38,2.29 -14.43,6.89 -4.08,4.61 -6.52,10.38 -7.42,17.23l41.4 0zm126.12 -13.49c-4.2,-2.28 -9.07,-3.41 -14.61,-3.41 -7.53,0 -13.41,2.77 -17.69,8.28 -4.23,5.54 -6.37,13.04 -6.37,22.56l0 53.69 -34.66 0 0 -112.4 34.66 0 0 20.87 0.45 0c5.51,-15.25 15.36,-22.85 29.63,-22.85 3.67,0 6.52,0.45 8.58,1.31l0 31.96zm116.23 34.81l-73.33 0c1.16,16.3 11.47,24.46 30.84,24.46 12.37,0 23.23,-2.92 32.6,-8.77l0 25.03c-10.38,5.55 -23.87,8.32 -40.5,8.32 -18.13,0 -32.22,-5.02 -42.26,-15.1 -10,-10.04 -15.03,-24.09 -15.03,-42.08 0,-18.66 5.4,-33.46 16.26,-44.36 10.83,-10.9 24.13,-16.34 39.94,-16.34 16.37,0 29.07,4.87 38.03,14.58 8.96,9.74 13.45,22.97 13.45,39.64l0 14.61zm-32.15 -21.32c0,-16.07 -6.52,-24.13 -19.56,-24.13 -5.55,0 -10.38,2.29 -14.43,6.89 -4.08,4.61 -6.52,10.38 -7.42,17.23l41.4 0zm93.07 -89.77l-4.27 108.43 -28.1 0 -4.08 -108.43 36.46 0zm-18.02 159.91c-5.84,0 -10.68,-1.76 -14.46,-5.32 -3.82,-3.52 -5.73,-7.83 -5.73,-12.89 0,-5.28 1.95,-9.59 5.77,-12.96 3.86,-3.37 8.65,-5.02 14.42,-5.02 5.88,0 10.68,1.69 14.39,5.1 3.75,3.41 5.62,7.68 5.62,12.89 0,5.28 -1.87,9.63 -5.55,13.08 -3.71,3.41 -8.5,5.13 -14.46,5.13zm296.07 -2.51l-35.03 0 0 -94.19c0,-10.16 0.45,-21.4 1.31,-33.68l-0.86 0c-1.83,9.66 -3.48,16.6 -4.95,20.87l-36.87 107.01 -29 0 -37.54 -105.92c-1.01,-2.85 -2.66,-10.19 -4.95,-21.96l-0.97 0c0.94,15.51 1.42,29.11 1.42,40.84l0 87.04 -31.96 0 0 -157.4 51.93 0 32.19 93.3c2.55,7.46 4.42,14.95 5.58,22.52l0.67 0c1.95,-8.73 4.05,-16.3 6.26,-22.74l32.15 -93.07 50.62 0 0 157.4zm139.38 -112.4l-45.67 121.4c-10.98,29.19 -27.5,43.8 -49.61,43.8 -8.39,0 -15.32,-0.94 -20.76,-2.85l0 -27.65c4.64,2.7 9.63,4.05 15.06,4.05 8.92,0 15.14,-4.2 18.66,-12.63l5.92 -13.94 -45.67 -112.18 38.44 0 20.94 68.38c1.31,4.24 2.36,9.26 3.07,15.06l0.45 0c0.67,-4.27 1.87,-9.22 3.63,-14.84l21.17 -68.6 34.36 0zm184.53 112.4l-34.58 0 0 -62.46c0,-17.42 -6.22,-26.12 -18.66,-26.12 -5.99,0 -10.94,2.29 -14.8,6.9 -3.9,4.61 -5.85,10.49 -5.85,17.57l0 64.11 -34.66 0 0 -112.4 34.66 0 0 17.8 0.45 0c8.28,-13.71 20.31,-20.53 36.12,-20.53 24.88,0 37.32,15.44 37.32,46.31l0 68.83zm120.99 0l-32.82 0 0 -16.15 -0.45 0c-7.53,12.59 -18.7,18.88 -33.5,18.88 -10.9,0 -19.48,-3.07 -25.74,-9.25 -6.26,-6.18 -9.36,-14.46 -9.36,-24.77 0,-21.81 12.93,-34.4 38.74,-37.77l30.53 -4.05c0,-12.29 -6.67,-18.43 -20.01,-18.43 -13.38,0 -26.12,3.97 -38.18,11.95l0 -26.12c4.84,-2.51 11.43,-4.68 19.82,-6.59 8.36,-1.91 16,-2.85 22.89,-2.85 32.03,0 48.07,16 48.07,47.96l0 67.18zm-32.6 -45.67l0 -7.57 -20.42 2.62c-11.28,1.46 -16.9,6.56 -16.9,15.29 0,3.93 1.35,7.2 4.09,9.7 2.77,2.51 6.48,3.78 11.17,3.78 6.52,0 11.8,-2.25 15.92,-6.74 4.08,-4.5 6.14,-10.19 6.14,-17.09zm238.52 45.67l-34.58 0 0 -64.11c0,-16.34 -6,-24.47 -17.98,-24.47 -5.7,0 -10.34,2.43 -13.94,7.34 -3.6,4.91 -5.4,11.02 -5.4,18.32l0 62.91 -34.66 0 0 -64.78c0,-15.85 -5.92,-23.79 -17.69,-23.79 -5.92,0 -10.68,2.32 -14.2,7.01 -3.56,4.68 -5.36,11.05 -5.36,19.11l0 62.46 -34.66 0 0 -112.4 34.66 0 0 17.57 0.45 0c3.6,-6 8.62,-10.9 15.1,-14.65 6.48,-3.78 13.57,-5.66 21.24,-5.66 15.89,0 26.75,6.97 32.6,20.95 8.58,-13.98 21.13,-20.95 37.77,-20.95 24.43,0 36.64,15.06 36.64,45.23l0 69.91zm128.44 -46.31l-73.33 0c1.16,16.3 11.47,24.46 30.84,24.46 12.37,0 23.23,-2.92 32.6,-8.77l0 25.03c-10.38,5.55 -23.87,8.32 -40.5,8.32 -18.13,0 -32.22,-5.02 -42.26,-15.1 -10,-10.04 -15.03,-24.09 -15.03,-42.08 0,-18.66 5.4,-33.46 16.26,-44.36 10.83,-10.9 24.13,-16.34 39.94,-16.34 16.37,0 29.07,4.87 38.03,14.58 8.96,9.74 13.45,22.97 13.45,39.64l0 14.61zm-32.15 -21.32c0,-16.07 -6.52,-24.13 -19.56,-24.13 -5.55,0 -10.38,2.29 -14.43,6.89 -4.08,4.61 -6.52,10.38 -7.42,17.23l41.4 0zm132.33 -62.57c-5.84,0 -10.64,-1.72 -14.35,-5.21 -3.75,-3.48 -5.62,-7.72 -5.62,-12.78 0,-5.21 1.87,-9.44 5.62,-12.74 3.71,-3.3 8.5,-4.95 14.35,-4.95 5.96,0 10.75,1.65 14.46,4.95 3.67,3.3 5.55,7.53 5.55,12.74 0,5.25 -1.87,9.59 -5.55,12.97 -3.71,3.33 -8.5,5.02 -14.46,5.02zm17.12 130.2l-34.66 0 0 -112.4 34.66 0 0 112.4zm21.84 -2.96l0 -28.1c5.73,3.45 11.43,6 17.09,7.68 5.66,1.69 11.02,2.51 16.07,2.51 6.14,0 11.02,-0.82 14.54,-2.51 3.56,-1.69 5.32,-4.24 5.32,-7.68 0,-2.21 -0.79,-4.05 -2.4,-5.51 -1.61,-1.46 -3.67,-2.74 -6.22,-3.82 -2.51,-1.09 -5.28,-2.1 -8.28,-2.96 -3,-0.9 -5.88,-1.87 -8.66,-2.96 -4.46,-1.69 -8.39,-3.52 -11.8,-5.44 -3.41,-1.95 -6.26,-4.2 -8.58,-6.78 -2.28,-2.55 -4.05,-5.51 -5.24,-8.88 -1.2,-3.37 -1.84,-7.34 -1.84,-11.95 0,-6.3 1.39,-11.73 4.12,-16.26 2.73,-4.53 6.41,-8.24 10.98,-11.13 4.57,-2.88 9.82,-5.02 15.7,-6.37 5.88,-1.35 12.03,-2.02 18.4,-2.02 4.98,0 10,0.37 15.14,1.16 5.14,0.75 10.19,1.87 15.17,3.33l0 26.79c-4.42,-2.58 -9.1,-4.5 -14.13,-5.77 -5.02,-1.27 -9.93,-1.91 -14.76,-1.91 -2.29,0 -4.42,0.19 -6.41,0.6 -2.02,0.37 -3.82,0.97 -5.36,1.76 -1.54,0.75 -2.73,1.73 -3.6,2.96 -0.9,1.2 -1.31,2.59 -1.31,4.12 0,2.02 0.64,3.79 1.95,5.25 1.35,1.46 3.03,2.73 5.17,3.78 2.14,1.09 4.5,2.02 7.08,2.85 2.59,0.86 5.17,1.72 7.76,2.58 4.61,1.61 8.77,3.37 12.51,5.28 3.71,1.91 6.93,4.12 9.59,6.71 2.66,2.55 4.72,5.54 6.14,8.99 1.42,3.45 2.13,7.53 2.13,12.29 0,6.67 -1.42,12.37 -4.34,17.09 -2.89,4.72 -6.71,8.54 -11.5,11.5 -4.8,2.96 -10.34,5.13 -16.6,6.48 -6.26,1.35 -12.74,2.02 -19.48,2.02 -12.36,0 -23.79,-1.91 -34.36,-5.7zm171.68 2.96l0 -157.4 55.79 0c55.9,0 83.85,25.55 83.85,76.73 0,24.5 -7.64,44.06 -22.89,58.71 -15.25,14.65 -35.56,21.96 -60.96,21.96l-55.79 0zm35.48 -128.55l0 99.78 17.57 0c15.36,0 27.39,-4.61 36.16,-13.83 8.73,-9.22 13.11,-21.77 13.11,-37.66 0,-14.99 -4.35,-26.79 -13,-35.37 -8.69,-8.62 -20.83,-12.93 -36.49,-12.93l-17.35 0zm220.42 128.55l-32.82 0 0 -16.15 -0.45 0c-7.53,12.59 -18.7,18.88 -33.5,18.88 -10.9,0 -19.48,-3.07 -25.74,-9.25 -6.26,-6.18 -9.36,-14.46 -9.36,-24.77 0,-21.81 12.93,-34.4 38.74,-37.77l30.53 -4.05c0,-12.29 -6.67,-18.43 -20.01,-18.43 -13.38,0 -26.12,3.97 -38.18,11.95l0 -26.12c4.84,-2.51 11.43,-4.68 19.82,-6.59 8.36,-1.91 16,-2.85 22.89,-2.85 32.03,0 48.07,16 48.07,47.96l0 67.18zm-32.6 -45.67l0 -7.57 -20.42 2.62c-11.28,1.46 -16.9,6.56 -16.9,15.29 0,3.93 1.35,7.2 4.09,9.7 2.77,2.51 6.48,3.78 11.17,3.78 6.52,0 11.8,-2.25 15.92,-6.74 4.08,-4.5 6.14,-10.19 6.14,-17.09zm168.6 45.67l-34.58 0 0 -62.46c0,-17.42 -6.22,-26.12 -18.66,-26.12 -5.99,0 -10.94,2.29 -14.8,6.9 -3.9,4.61 -5.85,10.49 -5.85,17.57l0 64.11 -34.66 0 0 -112.4 34.66 0 0 17.8 0.45 0c8.28,-13.71 20.31,-20.53 36.12,-20.53 24.88,0 37.32,15.44 37.32,46.31l0 68.83zm45 -130.2c-5.84,0 -10.64,-1.72 -14.35,-5.21 -3.75,-3.48 -5.62,-7.72 -5.62,-12.78 0,-5.21 1.87,-9.44 5.62,-12.74 3.71,-3.3 8.5,-4.95 14.35,-4.95 5.96,0 10.75,1.65 14.46,4.95 3.67,3.3 5.55,7.53 5.55,12.74 0,5.25 -1.87,9.59 -5.55,12.97 -3.71,3.33 -8.5,5.02 -14.46,5.02zm17.12 130.2l-34.66 0 0 -112.4 34.66 0 0 112.4zm63.88 0l-34.66 0 0 -166.4 34.66 0 0 166.4zm69.5 -157.4l-4.27 108.43 -28.1 0 -4.08 -108.43 36.46 0zm-18.02 159.91c-5.84,0 -10.68,-1.76 -14.46,-5.32 -3.82,-3.52 -5.73,-7.83 -5.73,-12.89 0,-5.28 1.95,-9.59 5.77,-12.96 3.86,-3.37 8.65,-5.02 14.42,-5.02 5.88,0 10.68,1.69 14.39,5.1 3.75,3.41 5.62,7.68 5.62,12.89 0,5.28 -1.87,9.63 -5.55,13.08 -3.71,3.41 -8.5,5.13 -14.46,5.13z"/>
   </clipPath>
  <linearGradient id="id1" gradientUnits="userSpaceOnUse" x1="1401.92" y1="331.98" x2="1459.35" y2="-98.74">
   <stop offset="0" style="stop-opacity:1; stop-color:#728796"/>
   <stop offset="0.301961" style="stop-opacity:1; stop-color:#A0ACB5"/>
   <stop offset="0.6" style="stop-opacity:1; stop-color:#80929E"/>
   <stop offset="1" style="stop-opacity:1; stop-color:#C0C7CC"/>
  </linearGradient>
 </defs>
 <g id="Layer_x0020_1">
  <metadata id="CorelCorpID_0Corel-Layer"/>
  <path class="fil0" d="M157.31 187.94l-35.56 0 0 -64.11 -65.19 0 0 64.11 -35.48 0 0 -157.4 35.48 0 0 62.8 65.19 0 0 -62.8 35.56 0 0 157.4zm50.17 -130.2c-5.84,0 -10.64,-1.72 -14.35,-5.21 -3.75,-3.48 -5.62,-7.72 -5.62,-12.78 0,-5.21 1.87,-9.44 5.62,-12.74 3.71,-3.3 8.5,-4.95 14.35,-4.95 5.96,0 10.75,1.65 14.46,4.95 3.67,3.3 5.55,7.53 5.55,12.74 0,5.25 -1.87,9.59 -5.55,12.97 -3.71,3.33 -8.5,5.02 -14.46,5.02zm17.12 130.2l-34.66 0 0 -112.4 34.66 0 0 112.4zm159.16 -1.31c-5.13,2.7 -12.85,4.05 -23.16,4.05 -24.43,0 -36.68,-12.7 -36.68,-38.07l0 -51.48 -18.21 0 0 -25.59 18.21 0 0 -24.24 34.58 -9.89 0 34.13 25.25 0 0 25.59 -25.25 0 0 45.45c0,11.69 4.65,17.53 13.94,17.53 3.67,0 7.46,-1.05 11.32,-3.18l0 25.7zm127.47 1.31l-34.58 0 0 -63.88c0,-16.48 -6,-24.69 -18.02,-24.69 -6.14,0 -11.13,2.29 -14.91,6.9 -3.82,4.61 -5.73,10.49 -5.73,17.57l0 64.11 -34.66 0 0 -166.4 34.66 0 0 70.67 0.45 0c8.5,-12.93 20.01,-19.41 34.58,-19.41 25.48,0 38.22,15.36 38.22,46.09l0 69.05zm128.4 -46.31l-73.33 0c1.16,16.3 11.47,24.46 30.84,24.46 12.37,0 23.23,-2.92 32.6,-8.77l0 25.03c-10.38,5.55 -23.87,8.32 -40.5,8.32 -18.13,0 -32.22,-5.02 -42.26,-15.1 -10,-10.04 -15.03,-24.09 -15.03,-42.08 0,-18.66 5.4,-33.46 16.26,-44.36 10.83,-10.9 24.13,-16.34 39.94,-16.34 16.37,0 29.07,4.87 38.03,14.58 8.96,9.74 13.45,22.97 13.45,39.64l0 14.61zm-32.15 -21.32c0,-16.07 -6.52,-24.13 -19.56,-24.13 -5.55,0 -10.38,2.29 -14.43,6.89 -4.08,4.61 -6.52,10.38 -7.42,17.23l41.4 0zm126.12 -13.49c-4.2,-2.28 -9.07,-3.41 -14.61,-3.41 -7.53,0 -13.41,2.77 -17.69,8.28 -4.23,5.54 -6.37,13.04 -6.37,22.56l0 53.69 -34.66 0 0 -112.4 34.66 0 0 20.87 0.45 0c5.51,-15.25 15.36,-22.85 29.63,-22.85 3.67,0 6.52,0.45 8.58,1.31l0 31.96zm116.23 34.81l-73.33 0c1.16,16.3 11.47,24.46 30.84,24.46 12.37,0 23.23,-2.92 32.6,-8.77l0 25.03c-10.38,5.55 -23.87,8.32 -40.5,8.32 -18.13,0 -32.22,-5.02 -42.26,-15.1 -10,-10.04 -15.03,-24.09 -15.03,-42.08 0,-18.66 5.4,-33.46 16.26,-44.36 10.83,-10.9 24.13,-16.34 39.94,-16.34 16.37,0 29.07,4.87 38.03,14.58 8.96,9.74 13.45,22.97 13.45,39.64l0 14.61zm-32.15 -21.32c0,-16.07 -6.52,-24.13 -19.56,-24.13 -5.55,0 -10.38,2.29 -14.43,6.89 -4.08,4.61 -6.52,10.38 -7.42,17.23l41.4 0zm93.07 -89.77l-4.27 108.43 -28.1 0 -4.08 -108.43 36.46 0zm-18.02 159.91c-5.84,0 -10.68,-1.76 -14.46,-5.32 -3.82,-3.52 -5.73,-7.83 -5.73,-12.89 0,-5.28 1.95,-9.59 5.77,-12.96 3.86,-3.37 8.65,-5.02 14.42,-5.02 5.88,0 10.68,1.69 14.39,5.1 3.75,3.41 5.62,7.68 5.62,12.89 0,5.28 -1.87,9.63 -5.55,13.08 -3.71,3.41 -8.5,5.13 -14.46,5.13zm296.07 -2.51l-35.03 0 0 -94.19c0,-10.16 0.45,-21.4 1.31,-33.68l-0.86 0c-1.83,9.66 -3.48,16.6 -4.95,20.87l-36.87 107.01 -29 0 -37.54 -105.92c-1.01,-2.85 -2.66,-10.19 -4.95,-21.96l-0.97 0c0.94,15.51 1.42,29.11 1.42,40.84l0 87.04 -31.96 0 0 -157.4 51.93 0 32.19 93.3c2.55,7.46 4.42,14.95 5.58,22.52l0.67 0c1.95,-8.73 4.05,-16.3 6.26,-22.74l32.15 -93.07 50.62 0 0 157.4zm139.38 -112.4l-45.67 121.4c-10.98,29.19 -27.5,43.8 -49.61,43.8 -8.39,0 -15.32,-0.94 -20.76,-2.85l0 -27.65c4.64,2.7 9.63,4.05 15.06,4.05 8.92,0 15.14,-4.2 18.66,-12.63l5.92 -13.94 -45.67 -112.18 38.44 0 20.94 68.38c1.31,4.24 2.36,9.26 3.07,15.06l0.45 0c0.67,-4.27 1.87,-9.22 3.63,-14.84l21.17 -68.6 34.36 0zm184.53 112.4l-34.58 0 0 -62.46c0,-17.42 -6.22,-26.12 -18.66,-26.12 -5.99,0 -10.94,2.29 -14.8,6.9 -3.9,4.61 -5.85,10.49 -5.85,17.57l0 64.11 -34.66 0 0 -112.4 34.66 0 0 17.8 0.45 0c8.28,-13.71 20.31,-20.53 36.12,-20.53 24.88,0 37.32,15.44 37.32,46.31l0 68.83zm120.99 0l-32.82 0 0 -16.15 -0.45 0c-7.53,12.59 -18.7,18.88 -33.5,18.88 -10.9,0 -19.48,-3.07 -25.74,-9.25 -6.26,-6.18 -9.36,-14.46 -9.36,-24.77 0,-21.81 12.93,-34.4 38.74,-37.77l30.53 -4.05c0,-12.29 -6.67,-18.43 -20.01,-18.43 -13.38,0 -26.12,3.97 -38.18,11.95l0 -26.12c4.84,-2.51 11.43,-4.68 19.82,-6.59 8.36,-1.91 16,-2.85 22.89,-2.85 32.03,0 48.07,16 48.07,47.96l0 67.18zm-32.6 -45.67l0 -7.57 -20.42 2.62c-11.28,1.46 -16.9,6.56 -16.9,15.29 0,3.93 1.35,7.2 4.09,9.7 2.77,2.51 6.48,3.78 11.17,3.78 6.52,0 11.8,-2.25 15.92,-6.74 4.08,-4.5 6.14,-10.19 6.14,-17.09zm238.52 45.67l-34.58 0 0 -64.11c0,-16.34 -6,-24.47 -17.98,-24.47 -5.7,0 -10.34,2.43 -13.94,7.34 -3.6,4.91 -5.4,11.02 -5.4,18.32l0 62.91 -34.66 0 0 -64.78c0,-15.85 -5.92,-23.79 -17.69,-23.79 -5.92,0 -10.68,2.32 -14.2,7.01 -3.56,4.68 -5.36,11.05 -5.36,19.11l0 62.46 -34.66 0 0 -112.4 34.66 0 0 17.57 0.45 0c3.6,-6 8.62,-10.9 15.1,-14.65 6.48,-3.78 13.57,-5.66 21.24,-5.66 15.89,0 26.75,6.97 32.6,20.95 8.58,-13.98 21.13,-20.95 37.77,-20.95 24.43,0 36.64,15.06 36.64,45.23l0 69.91zm128.44 -46.31l-73.33 0c1.16,16.3 11.47,24.46 30.84,24.46 12.37,0 23.23,-2.92 32.6,-8.77l0 25.03c-10.38,5.55 -23.87,8.32 -40.5,8.32 -18.13,0 -32.22,-5.02 -42.26,-15.1 -10,-10.04 -15.03,-24.09 -15.03,-42.08 0,-18.66 5.4,-33.46 16.26,-44.36 10.83,-10.9 24.13,-16.34 39.94,-16.34 16.37,0 29.07,4.87 38.03,14.58 8.96,9.74 13.45,22.97 13.45,39.64l0 14.61zm-32.15 -21.32c0,-16.07 -6.52,-24.13 -19.56,-24.13 -5.55,0 -10.38,2.29 -14.43,6.89 -4.08,4.61 -6.52,10.38 -7.42,17.23l41.4 0zm132.33 -62.57c-5.84,0 -10.64,-1.72 -14.35,-5.21 -3.75,-3.48 -5.62,-7.72 -5.62,-12.78 0,-5.21 1.87,-9.44 5.62,-12.74 3.71,-3.3 8.5,-4.95 14.35,-4.95 5.96,0 10.75,1.65 14.46,4.95 3.67,3.3 5.55,7.53 5.55,12.74 0,5.25 -1.87,9.59 -5.55,12.97 -3.71,3.33 -8.5,5.02 -14.46,5.02zm17.12 130.2l-34.66 0 0 -112.4 34.66 0 0 112.4zm21.84 -2.96l0 -28.1c5.73,3.45 11.43,6 17.09,7.68 5.66,1.69 11.02,2.51 16.07,2.51 6.14,0 11.02,-0.82 14.54,-2.51 3.56,-1.69 5.32,-4.24 5.32,-7.68 0,-2.21 -0.79,-4.05 -2.4,-5.51 -1.61,-1.46 -3.67,-2.74 -6.22,-3.82 -2.51,-1.09 -5.28,-2.1 -8.28,-2.96 -3,-0.9 -5.88,-1.87 -8.66,-2.96 -4.46,-1.69 -8.39,-3.52 -11.8,-5.44 -3.41,-1.95 -6.26,-4.2 -8.58,-6.78 -2.28,-2.55 -4.05,-5.51 -5.24,-8.88 -1.2,-3.37 -1.84,-7.34 -1.84,-11.95 0,-6.3 1.39,-11.73 4.12,-16.26 2.73,-4.53 6.41,-8.24 10.98,-11.13 4.57,-2.88 9.82,-5.02 15.7,-6.37 5.88,-1.35 12.03,-2.02 18.4,-2.02 4.98,0 10,0.37 15.14,1.16 5.14,0.75 10.19,1.87 15.17,3.33l0 26.79c-4.42,-2.58 -9.1,-4.5 -14.13,-5.77 -5.02,-1.27 -9.93,-1.91 -14.76,-1.91 -2.29,0 -4.42,0.19 -6.41,0.6 -2.02,0.37 -3.82,0.97 -5.36,1.76 -1.54,0.75 -2.73,1.73 -3.6,2.96 -0.9,1.2 -1.31,2.59 -1.31,4.12 0,2.02 0.64,3.79 1.95,5.25 1.35,1.46 3.03,2.73 5.17,3.78 2.14,1.09 4.5,2.02 7.08,2.85 2.59,0.86 5.17,1.72 7.76,2.58 4.61,1.61 8.77,3.37 12.51,5.28 3.71,1.91 6.93,4.12 9.59,6.71 2.66,2.55 4.72,5.54 6.14,8.99 1.42,3.45 2.13,7.53 2.13,12.29 0,6.67 -1.42,12.37 -4.34,17.09 -2.89,4.72 -6.71,8.54 -11.5,11.5 -4.8,2.96 -10.34,5.13 -16.6,6.48 -6.26,1.35 -12.74,2.02 -19.48,2.02 -12.36,0 -23.79,-1.91 -34.36,-5.7zm171.68 2.96l0 -157.4 55.79 0c55.9,0 83.85,25.55 83.85,76.73 0,24.5 -7.64,44.06 -22.89,58.71 -15.25,14.65 -35.56,21.96 -60.96,21.96l-55.79 0zm35.48 -128.55l0 99.78 17.57 0c15.36,0 27.39,-4.61 36.16,-13.83 8.73,-9.22 13.11,-21.77 13.11,-37.66 0,-14.99 -4.35,-26.79 -13,-35.37 -8.69,-8.62 -20.83,-12.93 -36.49,-12.93l-17.35 0zm220.42 128.55l-32.82 0 0 -16.15 -0.45 0c-7.53,12.59 -18.7,18.88 -33.5,18.88 -10.9,0 -19.48,-3.07 -25.74,-9.25 -6.26,-6.18 -9.36,-14.46 -9.36,-24.77 0,-21.81 12.93,-34.4 38.74,-37.77l30.53 -4.05c0,-12.29 -6.67,-18.43 -20.01,-18.43 -13.38,0 -26.12,3.97 -38.18,11.95l0 -26.12c4.84,-2.51 11.43,-4.68 19.82,-6.59 8.36,-1.91 16,-2.85 22.89,-2.85 32.03,0 48.07,16 48.07,47.96l0 67.18zm-32.6 -45.67l0 -7.57 -20.42 2.62c-11.28,1.46 -16.9,6.56 -16.9,15.29 0,3.93 1.35,7.2 4.09,9.7 2.77,2.51 6.48,3.78 11.17,3.78 6.52,0 11.8,-2.25 15.92,-6.74 4.08,-4.5 6.14,-10.19 6.14,-17.09zm168.6 45.67l-34.58 0 0 -62.46c0,-17.42 -6.22,-26.12 -18.66,-26.12 -5.99,0 -10.94,2.29 -14.8,6.9 -3.9,4.61 -5.85,10.49 -5.85,17.57l0 64.11 -34.66 0 0 -112.4 34.66 0 0 17.8 0.45 0c8.28,-13.71 20.31,-20.53 36.12,-20.53 24.88,0 37.32,15.44 37.32,46.31l0 68.83zm45 -130.2c-5.84,0 -10.64,-1.72 -14.35,-5.21 -3.75,-3.48 -5.62,-7.72 -5.62,-12.78 0,-5.21 1.87,-9.44 5.62,-12.74 3.71,-3.3 8.5,-4.95 14.35,-4.95 5.96,0 10.75,1.65 14.46,4.95 3.67,3.3 5.55,7.53 5.55,12.74 0,5.25 -1.87,9.59 -5.55,12.97 -3.71,3.33 -8.5,5.02 -14.46,5.02zm17.12 130.2l-34.66 0 0 -112.4 34.66 0 0 112.4zm63.88 0l-34.66 0 0 -166.4 34.66 0 0 166.4zm69.5 -157.4l-4.27 108.43 -28.1 0 -4.08 -108.43 36.46 0zm-18.02 159.91c-5.84,0 -10.68,-1.76 -14.46,-5.32 -3.82,-3.52 -5.73,-7.83 -5.73,-12.89 0,-5.28 1.95,-9.59 5.77,-12.96 3.86,-3.37 8.65,-5.02 14.42,-5.02 5.88,0 10.68,1.69 14.39,5.1 3.75,3.41 5.62,7.68 5.62,12.89 0,5.28 -1.87,9.63 -5.55,13.08 -3.71,3.41 -8.5,5.13 -14.46,5.13z"/>
  <g>
  </g>
  <g style="clip-path:url(#id0)">
   <g>
    <path id="1" class="fil1 str0" d="M-1046.91 -849.6l1132.46 1961.48m2718.28 -1961.48l1132.46 1961.48m-1152.14 -1961.48l1132.46 1961.48m-1152.62 -1961.48l1132.46 1961.48m-1152.62 -1961.48l1132.46 1961.48m-1172.78 -1961.48l1132.46 1961.48m-1172.78 -1961.48l1132.46 1961.48m-1071.97 -1961.48l1132.46 1961.48m-1172.78 -1961.48l1132.46 1961.48m-1172.78 -1961.48l1132.46 1961.48m-1152.62 -1961.48l1132.46 1961.48m-1172.78 -1961.48l1132.46 1961.48m-1172.78 -1961.48l1132.46 1961.48m-1071.97 -1961.48l1132.46 1961.48m-1172.78 -1961.48l1132.46 1961.48m-1172.78 -1961.48l1132.46 1961.48m-1152.62 -1961.48l1132.46 1961.48m-1172.78 -1961.48l1132.46 1961.48m-1192.95 -1961.48l1132.46 1961.48m-1051.8 -1961.48l1132.46 1961.48m-1192.95 -1961.48l1132.46 1961.48m-1192.95 -1961.48l1132.46 1961.48m-1172.78 -1961.48l1132.46 1961.48m-1172.78 -1961.48l1132.46 1961.48m-1192.95 -1961.48l1132.46 1961.48m-910.66 -1961.48l1132.46 1961.48m-1192.95 -1961.48l1132.46 1961.48m-1172.78 -1961.48l1132.46 1961.48m-1172.78 -1961.48l1132.46 1961.48m-1192.95 -1961.48l1132.46 1961.48m-1192.95 -1961.48l1132.46 1961.48m-1051.8 -1961.48l1132.46 1961.48m-1192.95 -1961.48l1132.46 1961.48m-1172.78 -1961.48l1132.46 1961.48m-1152.62 -1961.48l1132.46 1961.48m-1172.78 -1961.48l1132.46 1961.48m-1172.78 -1961.48l1132.46 1961.48m-1071.97 -1961.48l1132.46 1961.48m-1172.78 -1961.48l1132.46 1961.48m-1172.78 -1961.48l1132.46 1961.48m-1152.62 -1961.48l1132.46 1961.48m-1172.78 -1961.48l1132.46 1961.48m-1172.78 -1961.48l1132.46 1961.48m-1071.97 -1961.48l1132.46 1961.48m-1172.78 -1961.48l1132.46 1961.48m-1172.78 -1961.48l1132.46 1961.48m-1172.78 -1961.48l1132.46 1961.48m-1172.78 -1961.48l1132.46 1961.48m-1172.78 -1961.48l1132.46 1961.48m-1031.64 -1961.48l1132.46 1961.48m-1172.78 -1961.48l1132.46 1961.48m-1172.78 -1961.48l1132.46 1961.48m-1172.78 -1961.48l1132.46 1961.48m-1172.78 -1961.48l1132.46 1961.48m-1172.78 -1961.48l1132.46 1961.48m-1071.97 -1961.48l1132.46 1961.48m-1172.78 -1961.48l1132.46 1961.48m-1172.78 -1961.48l1132.46 1961.48m-1172.78 -1961.48l1132.46 1961.48m-1213.11 -1961.48l1132.46 1961.48m-1213.11 -1961.48l1132.46 1961.48m-1011.48 -1961.48l1132.46 1961.48m-1213.11 -1961.48l1132.46 1961.48m-1213.11 -1961.48l1132.46 1961.48m-1172.78 -1961.48l1132.46 1961.48m-1213.11 -1961.48l1132.46 1961.48m-1253.44 -1961.48l1132.46 1961.48m-971.15 -1961.48l1132.46 1961.48m-1253.44 -1961.48l1132.46 1961.48m-1253.44 -1961.48l1132.46 1961.48m-1213.11 -1961.48l1132.46 1961.48m-1213.11 -1961.48l1132.46 1961.48m-1253.44 -1961.48l1132.46 1961.48m-688.86 -1961.48l1132.46 1961.48m-1253.44 -1961.48l1132.46 1961.48m-1213.11 -1961.48l1132.46 1961.48m-1213.11 -1961.48l1132.46 1961.48m-1253.44 -1961.48l1132.46 1961.48m-1253.44 -1961.48l1132.46 1961.48m-971.15 -1961.48l1132.46 1961.48m-1253.44 -1961.48l1132.46 1961.48m-1213.11 -1961.48l1132.46 1961.48m-1172.78 -1961.48l1132.46 1961.48m-1213.11 -1961.48l1132.46 1961.48m-1213.11 -1961.48l1132.46 1961.48m-1011.48 -1961.48l1132.46 1961.48m-1213.11 -1961.48l1132.46 1961.48m-1213.11 -1961.48l1132.46 1961.48m-1172.78 -1961.48l1132.46 1961.48m-1213.11 -1961.48l1132.46 1961.48m-1213.11 -1961.48l1132.46 1961.48m-1011.48 -1961.48l1132.46 1961.48m-1213.11 -1961.48l1132.46 1961.48m-1213.11 -1961.48l1132.46 1961.48m-1172.78 -1961.48l1132.46 1961.48m-1172.78 -1961.48l1132.46 1961.48m-1172.78 -1961.48l1132.46 1961.48m420.13 -1961.48l1132.46 1961.48m-1172.78 -1961.48l1132.46 1961.48m-1172.78 -1961.48l1132.46 1961.48m-1172.78 -1961.48l1132.46 1961.48m-1213.11 -1961.48l1132.46 1961.48m-1213.11 -1961.48l1132.46 1961.48m-1011.48 -1961.48l1132.46 1961.48m-1213.11 -1961.48l1132.46 1961.48m-1213.11 -1961.48l1132.46 1961.48m-1172.78 -1961.48l1132.46 1961.48m-1213.11 -1961.48l1132.46 1961.48m-1213.11 -1961.48l1132.46 1961.48m-1011.48 -1961.48l1132.46 1961.48m-1213.11 -1961.48l1132.46 1961.48m-1213.11 -1961.48l1132.46 1961.48m-1172.78 -1961.48l1132.46 1961.48m-1213.11 -1961.48l1132.46 1961.48m-1253.44 -1961.48l1132.46 1961.48m-971.15 -1961.48l1132.46 1961.48m-1253.44 -1961.48l1132.46 1961.48m-1253.44 -1961.48l1132.46 1961.48m-1213.11 -1961.48l1132.46 1961.48m-1213.11 -1961.48l1132.46 1961.48m-1253.44 -1961.48l1132.46 1961.48m-688.86 -1961.48l1132.46 1961.48m-1253.44 -1961.48l1132.46 1961.48m-1213.11 -1961.48l1132.46 1961.48m-1213.11 -1961.48l1132.46 1961.48m-1253.44 -1961.48l1132.46 1961.48m-1253.44 -1961.48l1132.46 1961.48m-971.15 -1961.48l1132.46 1961.48m-1253.44 -1961.48l1132.46 1961.48m-1213.11 -1961.48l1132.46 1961.48m-1172.78 -1961.48l1132.46 1961.48m-1213.11 -1961.48l1132.46 1961.48m-1213.11 -1961.48l1132.46 1961.48m-1011.48 -1961.48l1132.46 1961.48m-1213.11 -1961.48l1132.46 1961.48m-1213.11 -1961.48l1132.46 1961.48m-1172.78 -1961.48l1132.46 1961.48m-1172.78 -1961.48l1132.46 1961.48m-1172.78 -1961.48l1132.46 1961.48m-1071.97 -1961.48l1132.46 1961.48m-1172.78 -1961.48l1132.46 1961.48m-1172.78 -1961.48l1132.46 1961.48m-1172.78 -1961.48l1132.46 1961.48m-1172.78 -1961.48l1132.46 1961.48m-1172.78 -1961.48l1132.46 1961.48m-1031.64 -1961.48l1132.46 1961.48m-1172.78 -1961.48l1132.46 1961.48m-1172.78 -1961.48l1132.46 1961.48m-1172.78 -1961.48l1132.46 1961.48m-1172.78 -1961.48l1132.46 1961.48m-1172.78 -1961.48l1132.46 1961.48m-1071.97 -1961.48l1132.46 1961.48m-1172.78 -1961.48l1132.46 1961.48m-1172.78 -1961.48l1132.46 1961.48m-1152.62 -1961.48l1132.46 1961.48m-1172.78 -1961.48l1132.46 1961.48m-1172.78 -1961.48l1132.46 1961.48m-1071.97 -1961.48l1132.46 1961.48m-1172.78 -1961.48l1132.46 1961.48m-1172.78 -1961.48l1132.46 1961.48m-1152.62 -1961.48l1132.46 1961.48m-1172.78 -1961.48l1132.46 1961.48m-1192.95 -1961.48l1132.46 1961.48m-1051.8 -1961.48l1132.46 1961.48m-1192.95 -1961.48l1132.46 1961.48m-1192.95 -1961.48l1132.46 1961.48m-1172.78 -1961.48l1132.46 1961.48m-1172.78 -1961.48l1132.46 1961.48m-1192.95 -1961.48l1132.46 1961.48m-910.66 -1961.48l1132.46 1961.48m-1192.95 -1961.48l1132.46 1961.48m-1172.78 -1961.48l1132.46 1961.48m-1172.78 -1961.48l1132.46 1961.48m-1192.95 -1961.48l1132.46 1961.48m-1192.95 -1961.48l1132.46 1961.48m-1051.8 -1961.48l1132.46 1961.48m-1192.95 -1961.48l1132.46 1961.48m-1172.78 -1961.48l1132.46 1961.48m-1152.62 -1961.48l1132.46 1961.48m-1172.78 -1961.48l1132.46 1961.48m-1172.78 -1961.48l1132.46 1961.48m-1071.97 -1961.48l1132.46 1961.48m-1172.78 -1961.48l1132.46 1961.48m-1172.78 -1961.48l1132.46 1961.48m-1152.62 -1961.48l1132.46 1961.48m-1172.78 -1961.48l1132.46 1961.48m-1172.78 -1961.48l1132.46 1961.48m-1071.97 -1961.48l1132.46 1961.48m-1172.78 -1961.48l1132.46 1961.48m-1172.78 -1961.48l1132.46 1961.48m-1152.62 -1961.48l1132.46 1961.48m-1152.62 -1961.48l1132.46 1961.48"/>
   </g>
  </g>
  <g>
   <path class="fil0 str1" d="M143.26 173.42l-35.56 0 0 -64.11 -65.19 0 0 64.11 -35.48 0 0 -157.4 35.48 0 0 62.8 65.19 0 0 -62.8 35.56 0 0 157.4zm50.17 -130.2c-5.84,0 -10.64,-1.72 -14.35,-5.21 -3.75,-3.48 -5.62,-7.72 -5.62,-12.78 0,-5.21 1.87,-9.44 5.62,-12.74 3.71,-3.3 8.5,-4.95 14.35,-4.95 5.96,0 10.75,1.65 14.46,4.95 3.67,3.3 5.55,7.53 5.55,12.74 0,5.25 -1.87,9.59 -5.55,12.97 -3.71,3.33 -8.5,5.02 -14.46,5.02zm17.12 130.2l-34.66 0 0 -112.4 34.66 0 0 112.4zm159.16 -1.31c-5.13,2.7 -12.85,4.05 -23.16,4.05 -24.43,0 -36.68,-12.7 -36.68,-38.07l0 -51.48 -18.21 0 0 -25.59 18.21 0 0 -24.24 34.58 -9.89 0 34.13 25.25 0 0 25.59 -25.25 0 0 45.45c0,11.69 4.65,17.53 13.94,17.53 3.67,0 7.46,-1.05 11.32,-3.18l0 25.7zm127.47 1.31l-34.58 0 0 -63.88c0,-16.48 -6,-24.69 -18.02,-24.69 -6.14,0 -11.13,2.29 -14.91,6.9 -3.82,4.61 -5.73,10.49 -5.73,17.57l0 64.11 -34.66 0 0 -166.4 34.66 0 0 70.67 0.45 0c8.5,-12.93 20.01,-19.41 34.58,-19.41 25.48,0 38.22,15.36 38.22,46.09l0 69.05zm128.4 -46.31l-73.33 0c1.16,16.3 11.47,24.46 30.84,24.46 12.37,0 23.23,-2.92 32.6,-8.77l0 25.03c-10.38,5.55 -23.87,8.32 -40.5,8.32 -18.13,0 -32.22,-5.02 -42.26,-15.1 -10,-10.04 -15.03,-24.09 -15.03,-42.08 0,-18.66 5.4,-33.46 16.26,-44.36 10.83,-10.9 24.13,-16.34 39.94,-16.34 16.37,0 29.07,4.87 38.03,14.58 8.96,9.74 13.45,22.97 13.45,39.64l0 14.61zm-32.15 -21.32c0,-16.07 -6.52,-24.13 -19.56,-24.13 -5.55,0 -10.38,2.29 -14.43,6.89 -4.08,4.61 -6.52,10.38 -7.42,17.23l41.4 0zm126.12 -13.49c-4.2,-2.28 -9.07,-3.41 -14.61,-3.41 -7.53,0 -13.41,2.77 -17.69,8.28 -4.23,5.54 -6.37,13.04 -6.37,22.56l0 53.69 -34.66 0 0 -112.4 34.66 0 0 20.87 0.45 0c5.51,-15.25 15.36,-22.85 29.63,-22.85 3.67,0 6.52,0.45 8.58,1.31l0 31.96zm116.23 34.81l-73.33 0c1.16,16.3 11.47,24.46 30.84,24.46 12.37,0 23.23,-2.92 32.6,-8.77l0 25.03c-10.38,5.55 -23.87,8.32 -40.5,8.32 -18.13,0 -32.22,-5.02 -42.26,-15.1 -10,-10.04 -15.03,-24.09 -15.03,-42.08 0,-18.66 5.4,-33.46 16.26,-44.36 10.83,-10.9 24.13,-16.34 39.94,-16.34 16.37,0 29.07,4.87 38.03,14.58 8.96,9.74 13.45,22.97 13.45,39.64l0 14.61zm-32.15 -21.32c0,-16.07 -6.52,-24.13 -19.56,-24.13 -5.55,0 -10.38,2.29 -14.43,6.89 -4.08,4.61 -6.52,10.38 -7.42,17.23l41.4 0zm93.07 -89.77l-4.27 108.43 -28.1 0 -4.08 -108.43 36.46 0zm-18.02 159.91c-5.84,0 -10.68,-1.76 -14.46,-5.32 -3.82,-3.52 -5.73,-7.83 -5.73,-12.89 0,-5.28 1.95,-9.59 5.77,-12.96 3.86,-3.37 8.65,-5.02 14.42,-5.02 5.88,0 10.68,1.69 14.39,5.1 3.75,3.41 5.62,7.68 5.62,12.89 0,5.28 -1.87,9.63 -5.55,13.08 -3.71,3.41 -8.5,5.13 -14.46,5.13zm296.07 -2.51l-35.03 0 0 -94.19c0,-10.16 0.45,-21.4 1.31,-33.68l-0.86 0c-1.83,9.66 -3.48,16.6 -4.95,20.87l-36.87 107.01 -29 0 -37.54 -105.92c-1.01,-2.85 -2.66,-10.19 -4.95,-21.96l-0.97 0c0.94,15.51 1.42,29.11 1.42,40.84l0 87.04 -31.96 0 0 -157.4 51.93 0 32.19 93.3c2.55,7.46 4.42,14.95 5.58,22.52l0.67 0c1.95,-8.73 4.05,-16.3 6.26,-22.74l32.15 -93.07 50.62 0 0 157.4zm139.38 -112.4l-45.67 121.4c-10.98,29.19 -27.5,43.8 -49.61,43.8 -8.39,0 -15.32,-0.94 -20.76,-2.85l0 -27.65c4.64,2.7 9.63,4.05 15.06,4.05 8.92,0 15.14,-4.2 18.66,-12.63l5.92 -13.94 -45.67 -112.18 38.44 0 20.94 68.38c1.31,4.24 2.36,9.26 3.07,15.06l0.45 0c0.67,-4.27 1.87,-9.22 3.63,-14.84l21.17 -68.6 34.36 0zm184.53 112.4l-34.58 0 0 -62.46c0,-17.42 -6.22,-26.12 -18.66,-26.12 -5.99,0 -10.94,2.29 -14.8,6.9 -3.9,4.61 -5.85,10.49 -5.85,17.57l0 64.11 -34.66 0 0 -112.4 34.66 0 0 17.8 0.45 0c8.28,-13.71 20.31,-20.53 36.12,-20.53 24.88,0 37.32,15.44 37.32,46.31l0 68.83zm120.99 0l-32.82 0 0 -16.15 -0.45 0c-7.53,12.59 -18.7,18.88 -33.5,18.88 -10.9,0 -19.48,-3.07 -25.74,-9.25 -6.26,-6.18 -9.36,-14.46 -9.36,-24.77 0,-21.81 12.93,-34.4 38.74,-37.77l30.53 -4.05c0,-12.29 -6.67,-18.43 -20.01,-18.43 -13.38,0 -26.12,3.97 -38.18,11.95l0 -26.12c4.84,-2.51 11.43,-4.68 19.82,-6.59 8.36,-1.91 16,-2.85 22.89,-2.85 32.03,0 48.07,16 48.07,47.96l0 67.18zm-32.6 -45.67l0 -7.57 -20.42 2.62c-11.28,1.46 -16.9,6.56 -16.9,15.29 0,3.93 1.35,7.2 4.09,9.7 2.77,2.51 6.48,3.78 11.17,3.78 6.52,0 11.8,-2.25 15.92,-6.74 4.08,-4.5 6.14,-10.19 6.14,-17.09zm238.52 45.67l-34.58 0 0 -64.11c0,-16.34 -6,-24.47 -17.98,-24.47 -5.7,0 -10.34,2.43 -13.94,7.34 -3.6,4.91 -5.4,11.02 -5.4,18.32l0 62.91 -34.66 0 0 -64.78c0,-15.85 -5.92,-23.79 -17.69,-23.79 -5.92,0 -10.68,2.32 -14.2,7.01 -3.56,4.68 -5.36,11.05 -5.36,19.11l0 62.46 -34.66 0 0 -112.4 34.66 0 0 17.57 0.45 0c3.6,-6 8.62,-10.9 15.1,-14.65 6.48,-3.78 13.57,-5.66 21.24,-5.66 15.89,0 26.75,6.97 32.6,20.95 8.58,-13.98 21.13,-20.95 37.77,-20.95 24.43,0 36.64,15.06 36.64,45.23l0 69.91zm128.44 -46.31l-73.33 0c1.16,16.3 11.47,24.46 30.84,24.46 12.37,0 23.23,-2.92 32.6,-8.77l0 25.03c-10.38,5.55 -23.87,8.32 -40.5,8.32 -18.13,0 -32.22,-5.02 -42.26,-15.1 -10,-10.04 -15.03,-24.09 -15.03,-42.08 0,-18.66 5.4,-33.46 16.26,-44.36 10.83,-10.9 24.13,-16.34 39.94,-16.34 16.37,0 29.07,4.87 38.03,14.58 8.96,9.74 13.45,22.97 13.45,39.64l0 14.61zm-32.15 -21.32c0,-16.07 -6.52,-24.13 -19.56,-24.13 -5.55,0 -10.38,2.29 -14.43,6.89 -4.08,4.61 -6.52,10.38 -7.42,17.23l41.4 0zm132.33 -62.57c-5.84,0 -10.64,-1.72 -14.35,-5.21 -3.75,-3.48 -5.62,-7.72 -5.62,-12.78 0,-5.21 1.87,-9.44 5.62,-12.74 3.71,-3.3 8.5,-4.95 14.35,-4.95 5.96,0 10.75,1.65 14.46,4.95 3.67,3.3 5.55,7.53 5.55,12.74 0,5.25 -1.87,9.59 -5.55,12.97 -3.71,3.33 -8.5,5.02 -14.46,5.02zm17.12 130.2l-34.66 0 0 -112.4 34.66 0 0 112.4zm21.84 -2.96l0 -28.1c5.73,3.45 11.43,6 17.09,7.68 5.66,1.69 11.02,2.51 16.07,2.51 6.14,0 11.02,-0.82 14.54,-2.51 3.56,-1.69 5.32,-4.24 5.32,-7.68 0,-2.21 -0.79,-4.05 -2.4,-5.51 -1.61,-1.46 -3.67,-2.74 -6.22,-3.82 -2.51,-1.09 -5.28,-2.1 -8.28,-2.96 -3,-0.9 -5.88,-1.87 -8.66,-2.96 -4.46,-1.69 -8.39,-3.52 -11.8,-5.44 -3.41,-1.95 -6.26,-4.2 -8.58,-6.78 -2.28,-2.55 -4.05,-5.51 -5.24,-8.88 -1.2,-3.37 -1.84,-7.34 -1.84,-11.95 0,-6.3 1.39,-11.73 4.12,-16.26 2.73,-4.53 6.41,-8.24 10.98,-11.13 4.57,-2.88 9.82,-5.02 15.7,-6.37 5.88,-1.35 12.03,-2.02 18.4,-2.02 4.98,0 10,0.37 15.14,1.16 5.14,0.75 10.19,1.87 15.17,3.33l0 26.79c-4.42,-2.58 -9.1,-4.5 -14.13,-5.77 -5.02,-1.27 -9.93,-1.91 -14.76,-1.91 -2.29,0 -4.42,0.19 -6.41,0.6 -2.02,0.37 -3.82,0.97 -5.36,1.76 -1.54,0.75 -2.73,1.73 -3.6,2.96 -0.9,1.2 -1.31,2.59 -1.31,4.12 0,2.02 0.64,3.79 1.95,5.25 1.35,1.46 3.03,2.73 5.17,3.78 2.14,1.09 4.5,2.02 7.08,2.85 2.59,0.86 5.17,1.72 7.76,2.58 4.61,1.61 8.77,3.37 12.51,5.28 3.71,1.91 6.93,4.12 9.59,6.71 2.66,2.55 4.72,5.54 6.14,8.99 1.42,3.45 2.13,7.53 2.13,12.29 0,6.67 -1.42,12.37 -4.34,17.09 -2.89,4.72 -6.71,8.54 -11.5,11.5 -4.8,2.96 -10.34,5.13 -16.6,6.48 -6.26,1.35 -12.74,2.02 -19.48,2.02 -12.36,0 -23.79,-1.91 -34.36,-5.7zm171.68 2.96l0 -157.4 55.79 0c55.9,0 83.85,25.55 83.85,76.73 0,24.5 -7.64,44.06 -22.89,58.71 -15.25,14.65 -35.56,21.96 -60.96,21.96l-55.79 0zm35.48 -128.55l0 99.78 17.57 0c15.36,0 27.39,-4.61 36.16,-13.83 8.73,-9.22 13.11,-21.77 13.11,-37.66 0,-14.99 -4.35,-26.79 -13,-35.37 -8.69,-8.62 -20.83,-12.93 -36.49,-12.93l-17.35 0zm220.42 128.55l-32.82 0 0 -16.15 -0.45 0c-7.53,12.59 -18.7,18.88 -33.5,18.88 -10.9,0 -19.48,-3.07 -25.74,-9.25 -6.26,-6.18 -9.36,-14.46 -9.36,-24.77 0,-21.81 12.93,-34.4 38.74,-37.77l30.53 -4.05c0,-12.29 -6.67,-18.43 -20.01,-18.43 -13.38,0 -26.12,3.97 -38.18,11.95l0 -26.12c4.84,-2.51 11.43,-4.68 19.82,-6.59 8.36,-1.91 16,-2.85 22.89,-2.85 32.03,0 48.07,16 48.07,47.96l0 67.18zm-32.6 -45.67l0 -7.57 -20.42 2.62c-11.28,1.46 -16.9,6.56 -16.9,15.29 0,3.93 1.35,7.2 4.09,9.7 2.77,2.51 6.48,3.78 11.17,3.78 6.52,0 11.8,-2.25 15.92,-6.74 4.08,-4.5 6.14,-10.19 6.14,-17.09zm168.6 45.67l-34.58 0 0 -62.46c0,-17.42 -6.22,-26.12 -18.66,-26.12 -5.99,0 -10.94,2.29 -14.8,6.9 -3.9,4.61 -5.85,10.49 -5.85,17.57l0 64.11 -34.66 0 0 -112.4 34.66 0 0 17.8 0.45 0c8.28,-13.71 20.31,-20.53 36.12,-20.53 24.88,0 37.32,15.44 37.32,46.31l0 68.83zm45 -130.2c-5.84,0 -10.64,-1.72 -14.35,-5.21 -3.75,-3.48 -5.62,-7.72 -5.62,-12.78 0,-5.21 1.87,-9.44 5.62,-12.74 3.71,-3.3 8.5,-4.95 14.35,-4.95 5.96,0 10.75,1.65 14.46,4.95 3.67,3.3 5.55,7.53 5.55,12.74 0,5.25 -1.87,9.59 -5.55,12.97 -3.71,3.33 -8.5,5.02 -14.46,5.02zm17.12 130.2l-34.66 0 0 -112.4 34.66 0 0 112.4zm63.88 0l-34.66 0 0 -166.4 34.66 0 0 166.4zm69.5 -157.4l-4.27 108.43 -28.1 0 -4.08 -108.43 36.46 0zm-18.02 159.91c-5.84,0 -10.68,-1.76 -14.46,-5.32 -3.82,-3.52 -5.73,-7.83 -5.73,-12.89 0,-5.28 1.95,-9.59 5.77,-12.96 3.86,-3.37 8.65,-5.02 14.42,-5.02 5.88,0 10.68,1.69 14.39,5.1 3.75,3.41 5.62,7.68 5.62,12.89 0,5.28 -1.87,9.63 -5.55,13.08 -3.71,3.41 -8.5,5.13 -14.46,5.13z"/>
   <path id="1" class="fil2" d="M143.26 173.42l-35.56 0 0 -64.11 -65.19 0 0 64.11 -35.48 0 0 -157.4 35.48 0 0 62.8 65.19 0 0 -62.8 35.56 0 0 157.4zm50.17 -130.2c-5.84,0 -10.64,-1.72 -14.35,-5.21 -3.75,-3.48 -5.62,-7.72 -5.62,-12.78 0,-5.21 1.87,-9.44 5.62,-12.74 3.71,-3.3 8.5,-4.95 14.35,-4.95 5.96,0 10.75,1.65 14.46,4.95 3.67,3.3 5.55,7.53 5.55,12.74 0,5.25 -1.87,9.59 -5.55,12.97 -3.71,3.33 -8.5,5.02 -14.46,5.02zm17.12 130.2l-34.66 0 0 -112.4 34.66 0 0 112.4zm159.16 -1.31c-5.13,2.7 -12.85,4.05 -23.16,4.05 -24.43,0 -36.68,-12.7 -36.68,-38.07l0 -51.48 -18.21 0 0 -25.59 18.21 0 0 -24.24 34.58 -9.89 0 34.13 25.25 0 0 25.59 -25.25 0 0 45.45c0,11.69 4.65,17.53 13.94,17.53 3.67,0 7.46,-1.05 11.32,-3.18l0 25.7zm127.47 1.31l-34.58 0 0 -63.88c0,-16.48 -6,-24.69 -18.02,-24.69 -6.14,0 -11.13,2.29 -14.91,6.9 -3.82,4.61 -5.73,10.49 -5.73,17.57l0 64.11 -34.66 0 0 -166.4 34.66 0 0 70.67 0.45 0c8.5,-12.93 20.01,-19.41 34.58,-19.41 25.48,0 38.22,15.36 38.22,46.09l0 69.05zm128.4 -46.31l-73.33 0c1.16,16.3 11.47,24.46 30.84,24.46 12.37,0 23.23,-2.92 32.6,-8.77l0 25.03c-10.38,5.55 -23.87,8.32 -40.5,8.32 -18.13,0 -32.22,-5.02 -42.26,-15.1 -10,-10.04 -15.03,-24.09 -15.03,-42.08 0,-18.66 5.4,-33.46 16.26,-44.36 10.83,-10.9 24.13,-16.34 39.94,-16.34 16.37,0 29.07,4.87 38.03,14.58 8.96,9.74 13.45,22.97 13.45,39.64l0 14.61zm-32.15 -21.32c0,-16.07 -6.52,-24.13 -19.56,-24.13 -5.55,0 -10.38,2.29 -14.43,6.89 -4.08,4.61 -6.52,10.38 -7.42,17.23l41.4 0zm126.12 -13.49c-4.2,-2.28 -9.07,-3.41 -14.61,-3.41 -7.53,0 -13.41,2.77 -17.69,8.28 -4.23,5.54 -6.37,13.04 -6.37,22.56l0 53.69 -34.66 0 0 -112.4 34.66 0 0 20.87 0.45 0c5.51,-15.25 15.36,-22.85 29.63,-22.85 3.67,0 6.52,0.45 8.58,1.31l0 31.96zm116.23 34.81l-73.33 0c1.16,16.3 11.47,24.46 30.84,24.46 12.37,0 23.23,-2.92 32.6,-8.77l0 25.03c-10.38,5.55 -23.87,8.32 -40.5,8.32 -18.13,0 -32.22,-5.02 -42.26,-15.1 -10,-10.04 -15.03,-24.09 -15.03,-42.08 0,-18.66 5.4,-33.46 16.26,-44.36 10.83,-10.9 24.13,-16.34 39.94,-16.34 16.37,0 29.07,4.87 38.03,14.58 8.96,9.74 13.45,22.97 13.45,39.64l0 14.61zm-32.15 -21.32c0,-16.07 -6.52,-24.13 -19.56,-24.13 -5.55,0 -10.38,2.29 -14.43,6.89 -4.08,4.61 -6.52,10.38 -7.42,17.23l41.4 0zm93.07 -89.77l-4.27 108.43 -28.1 0 -4.08 -108.43 36.46 0zm-18.02 159.91c-5.84,0 -10.68,-1.76 -14.46,-5.32 -3.82,-3.52 -5.73,-7.83 -5.73,-12.89 0,-5.28 1.95,-9.59 5.77,-12.96 3.86,-3.37 8.65,-5.02 14.42,-5.02 5.88,0 10.68,1.69 14.39,5.1 3.75,3.41 5.62,7.68 5.62,12.89 0,5.28 -1.87,9.63 -5.55,13.08 -3.71,3.41 -8.5,5.13 -14.46,5.13zm296.07 -2.51l-35.03 0 0 -94.19c0,-10.16 0.45,-21.4 1.31,-33.68l-0.86 0c-1.83,9.66 -3.48,16.6 -4.95,20.87l-36.87 107.01 -29 0 -37.54 -105.92c-1.01,-2.85 -2.66,-10.19 -4.95,-21.96l-0.97 0c0.94,15.51 1.42,29.11 1.42,40.84l0 87.04 -31.96 0 0 -157.4 51.93 0 32.19 93.3c2.55,7.46 4.42,14.95 5.58,22.52l0.67 0c1.95,-8.73 4.05,-16.3 6.26,-22.74l32.15 -93.07 50.62 0 0 157.4zm139.38 -112.4l-45.67 121.4c-10.98,29.19 -27.5,43.8 -49.61,43.8 -8.39,0 -15.32,-0.94 -20.76,-2.85l0 -27.65c4.64,2.7 9.63,4.05 15.06,4.05 8.92,0 15.14,-4.2 18.66,-12.63l5.92 -13.94 -45.67 -112.18 38.44 0 20.94 68.38c1.31,4.24 2.36,9.26 3.07,15.06l0.45 0c0.67,-4.27 1.87,-9.22 3.63,-14.84l21.17 -68.6 34.36 0zm184.53 112.4l-34.58 0 0 -62.46c0,-17.42 -6.22,-26.12 -18.66,-26.12 -5.99,0 -10.94,2.29 -14.8,6.9 -3.9,4.61 -5.85,10.49 -5.85,17.57l0 64.11 -34.66 0 0 -112.4 34.66 0 0 17.8 0.45 0c8.28,-13.71 20.31,-20.53 36.12,-20.53 24.88,0 37.32,15.44 37.32,46.31l0 68.83zm120.99 0l-32.82 0 0 -16.15 -0.45 0c-7.53,12.59 -18.7,18.88 -33.5,18.88 -10.9,0 -19.48,-3.07 -25.74,-9.25 -6.26,-6.18 -9.36,-14.46 -9.36,-24.77 0,-21.81 12.93,-34.4 38.74,-37.77l30.53 -4.05c0,-12.29 -6.67,-18.43 -20.01,-18.43 -13.38,0 -26.12,3.97 -38.18,11.95l0 -26.12c4.84,-2.51 11.43,-4.68 19.82,-6.59 8.36,-1.91 16,-2.85 22.89,-2.85 32.03,0 48.07,16 48.07,47.96l0 67.18zm-32.6 -45.67l0 -7.57 -20.42 2.62c-11.28,1.46 -16.9,6.56 -16.9,15.29 0,3.93 1.35,7.2 4.09,9.7 2.77,2.51 6.48,3.78 11.17,3.78 6.52,0 11.8,-2.25 15.92,-6.74 4.08,-4.5 6.14,-10.19 6.14,-17.09zm238.52 45.67l-34.58 0 0 -64.11c0,-16.34 -6,-24.47 -17.98,-24.47 -5.7,0 -10.34,2.43 -13.94,7.34 -3.6,4.91 -5.4,11.02 -5.4,18.32l0 62.91 -34.66 0 0 -64.78c0,-15.85 -5.92,-23.79 -17.69,-23.79 -5.92,0 -10.68,2.32 -14.2,7.01 -3.56,4.68 -5.36,11.05 -5.36,19.11l0 62.46 -34.66 0 0 -112.4 34.66 0 0 17.57 0.45 0c3.6,-6 8.62,-10.9 15.1,-14.65 6.48,-3.78 13.57,-5.66 21.24,-5.66 15.89,0 26.75,6.97 32.6,20.95 8.58,-13.98 21.13,-20.95 37.77,-20.95 24.43,0 36.64,15.06 36.64,45.23l0 69.91zm128.44 -46.31l-73.33 0c1.16,16.3 11.47,24.46 30.84,24.46 12.37,0 23.23,-2.92 32.6,-8.77l0 25.03c-10.38,5.55 -23.87,8.32 -40.5,8.32 -18.13,0 -32.22,-5.02 -42.26,-15.1 -10,-10.04 -15.03,-24.09 -15.03,-42.08 0,-18.66 5.4,-33.46 16.26,-44.36 10.83,-10.9 24.13,-16.34 39.94,-16.34 16.37,0 29.07,4.87 38.03,14.58 8.96,9.74 13.45,22.97 13.45,39.64l0 14.61zm-32.15 -21.32c0,-16.07 -6.52,-24.13 -19.56,-24.13 -5.55,0 -10.38,2.29 -14.43,6.89 -4.08,4.61 -6.52,10.38 -7.42,17.23l41.4 0zm132.33 -62.57c-5.84,0 -10.64,-1.72 -14.35,-5.21 -3.75,-3.48 -5.62,-7.72 -5.62,-12.78 0,-5.21 1.87,-9.44 5.62,-12.74 3.71,-3.3 8.5,-4.95 14.35,-4.95 5.96,0 10.75,1.65 14.46,4.95 3.67,3.3 5.55,7.53 5.55,12.74 0,5.25 -1.87,9.59 -5.55,12.97 -3.71,3.33 -8.5,5.02 -14.46,5.02zm17.12 130.2l-34.66 0 0 -112.4 34.66 0 0 112.4zm21.84 -2.96l0 -28.1c5.73,3.45 11.43,6 17.09,7.68 5.66,1.69 11.02,2.51 16.07,2.51 6.14,0 11.02,-0.82 14.54,-2.51 3.56,-1.69 5.32,-4.24 5.32,-7.68 0,-2.21 -0.79,-4.05 -2.4,-5.51 -1.61,-1.46 -3.67,-2.74 -6.22,-3.82 -2.51,-1.09 -5.28,-2.1 -8.28,-2.96 -3,-0.9 -5.88,-1.87 -8.66,-2.96 -4.46,-1.69 -8.39,-3.52 -11.8,-5.44 -3.41,-1.95 -6.26,-4.2 -8.58,-6.78 -2.28,-2.55 -4.05,-5.51 -5.24,-8.88 -1.2,-3.37 -1.84,-7.34 -1.84,-11.95 0,-6.3 1.39,-11.73 4.12,-16.26 2.73,-4.53 6.41,-8.24 10.98,-11.13 4.57,-2.88 9.82,-5.02 15.7,-6.37 5.88,-1.35 12.03,-2.02 18.4,-2.02 4.98,0 10,0.37 15.14,1.16 5.14,0.75 10.19,1.87 15.17,3.33l0 26.79c-4.42,-2.58 -9.1,-4.5 -14.13,-5.77 -5.02,-1.27 -9.93,-1.91 -14.76,-1.91 -2.29,0 -4.42,0.19 -6.41,0.6 -2.02,0.37 -3.82,0.97 -5.36,1.76 -1.54,0.75 -2.73,1.73 -3.6,2.96 -0.9,1.2 -1.31,2.59 -1.31,4.12 0,2.02 0.64,3.79 1.95,5.25 1.35,1.46 3.03,2.73 5.17,3.78 2.14,1.09 4.5,2.02 7.08,2.85 2.59,0.86 5.17,1.72 7.76,2.58 4.61,1.61 8.77,3.37 12.51,5.28 3.71,1.91 6.93,4.12 9.59,6.71 2.66,2.55 4.72,5.54 6.14,8.99 1.42,3.45 2.13,7.53 2.13,12.29 0,6.67 -1.42,12.37 -4.34,17.09 -2.89,4.72 -6.71,8.54 -11.5,11.5 -4.8,2.96 -10.34,5.13 -16.6,6.48 -6.26,1.35 -12.74,2.02 -19.48,2.02 -12.36,0 -23.79,-1.91 -34.36,-5.7zm171.68 2.96l0 -157.4 55.79 0c55.9,0 83.85,25.55 83.85,76.73 0,24.5 -7.64,44.06 -22.89,58.71 -15.25,14.65 -35.56,21.96 -60.96,21.96l-55.79 0zm35.48 -128.55l0 99.78 17.57 0c15.36,0 27.39,-4.61 36.16,-13.83 8.73,-9.22 13.11,-21.77 13.11,-37.66 0,-14.99 -4.35,-26.79 -13,-35.37 -8.69,-8.62 -20.83,-12.93 -36.49,-12.93l-17.35 0zm220.42 128.55l-32.82 0 0 -16.15 -0.45 0c-7.53,12.59 -18.7,18.88 -33.5,18.88 -10.9,0 -19.48,-3.07 -25.74,-9.25 -6.26,-6.18 -9.36,-14.46 -9.36,-24.77 0,-21.81 12.93,-34.4 38.74,-37.77l30.53 -4.05c0,-12.29 -6.67,-18.43 -20.01,-18.43 -13.38,0 -26.12,3.97 -38.18,11.95l0 -26.12c4.84,-2.51 11.43,-4.68 19.82,-6.59 8.36,-1.91 16,-2.85 22.89,-2.85 32.03,0 48.07,16 48.07,47.96l0 67.18zm-32.6 -45.67l0 -7.57 -20.42 2.62c-11.28,1.46 -16.9,6.56 -16.9,15.29 0,3.93 1.35,7.2 4.09,9.7 2.77,2.51 6.48,3.78 11.17,3.78 6.52,0 11.8,-2.25 15.92,-6.74 4.08,-4.5 6.14,-10.19 6.14,-17.09zm168.6 45.67l-34.58 0 0 -62.46c0,-17.42 -6.22,-26.12 -18.66,-26.12 -5.99,0 -10.94,2.29 -14.8,6.9 -3.9,4.61 -5.85,10.49 -5.85,17.57l0 64.11 -34.66 0 0 -112.4 34.66 0 0 17.8 0.45 0c8.28,-13.71 20.31,-20.53 36.12,-20.53 24.88,0 37.32,15.44 37.32,46.31l0 68.83zm45 -130.2c-5.84,0 -10.64,-1.72 -14.35,-5.21 -3.75,-3.48 -5.62,-7.72 -5.62,-12.78 0,-5.21 1.87,-9.44 5.62,-12.74 3.71,-3.3 8.5,-4.95 14.35,-4.95 5.96,0 10.75,1.65 14.46,4.95 3.67,3.3 5.55,7.53 5.55,12.74 0,5.25 -1.87,9.59 -5.55,12.97 -3.71,3.33 -8.5,5.02 -14.46,5.02zm17.12 130.2l-34.66 0 0 -112.4 34.66 0 0 112.4zm63.88 0l-34.66 0 0 -166.4 34.66 0 0 166.4zm69.5 -157.4l-4.27 108.43 -28.1 0 -4.08 -108.43 36.46 0zm-18.02 159.91c-5.84,0 -10.68,-1.76 -14.46,-5.32 -3.82,-3.52 -5.73,-7.83 -5.73,-12.89 0,-5.28 1.95,-9.59 5.77,-12.96 3.86,-3.37 8.65,-5.02 14.42,-5.02 5.88,0 10.68,1.69 14.39,5.1 3.75,3.41 5.62,7.68 5.62,12.89 0,5.28 -1.87,9.63 -5.55,13.08 -3.71,3.41 -8.5,5.13 -14.46,5.13z"/>
  </g>
 </g>
</svg>
